<svg width="24" height="24" viewBox="0 0 24 24" fill="none" xmlns="http://www.w3.org/2000/svg">
<path d="M16.2938 13.6078C15.6142 13.1531 14.8079 12.8296 13.9501 12.6375L12.3751 15.5859C12.1548 15.9984 11.5595 15.9984 11.3392 15.5859L9.79697 12.6984C9.03291 12.8953 8.31572 13.1953 7.69697 13.6078C6.59541 14.3437 5.99072 15.3515 5.99072 16.439C5.99072 17.5265 6.59541 18.525 7.69697 19.2515C8.87822 20.0437 10.4392 20.4421 11.9907 20.4421C13.5423 20.4421 15.0985 20.0437 16.2845 19.2515C17.386 18.5156 17.9907 17.5078 17.9907 16.4203C17.9907 15.3328 17.3813 14.3343 16.2845 13.6078H16.2938Z" fill="#4687F1"/>
<path d="M11.9249 11.7797H12.014C12.6749 11.7563 13.289 11.5829 13.8327 11.2875C15.1077 10.5938 15.9702 9.23911 15.9749 7.67349C15.9749 5.40474 14.128 3.55786 11.8593 3.55786C9.59053 3.55786 7.74365 5.40474 7.74365 7.67349C7.74365 9.94224 8.59678 10.5891 9.8999 11.2829C10.453 11.5782 11.0905 11.7563 11.7796 11.7797C11.8265 11.7704 11.8827 11.7704 11.9202 11.7797H11.9249Z" fill="#4687F1"/>
</svg>
