<svg width="24" height="24" viewBox="0 0 24 24" fill="none" xmlns="http://www.w3.org/2000/svg">
<path d="M20.4891 12C20.4891 16.6876 16.6876 20.4891 12 20.4891C7.31255 20.4891 3.51099 16.6876 3.51099 12C3.51099 7.31255 7.31255 3.51099 12 3.51099C16.6876 3.51099 20.4891 7.31255 20.4891 12ZM5.42349 9.8813L5.73286 10.4532C6.00942 10.936 6.45942 11.2876 6.9938 11.4422L8.88286 11.9907C9.48286 12.1547 9.87661 12.675 9.87661 13.2657V14.5876C9.87661 14.9532 10.0829 15.286 10.4063 15.4172C10.7297 15.6094 10.936 15.9422 10.936 16.3079V17.6016C10.936 18.1172 11.4282 18.4922 11.9297 18.3469C12.4688 18.1922 12.8766 17.7422 13.0126 17.2313L13.1063 16.861C13.2469 16.2985 13.6125 15.8204 14.1094 15.5297L14.3766 15.3751C14.8735 15.0938 15.1782 14.5641 15.1782 13.9922V13.7204C15.1782 13.2938 15.0094 12.8907 14.7094 12.5907L14.5829 12.4641C14.2829 12.1641 13.875 11.9672 13.4532 11.9672H11.9954C11.6579 11.9672 11.2922 11.9016 10.9688 11.7188L9.82505 11.0625C9.68442 10.9829 9.57192 10.8516 9.52505 10.6922C9.41724 10.3735 9.56255 10.0313 9.85786 9.87661L10.0547 9.77817C10.275 9.67036 10.5235 9.64692 10.7297 9.72661L11.5266 9.97974C11.7938 10.0688 12.0938 9.96567 12.2532 9.7313C12.4079 9.49692 12.3938 9.18755 12.2157 8.97192L11.7657 8.43286C11.4329 8.03442 11.4375 7.45317 11.775 7.06411L12.2954 6.45474C12.586 6.11255 12.6329 5.62505 12.4125 5.23599L12.3329 5.10005C12.1922 5.09536 12.1032 5.09067 11.986 5.09067C8.9063 5.09067 6.29536 7.11099 5.40942 9.86724L5.42349 9.8813ZM18.0188 8.63442L17.1704 8.97661C16.65 9.18755 16.3829 9.76411 16.5563 10.2985L17.1188 11.9813C17.236 12.3282 17.5172 12.586 17.8688 12.6797L18.8391 12.9188C18.8766 12.6188 18.9001 12.3141 18.9001 12.0047C18.9001 10.786 18.5813 9.63755 18.0235 8.63911L18.0188 8.63442Z" fill="#4687F1"/>
</svg>
