<svg width="24" height="24" viewBox="0 0 24 24" fill="none" xmlns="http://www.w3.org/2000/svg">
<path d="M11.9999 3.52502C7.31709 3.52502 3.5249 7.3219 3.5249 12C3.5249 16.6781 7.32178 20.475 11.9999 20.475C16.678 20.475 20.4749 16.6781 20.4749 12C20.4749 7.3219 16.678 3.52502 11.9999 3.52502V3.52502ZM14.7749 9.58596C14.7749 10.1391 14.3249 10.5891 13.7718 10.5891C13.2187 10.5891 12.7687 10.1391 12.7687 9.58596C12.7687 9.03284 13.2187 8.58284 13.7718 8.58284C14.3249 8.58284 14.7749 9.03284 14.7749 9.58596ZM12.6046 6.68909C12.9374 6.68909 13.2093 6.96096 13.2093 7.29377C13.2093 7.62659 12.9374 7.89846 12.6046 7.89846C12.2718 7.89846 11.9999 7.62659 11.9999 7.29377C11.9999 6.96096 12.2718 6.68909 12.6046 6.68909ZM8.23584 9.58596C8.23584 8.64846 8.99521 7.8844 9.9374 7.8844C10.8796 7.8844 11.639 8.64377 11.639 9.58596C11.639 10.5281 10.8796 11.2875 9.9374 11.2875C8.99521 11.2875 8.23584 10.5281 8.23584 9.58596ZM12.6046 17.3016C10.8843 17.3016 9.49209 15.9094 9.49209 14.1891C9.49209 12.4688 10.8843 11.0766 12.6046 11.0766C14.3249 11.0766 15.7171 12.4688 15.7171 14.1891C15.7171 15.9094 14.3249 17.3016 12.6046 17.3016Z" fill="#4687F1"/>
</svg>
