<svg width="24" height="24" viewBox="0 0 24 24" fill="none" xmlns="http://www.w3.org/2000/svg">
<path fill-rule="evenodd" clip-rule="evenodd" d="M12.0187 11.836H12.0843C13.7249 11.7844 15.0233 10.4391 15.028 8.7844C15.028 7.10159 13.6546 5.72815 11.9718 5.72815C10.289 5.72815 8.91553 7.10159 8.91553 8.7844C8.91553 10.4672 10.2046 11.7797 11.9108 11.836C11.9483 11.8313 11.9858 11.8313 12.0187 11.836Z" fill="#4687F1"/>
<path fill-rule="evenodd" clip-rule="evenodd" d="M17.9251 11.8875H17.9673C19.0876 11.85 19.9688 10.936 19.9735 9.81099C19.9735 8.66255 19.0407 7.72974 17.8923 7.72974C16.7438 7.72974 15.811 8.66255 15.811 9.81099C15.811 10.9594 16.6876 11.85 17.8501 11.8875C17.8735 11.8875 17.9017 11.8875 17.9204 11.8875H17.9251Z" fill="#4687F1"/>
<path fill-rule="evenodd" clip-rule="evenodd" d="M6.14541 11.8875C7.30791 11.85 8.18447 10.936 8.18447 9.81099C8.18447 8.66255 7.25166 7.72974 6.10322 7.72974C4.95478 7.72974 4.02197 8.66255 4.02197 9.81099C4.02197 10.936 4.90791 11.85 6.02822 11.8875H6.07041C6.08916 11.8875 6.11729 11.8875 6.14072 11.8875H6.14541Z" fill="#4687F1"/>
<path d="M20.1375 12.8157C18.9422 12.0188 16.9922 12.0188 15.7922 12.8157C15.736 12.8532 15.6797 12.8954 15.6282 12.9375C16.4813 13.5563 16.95 14.3813 16.95 15.286C16.95 16.1907 16.9032 15.8532 16.8094 16.1204C17.1797 16.2188 17.5735 16.2704 17.9625 16.2704C18.75 16.2704 19.5329 16.0688 20.1375 15.6704C20.6954 15.2954 21 14.7891 21 14.2407C21 13.6922 20.6907 13.186 20.1375 12.8157V12.8157Z" fill="#4687F1"/>
<path d="M8.44219 12.9938C8.37187 12.9329 8.29219 12.8719 8.20781 12.8157C7.00312 12.0188 5.05781 12.0188 3.8625 12.8157C3.30938 13.186 3 13.6875 3 14.2407C3 14.7938 3.30469 15.3 3.8625 15.6704C4.4625 16.0735 5.25 16.2704 6.0375 16.2704C6.825 16.2704 6.91406 16.2094 7.32187 16.0829C7.24219 15.8297 7.2 15.5672 7.2 15.2954C7.2 14.4141 7.64062 13.6032 8.44687 12.9891L8.44219 12.9938Z" fill="#4687F1"/>
<path d="M16.5282 15.286C16.5282 14.4798 16.0735 13.7392 15.2625 13.1954C14.386 12.6095 13.2329 12.3188 12.075 12.3188C10.9172 12.3188 10.3407 12.4829 9.59067 12.811C9.52974 12.8392 9.46411 12.8673 9.40317 12.8954C9.2813 12.9563 9.16411 13.0173 9.04692 13.0876C8.99067 13.1204 8.93442 13.1579 8.87817 13.1954C8.05786 13.7438 7.61255 14.4892 7.61255 15.2954C7.61255 16.1017 8.05786 16.8423 8.87817 17.386C9.04224 17.4985 9.21567 17.597 9.39849 17.686C10.1907 18.0751 11.1329 18.2673 12.0704 18.2673C13.0079 18.2673 14.3766 17.972 15.2625 17.386C16.0829 16.8376 16.5282 16.0923 16.5282 15.286Z" fill="#4687F1"/>
</svg>
