<svg width="24" height="24" viewBox="0 0 24 24" fill="none" xmlns="http://www.w3.org/2000/svg">
<path d="M17.475 5.52659C16.8 4.85627 15.7453 4.6969 14.3859 4.6969H9.61406C8.25469 4.6969 7.2 4.85627 6.525 5.52659C5.85 6.1969 5.69531 7.25159 5.69531 8.60627V16.4203C5.69531 18.0141 6.99375 19.3078 8.59219 19.3078H15.4125C17.0109 19.3078 18.3094 18.0141 18.3094 16.4203V8.60159C18.3094 7.2469 18.15 6.1969 17.4797 5.5219L17.475 5.52659ZM14.4234 9.3094C14.7328 9.3094 14.9813 9.55784 14.9813 9.86721C14.9813 10.1766 14.7328 10.425 14.4234 10.425C14.1141 10.425 13.8656 10.1766 13.8656 9.86721C13.8656 9.55784 14.1141 9.3094 14.4234 9.3094ZM13.4578 8.50784C13.6688 8.38596 13.9453 8.45627 14.0672 8.6719C14.1891 8.88284 14.1188 9.1594 13.9031 9.28127C13.6922 9.40315 13.4203 9.33284 13.2938 9.11721C13.1719 8.90627 13.2422 8.62971 13.4578 8.50784ZM12.9188 9.48752C12.8109 9.55315 12.675 9.51565 12.6094 9.41252C12.5438 9.30471 12.5813 9.16877 12.6844 9.10315C12.7922 9.03752 12.9281 9.07502 12.9938 9.17815C13.0594 9.28596 13.0219 9.4219 12.9188 9.48752ZM13.2703 9.52502C13.4297 9.52502 13.5609 9.65627 13.5609 9.81565C13.5609 9.97502 13.4297 10.1063 13.2703 10.1063C13.1109 10.1063 12.9797 9.97502 12.9797 9.81565C12.9797 9.65627 13.1109 9.52502 13.2703 9.52502ZM12.6984 10.0031C12.7781 10.0406 12.8156 10.1344 12.7781 10.2141C12.7406 10.2938 12.6469 10.3313 12.5672 10.2938C12.4875 10.2563 12.45 10.1625 12.4875 10.0828C12.525 10.0031 12.6187 9.96565 12.6984 10.0031ZM12.7125 10.5797C12.7781 10.6875 12.7453 10.8235 12.6422 10.8891C12.5344 10.9547 12.3984 10.9219 12.3328 10.8188C12.2672 10.711 12.3 10.575 12.4031 10.5094C12.5109 10.4438 12.6469 10.4766 12.7125 10.5797ZM11.8125 10.4063C11.8969 10.4438 11.9344 10.5469 11.8969 10.6313C11.8594 10.7156 11.7562 10.7531 11.6719 10.7156C11.5875 10.6781 11.55 10.575 11.5875 10.4906C11.625 10.4063 11.7281 10.3688 11.8125 10.4063ZM11.8219 9.19221C11.8922 9.17815 11.9625 9.22502 11.9766 9.29534C11.9906 9.36565 11.9438 9.43596 11.8734 9.45002C11.8031 9.46409 11.7328 9.41721 11.7188 9.3469C11.7047 9.27659 11.7516 9.20627 11.8219 9.19221ZM12.0141 10.8516C12.1734 10.8516 12.3094 10.9781 12.3094 11.1375C12.3094 11.2969 12.1828 11.4328 12.0234 11.4328C11.8641 11.4328 11.7281 11.3063 11.7281 11.1469C11.7281 10.9875 11.8547 10.8516 12.0141 10.8516ZM12.1266 10.2938C12.1969 10.2797 12.2672 10.3266 12.2812 10.3969C12.2953 10.4672 12.2484 10.5375 12.1781 10.5516C12.1078 10.5656 12.0375 10.5188 12.0234 10.4485C12.0094 10.3781 12.0563 10.3078 12.1266 10.2938ZM12.4125 9.25315C12.375 9.33752 12.2719 9.37502 12.1875 9.33752C12.1031 9.30002 12.0656 9.1969 12.1031 9.11252C12.1406 9.02815 12.2438 8.99065 12.3281 9.02815C12.4125 9.06565 12.45 9.16877 12.4125 9.25315ZM11.9859 8.89221C11.8266 8.89221 11.6906 8.76565 11.6906 8.60627C11.6906 8.4469 11.8172 8.31096 11.9766 8.31096C12.1359 8.31096 12.2719 8.43752 12.2719 8.5969C12.2719 8.75627 12.1453 8.89221 11.9859 8.89221ZM11.5969 9.22971C11.4891 9.29534 11.3531 9.26252 11.2875 9.1594C11.2219 9.05159 11.2547 8.91565 11.3578 8.85002C11.4656 8.7844 11.6016 8.81721 11.6672 8.92034C11.7328 9.02346 11.7 9.16409 11.5969 9.22971ZM11.4281 9.44065C11.5078 9.47815 11.5453 9.5719 11.5078 9.65159C11.4703 9.73127 11.3766 9.76877 11.2969 9.73127C11.2172 9.69377 11.1797 9.60002 11.2172 9.52034C11.2547 9.44065 11.3484 9.40315 11.4281 9.44065ZM11.3906 10.3219C11.4562 10.4297 11.4187 10.5656 11.3156 10.6313C11.2078 10.6969 11.0719 10.6594 11.0063 10.5563C10.9406 10.4485 10.9781 10.3125 11.0812 10.2469C11.1891 10.1813 11.325 10.2188 11.3906 10.3219ZM10.7297 10.2094C10.5703 10.2094 10.4391 10.0781 10.4391 9.91877C10.4391 9.7594 10.5703 9.62815 10.7297 9.62815C10.8891 9.62815 11.0203 9.7594 11.0203 9.91877C11.0203 10.0781 10.8891 10.2094 10.7297 10.2094ZM10.9266 11.0203C11.025 10.8516 11.2406 10.7953 11.4094 10.8891C11.5781 10.9875 11.6344 11.2031 11.5406 11.3719C11.4422 11.5406 11.2266 11.5969 11.0578 11.5031C10.8891 11.4047 10.8328 11.1891 10.9312 11.0203H10.9266ZM12 11.7328C12.3094 11.7328 12.5578 11.9813 12.5578 12.2907C12.5578 12.6 12.3094 12.8485 12 12.8485C11.6906 12.8485 11.4422 12.6 11.4422 12.2907C11.4422 11.9813 11.6906 11.7328 12 11.7328V11.7328ZM12.75 11.161C12.9609 11.0391 13.2375 11.1094 13.3594 11.325C13.4812 11.536 13.4109 11.8125 13.1953 11.9344C12.9844 12.0563 12.7078 11.986 12.5859 11.7703C12.4641 11.5594 12.5344 11.2828 12.75 11.161ZM13.1531 10.936C12.9844 10.8375 12.9281 10.6219 13.0219 10.4531C13.1203 10.2844 13.3359 10.2281 13.5047 10.3219C13.6734 10.4203 13.7297 10.636 13.6359 10.8047C13.5375 10.9735 13.3219 11.0297 13.1531 10.936ZM12.9422 8.22659C13.1109 8.32502 13.1672 8.54065 13.0734 8.7094C12.9797 8.87815 12.7594 8.9344 12.5906 8.84065C12.4219 8.7469 12.3656 8.52659 12.4594 8.35784C12.5578 8.18909 12.7734 8.13284 12.9422 8.22659ZM12 6.88127C12.3094 6.88127 12.5578 7.12971 12.5578 7.43909C12.5578 7.74846 12.3094 7.9969 12 7.9969C11.6906 7.9969 11.4422 7.74846 11.4422 7.43909C11.4422 7.12971 11.6906 6.88127 12 6.88127ZM10.8047 7.79534C11.0156 7.67346 11.2922 7.74377 11.4141 7.9594C11.5359 8.17034 11.4656 8.4469 11.25 8.56877C11.0391 8.69065 10.7625 8.62034 10.6406 8.40471C10.5188 8.19377 10.5891 7.91721 10.8047 7.79534ZM10.3641 8.92034C10.4625 8.75159 10.6781 8.69534 10.8469 8.78909C11.0156 8.88752 11.0719 9.10315 10.9781 9.2719C10.8797 9.44065 10.6641 9.4969 10.4953 9.40315C10.3266 9.30471 10.2703 9.08909 10.3687 8.92034H10.3641ZM10.7016 10.6125C10.8234 10.8235 10.7531 11.1 10.5375 11.2219C10.3266 11.3438 10.05 11.2735 9.92813 11.0578C9.80625 10.8469 9.87656 10.5703 10.0922 10.4485C10.3031 10.3266 10.5797 10.3969 10.7016 10.6125ZM9.57187 9.3094C9.88125 9.3094 10.1297 9.55784 10.1297 9.86721C10.1297 10.1766 9.88125 10.425 9.57187 10.425C9.2625 10.425 9.01406 10.1766 9.01406 9.86721C9.01406 9.55784 9.2625 9.3094 9.57187 9.3094ZM17.2828 15.3985C17.2828 15.4969 17.2828 15.5719 17.2781 15.6469C17.2781 15.6891 17.2781 15.7266 17.2828 15.7688V16.4203C17.2828 17.4516 16.4391 18.2906 15.4078 18.2906H8.59219C7.55625 18.2906 6.71719 17.4516 6.71719 16.4203V15.9797C6.71719 15.1922 7.35937 14.5547 8.15156 14.5547H17.2875V15.4031L17.2828 15.3985Z" fill="#4687F1"/>
</svg>
