<svg width="24" height="24" viewBox="0 0 24 24" fill="none" xmlns="http://www.w3.org/2000/svg">
<path fill-rule="evenodd" clip-rule="evenodd" d="M9.70786 11.836H9.77349C11.4141 11.7844 12.7125 10.4391 12.7172 8.7844C12.7172 7.10159 11.3438 5.72815 9.66099 5.72815C7.97817 5.72815 6.60474 7.10159 6.60474 8.7844C6.60474 10.4672 7.8938 11.7797 9.60005 11.836C9.63755 11.8313 9.67505 11.8313 9.70786 11.836V11.836Z" fill="#4687F1"/>
<path fill-rule="evenodd" clip-rule="evenodd" d="M15.6187 11.8875H15.6609C16.7812 11.85 17.6625 10.936 17.6671 9.81099C17.6671 8.66255 16.7343 7.72974 15.5859 7.72974C14.4375 7.72974 13.5046 8.66255 13.5046 9.81099C13.5046 10.9594 14.3812 11.85 15.5437 11.8875C15.5671 11.8875 15.5953 11.8875 15.614 11.8875H15.6187Z" fill="#4687F1"/>
<path d="M17.8312 12.8157C16.6358 12.0188 14.6858 12.0188 13.4858 12.8157C13.4296 12.8532 13.3733 12.8954 13.3218 12.9375C14.1749 13.5563 14.6437 14.3813 14.6437 15.286C14.6437 16.1907 14.5968 15.8532 14.503 16.1204C14.8733 16.2188 15.2671 16.2704 15.6562 16.2704C16.4437 16.2704 17.2265 16.0688 17.8312 15.6704C18.389 15.2954 18.6937 14.7891 18.6937 14.2407C18.6937 13.6922 18.3843 13.186 17.8312 12.8157V12.8157Z" fill="#4687F1"/>
<path d="M14.2218 15.286C14.2218 14.4798 13.7671 13.7392 12.9562 13.1954C12.0796 12.6095 10.9265 12.3188 9.76865 12.3188C8.61084 12.3188 8.03428 12.4829 7.28428 12.811C7.22334 12.8392 7.15771 12.8673 7.09678 12.8954C6.9749 12.9563 6.85772 13.0173 6.74053 13.0876C6.68428 13.1204 6.62803 13.1579 6.57178 13.1954C5.75146 13.7438 5.30615 14.4892 5.30615 15.2954C5.30615 16.1017 5.75146 16.8423 6.57178 17.386C6.73584 17.4985 6.90928 17.597 7.09209 17.686C7.88428 18.0751 8.82647 18.2673 9.76397 18.2673C10.7015 18.2673 12.0702 17.972 12.9562 17.386C13.7765 16.8376 14.2218 16.0923 14.2218 15.286Z" fill="#4687F1"/>
</svg>
