<svg width="24" height="24" viewBox="0 0 24 24" fill="none" xmlns="http://www.w3.org/2000/svg">
<path d="M11.9999 3.52502C7.31709 3.52502 3.5249 7.3219 3.5249 12C3.5249 16.6781 7.32178 20.475 11.9999 20.475C16.678 20.475 20.4749 16.6781 20.4749 12C20.4749 7.3219 16.678 3.52502 11.9999 3.52502V3.52502ZM12.3327 6.43596C13.453 6.43596 14.3577 7.34065 14.3577 8.46096C14.3577 9.58127 13.453 10.486 12.3327 10.486C11.2124 10.486 10.3077 9.58127 10.3077 8.46096C10.3077 7.34065 11.2124 6.43596 12.3327 6.43596ZM7.13897 11.1469C7.13897 10.486 7.67334 9.95159 8.33428 9.95159C8.99522 9.95159 9.52959 10.486 9.52959 11.1469C9.52959 11.8078 8.99522 12.3422 8.33428 12.3422C7.67334 12.3422 7.13897 11.8078 7.13897 11.1469ZM10.3077 17.2828C9.1874 17.2828 8.28271 16.3781 8.28271 15.2578C8.28271 14.1375 9.1874 13.2328 10.3077 13.2328C11.428 13.2328 12.3327 14.1375 12.3327 15.2578C12.3327 16.3781 11.428 17.2828 10.3077 17.2828V17.2828ZM14.9249 15.2578C13.8046 15.2578 12.8999 14.3531 12.8999 13.2328C12.8999 12.1125 13.8046 11.2078 14.9249 11.2078C16.0452 11.2078 16.9499 12.1125 16.9499 13.2328C16.9499 14.3531 16.0452 15.2578 14.9249 15.2578Z" fill="#4687F1"/>
</svg>
