<svg width="24" height="24" viewBox="0 0 24 24" fill="none" xmlns="http://www.w3.org/2000/svg">
<path d="M17.475 5.52659C16.8 4.85627 15.7453 4.6969 14.3859 4.6969H9.61406C8.25469 4.6969 7.2 4.85627 6.525 5.52659C5.85 6.1969 5.69531 7.25159 5.69531 8.60627V16.4203C5.69531 18.0141 6.99375 19.3078 8.59219 19.3078H15.4125C17.0109 19.3078 18.3094 18.0141 18.3094 16.4203V8.60159C18.3094 7.2469 18.15 6.1969 17.4797 5.5219L17.475 5.52659ZM9.27188 8.09534H14.7281C15.0094 8.09534 15.2391 8.32502 15.2391 8.60627C15.2391 8.88752 15.0094 9.11721 14.7281 9.11721H9.27188C8.99063 9.11721 8.76094 8.88752 8.76094 8.60627C8.76094 8.32502 8.99063 8.09534 9.27188 8.09534V8.09534ZM9.27188 10.4719H12.6797C12.9609 10.4719 13.1906 10.7016 13.1906 10.9828C13.1906 11.2641 12.9609 11.4938 12.6797 11.4938H9.27188C8.99063 11.4938 8.76094 11.2641 8.76094 10.9828C8.76094 10.7016 8.99063 10.4719 9.27188 10.4719ZM17.2828 15.3985C17.2828 15.4969 17.2828 15.5719 17.2781 15.6469C17.2781 15.6891 17.2781 15.7266 17.2828 15.7688V16.4203C17.2828 17.4516 16.4391 18.2906 15.4078 18.2906H8.59219C7.55625 18.2906 6.71719 17.4516 6.71719 16.4203V15.9797C6.71719 15.1922 7.35937 14.5547 8.15156 14.5547H17.2875V15.4031L17.2828 15.3985Z" fill="#4687F1"/>
</svg>
