<svg width="24" height="24" viewBox="0 0 24 24" fill="none" xmlns="http://www.w3.org/2000/svg">
<path d="M4.56103 7.86561C4.64072 7.53279 5.06728 7.42029 5.30635 7.66404L6.94697 9.30467C7.25166 9.60936 7.66416 9.77811 8.09541 9.77811C8.99072 9.77811 9.71728 9.05154 9.71728 8.15623C9.71728 7.72498 9.54854 7.31248 9.24385 7.00779L7.60322 5.36717C7.35947 5.12342 7.47197 4.70154 7.80479 4.62186C8.46104 4.46248 9.16885 4.45311 9.90478 4.62654C11.6017 5.03436 12.9282 6.47342 13.2001 8.19842C13.3454 8.91561 13.2751 9.63279 13.0595 10.2797L17.9813 15.2015C18.7595 15.9797 18.7595 17.2359 17.9813 18.014C17.6157 18.4031 17.1095 18.6234 16.6267 18.6234C16.1438 18.6234 15.6095 18.4312 15.2204 18.0422L10.2985 13.1203C9.65166 13.3359 8.93447 13.4015 8.19385 13.2844C6.46885 13.0125 5.0251 11.6859 4.62197 9.98904C4.39697 9.22967 4.40635 8.52186 4.56572 7.86561H4.56103ZM16.4204 17.0719C16.7485 17.0531 17.0204 16.7812 17.0392 16.4531C17.0626 16.0687 16.7579 15.7453 16.3782 15.7453C15.9985 15.7453 15.7173 16.0406 15.7173 16.4062C15.7173 16.7719 16.036 17.0906 16.4204 17.0672V17.0719Z" fill="#4687F1"/>
</svg>
