<svg width="24" height="24" viewBox="0 0 24 24" fill="none" xmlns="http://www.w3.org/2000/svg">
<path d="M11.5359 12C11.7937 12 12 12.2062 12 12.464V15.2531C12 15.5109 11.7937 15.7171 11.5359 15.7171H8.74683C8.48901 15.7171 8.28276 15.5109 8.28276 15.2531V12.464C8.28276 12.2062 8.48901 12 8.74683 12H11.5359V12ZM9.21089 4.5562C9.59526 4.5562 9.90933 4.86558 9.90933 5.24995V6.41245H14.0953V5.24995C14.0953 4.86558 14.4046 4.55151 14.789 4.55151C15.1734 4.55151 15.4875 4.86089 15.4875 5.24526V6.40776H16.65C17.6765 6.40776 18.5109 7.24214 18.5109 8.2687V17.5734C18.5109 18.6 17.6765 19.4343 16.65 19.4343H7.34995C6.32339 19.4343 5.48901 18.6 5.48901 17.5734V8.27808C5.48901 7.25151 6.32339 6.41714 7.34995 6.41714H8.51245V5.25464C8.51245 4.87026 8.82183 4.5562 9.2062 4.5562H9.21089ZM17.1187 10.139H6.8812V17.5828C6.8812 17.8406 7.08745 18.0468 7.34526 18.0468H16.65C16.9078 18.0468 17.114 17.8406 17.114 17.5828V10.139H17.1187Z" fill="#4687F1"/>
</svg>
