<svg width="24" height="24" viewBox="0 0 24 24" fill="none" xmlns="http://www.w3.org/2000/svg">
<path d="M10.2517 11.1375C10.2517 10.6594 9.86729 10.275 9.38916 10.275H8.98135C8.02979 10.275 7.25635 11.0484 7.25635 12.0047V13.2937C7.25635 14.25 8.02979 15.0234 8.98135 15.0234H9.4126C9.89072 15.0234 10.2751 14.6344 10.2751 14.1609L10.2517 11.1422V11.1375ZM12.0001 5.09998C8.14228 5.09998 5.22197 8.31091 5.1001 12V13.0781C5.1001 13.4344 5.39072 13.725 5.72353 13.725C6.05635 13.725 6.39385 13.4344 6.39385 13.0781V12C6.39385 8.91091 8.91103 6.39841 12.0001 6.39841C15.0892 6.39841 17.6063 8.90623 17.6063 12V15.8812C17.6063 16.4765 17.1235 16.9593 16.5282 16.9593H13.5423C13.3173 16.575 12.9048 16.3125 12.4313 16.3125H11.6157C10.9923 16.3125 10.4157 16.7343 10.2985 17.3484C10.1392 18.1781 10.7673 18.9 11.5407 18.9H12.4267C12.9048 18.9 13.3173 18.6375 13.5423 18.2531H16.5235C17.8313 18.2531 18.8954 17.189 18.8954 15.8812V12C18.7735 8.31091 15.8532 5.09998 11.9954 5.09998H12.0001ZM15.0188 15.0187C15.9704 15.0187 16.7438 14.2453 16.7438 13.289V12C16.7438 11.0437 15.9704 10.2703 15.0188 10.2703H14.5876C14.1095 10.2703 13.7251 10.6547 13.7251 11.1328V14.1468C13.7251 14.625 14.1095 15.014 14.5876 15.014H15.0188V15.0187Z" fill="#0B4199"/>
</svg>
