<svg width="24" height="24" viewBox="0 0 24 24" fill="none" xmlns="http://www.w3.org/2000/svg">
<path d="M8.60145 10.9219C8.71395 10.8656 8.78895 10.8281 8.86395 10.7859C10.1296 10.1109 11.4046 9.45 12.6514 8.74688C13.1577 8.46094 13.7249 8.79375 13.6921 9.36562C13.6593 9.86719 13.6874 10.3781 13.6874 10.9172C13.7718 10.875 13.8374 10.8422 13.903 10.8094C15.1968 10.1156 16.4952 9.42187 17.7889 8.73281C18.1968 8.51719 18.6468 8.69062 18.7499 9.10312C18.7686 9.18281 18.7733 9.26719 18.7733 9.34687C18.7733 11.7516 18.7733 14.1609 18.7733 16.5656C18.7733 17.3906 18.2389 17.925 17.4139 17.925C13.8046 17.925 10.1999 17.925 6.59051 17.925C5.77957 17.925 5.23114 17.3906 5.22645 16.5797C5.22176 13.3828 5.22645 10.1906 5.22645 6.99375C5.22645 6.38906 5.55926 6.075 6.16395 6.07031C6.65145 6.07031 7.13895 6.07031 7.63114 6.07031C8.30614 6.07031 8.60614 6.36563 8.60614 7.03594C8.60614 8.25 8.60614 9.45937 8.60614 10.6734C8.60614 10.7437 8.60614 10.8141 8.60614 10.9219H8.60145ZM9.67489 14.5406C9.67489 14.3344 9.67957 14.1281 9.67489 13.9219C9.66082 13.6266 9.51082 13.4812 9.21551 13.4766C8.81707 13.4719 8.41864 13.4719 8.01551 13.4766C7.72957 13.4766 7.55614 13.6359 7.54676 13.9172C7.5327 14.3297 7.5327 14.7422 7.54676 15.15C7.55614 15.45 7.7202 15.5953 8.0202 15.6C8.41395 15.6047 8.8077 15.6 9.20145 15.6C9.5202 15.6 9.66082 15.4547 9.67489 15.1359C9.67957 14.9344 9.67489 14.7375 9.67489 14.5359V14.5406ZM12.0233 13.4766C11.8171 13.4766 11.6108 13.4766 11.4046 13.4766C11.1186 13.4812 10.9499 13.6359 10.9405 13.9172C10.9264 14.3297 10.9264 14.7422 10.9405 15.15C10.9499 15.4406 11.1093 15.5953 11.3999 15.6C11.803 15.6047 12.2108 15.6047 12.6139 15.6C12.9139 15.5953 13.0593 15.4547 13.0639 15.15C13.0733 14.7375 13.0733 14.325 13.0639 13.9172C13.0593 13.6266 12.8999 13.4812 12.6046 13.4766C12.4124 13.4766 12.2155 13.4766 12.0233 13.4766V13.4766ZM15.4218 13.4766C15.2155 13.4766 15.0093 13.4766 14.803 13.4766C14.5077 13.4812 14.3343 13.6359 14.3296 13.9312C14.3202 14.3344 14.3202 14.7422 14.3296 15.1453C14.3389 15.4453 14.4983 15.6 14.7983 15.6047C15.1968 15.6094 15.5952 15.6094 15.9983 15.6047C16.2983 15.6047 16.4483 15.4594 16.4577 15.1641C16.4671 14.7516 16.4671 14.3437 16.4577 13.9312C16.453 13.6312 16.2936 13.4859 15.9889 13.4812C15.8014 13.4812 15.6139 13.4812 15.4264 13.4812L15.4218 13.4766Z" fill="#4687F1"/>
</svg>
