<svg width="24" height="24" viewBox="0 0 24 24" fill="none" xmlns="http://www.w3.org/2000/svg">
<path d="M11.9858 4.94067C7.52803 4.94067 3.94678 7.87505 3.94678 11.4985C3.94678 15.1219 4.62178 14.4938 5.74209 15.6188C5.34834 17.2079 4.03115 18.6235 4.01709 18.6375C3.94678 18.7079 3.92803 18.8204 3.97021 18.9141C4.00771 19.0079 4.09678 19.0641 4.1999 19.0641C6.28584 19.0641 7.82803 18.061 8.62959 17.4422C9.65615 17.8266 10.8046 18.0516 12.014 18.0516C16.4718 18.0516 20.053 15.1172 20.053 11.5219C20.053 7.92661 16.4437 4.94067 11.9858 4.94067ZM7.92178 12.5063C7.36397 12.5063 6.91396 12.0563 6.91396 11.5266C6.91396 10.9969 7.36397 10.5188 7.92178 10.5188C8.47959 10.5188 8.92959 10.9688 8.92959 11.5266C8.92959 12.0844 8.50771 12.5063 7.92178 12.5063ZM11.9858 12.5063C11.428 12.5063 11.0062 12.0563 11.0062 11.5266C11.0062 10.9969 11.4562 10.5188 11.9858 10.5188C12.5155 10.5188 12.9655 10.9688 12.9655 11.5266C12.9655 12.0844 12.5483 12.5063 11.9858 12.5063V12.5063ZM15.9937 12.5063C15.4358 12.5063 14.9858 12.0563 14.9858 11.5266C14.9858 10.9969 15.4358 10.5188 15.9937 10.5188C16.5515 10.5188 17.0015 10.9688 17.0015 11.5266C17.0015 12.0844 16.5796 12.5063 15.9937 12.5063Z" fill="#4687F1"/>
</svg>
