<svg width="24" height="24" viewBox="0 0 24 24" fill="none" xmlns="http://www.w3.org/2000/svg">
<path d="M20.0157 11.3249L16.0313 14.2593C15.511 14.6437 14.8641 14.8593 14.1891 14.8593H3.9563C3.69849 14.8593 3.51099 14.6437 3.51099 14.3859V11.5546C3.51099 11.2968 3.72661 11.0812 3.9563 11.0812H5.58755L6.9563 9.97026C7.54692 9.49682 8.3438 9.19682 9.14067 9.19682H13.8329C14.4094 9.19682 14.8594 9.70776 14.7657 10.2984C14.686 10.7624 14.2547 11.0812 13.7813 11.0812H11.5032C11.2454 11.0812 11.0579 11.2968 11.0579 11.5265C11.0579 11.7562 11.2735 11.9718 11.5032 11.9718H15.061L18.5907 9.37026C19.1157 8.9812 19.8516 9.0937 20.2407 9.6187C20.6532 10.1953 20.5407 10.9312 20.0157 11.3203V11.3249Z" fill="#4687F1"/>
</svg>
