<svg width="24" height="24" viewBox="0 0 24 24" fill="none" xmlns="http://www.w3.org/2000/svg">
<path d="M4 12C4 7.58125 7.58125 4 12 4C16.4187 4 20 7.58125 20 12C20 16.4187 16.4187 20 12 20C7.58125 20 4 16.4187 4 12ZM15.6187 10.6188C15.9594 10.2781 15.9594 9.72187 15.6187 9.38125C15.2781 9.04062 14.7219 9.04062 14.3813 9.38125L11 12.7625L9.61875 11.3812C9.27813 11.0406 8.72187 11.0406 8.38125 11.3812C8.04062 11.7219 8.04062 12.2781 8.38125 12.6187L10.3812 14.6187C10.7219 14.9594 11.2781 14.9594 11.6188 14.6187L15.6187 10.6188Z" fill="#4687F1"/>
</svg>
