<svg width="24" height="24" viewBox="0 0 24 24" fill="none" xmlns="http://www.w3.org/2000/svg">
<path d="M12.4329 15.8426V17.641H12.6301C13.0767 17.641 13.5232 17.641 13.9698 17.641C15.2469 17.641 16.5235 17.6401 17.8005 17.641C18.2285 17.641 18.6431 17.5813 19.0149 17.3561C19.7792 16.8922 20.1428 16.2031 20.1424 15.3138C20.1419 12.6655 20.1424 10.0171 20.1419 7.36881C20.1419 7.27456 20.1424 7.17988 20.1337 7.08607C20.0762 6.44971 19.8186 5.91494 19.3214 5.50424C18.867 5.129 18.3297 5.0019 17.7569 5.00146C14.0143 4.9993 10.2714 4.99973 6.52886 5.00146C6.29065 5.00146 6.05115 5.014 5.81425 5.03778C4.82209 5.13678 3.98297 5.96076 3.91596 6.95638C3.86884 7.65759 3.89219 8.36399 3.88527 9.06779C3.88527 9.07817 3.89781 9.08854 3.89737 9.08768H5.68109C5.68109 8.53389 5.68109 7.98139 5.68109 7.42933C5.68109 6.94211 5.82203 6.80161 6.31054 6.80161C10.1097 6.80161 13.9093 6.80161 17.7084 6.80161C18.2168 6.80161 18.3439 6.92871 18.3439 7.43797C18.3439 10.0362 18.3439 12.6339 18.3439 15.2321C18.3439 15.3074 18.3439 15.3834 18.3353 15.4582C18.3107 15.6631 18.1926 15.7911 17.9886 15.8253C17.8965 15.8408 17.8005 15.8408 17.7067 15.8408C16.0207 15.8417 14.3351 15.8413 12.6491 15.8413C12.5747 15.8413 12.5008 15.8413 12.4325 15.8413L12.4329 15.8426ZM11.1295 16.5113L11.0802 16.4979C11.0336 15.1059 10.5714 13.8686 9.68171 12.7969C8.42239 11.2795 6.81462 10.4698 4.83074 10.4387C4.10878 10.4274 3.66263 11.1027 3.98211 11.7373C4.16152 12.094 4.4944 12.2232 4.87137 12.2392C5.66337 12.273 6.4117 12.455 7.09648 12.8657C8.24471 13.5548 8.94592 14.5607 9.19795 15.8732C9.2628 16.2109 9.26712 16.5598 9.32073 16.9C9.37952 17.2722 9.67263 17.5597 10.0241 17.625C10.3981 17.6941 10.7724 17.5593 10.9432 17.2247C11.0521 17.0111 11.0703 16.7508 11.1291 16.5113H11.1295ZM8.36359 16.7418C8.3476 15.7522 7.90577 14.7881 7.1756 14.1189C6.50119 13.5007 5.69752 13.1856 4.79745 13.1674C4.15763 13.1544 3.68165 13.6992 3.92072 14.3913C4.05776 14.7877 4.37854 14.9377 4.77237 14.9563C5.83802 15.0065 6.55134 15.8521 6.56561 16.7214C6.56777 16.839 6.58809 16.9605 6.62526 17.0721C6.77398 17.5182 7.17949 17.7356 7.67492 17.6457C8.09685 17.5692 8.37137 17.2091 8.36359 16.7422V16.7418ZM4.75076 17.6384C5.24619 17.6501 5.65559 17.2644 5.67764 16.7647C5.69752 16.3138 5.26478 15.8819 4.78534 15.8745C4.28948 15.8672 3.88873 16.2507 3.88138 16.74C3.87403 17.2394 4.24841 17.6263 4.75076 17.6384V17.6384Z" fill="white"/>
<path d="M12.433 15.8426C12.5013 15.8426 12.5752 15.8426 12.6496 15.8426C14.3356 15.8426 16.0212 15.8426 17.7072 15.8421C17.8014 15.8421 17.897 15.8421 17.9891 15.8266C18.1927 15.7924 18.3111 15.6644 18.3358 15.4595C18.3449 15.3847 18.3444 15.3091 18.3444 15.2334C18.3444 12.6352 18.3449 10.0375 18.3444 7.43927C18.3444 6.93001 18.2173 6.80291 17.7089 6.80291C13.9098 6.80291 10.1102 6.80291 6.31101 6.80291C5.82207 6.80291 5.68157 6.94341 5.68157 7.43063C5.68157 7.98312 5.68157 8.53562 5.68157 9.08898H3.89785C3.89785 9.08898 3.88574 9.07947 3.88574 9.06909C3.89266 8.36529 3.86931 7.65889 3.91644 6.95768C3.98344 5.96206 4.82256 5.13808 5.81472 5.03908C6.05206 5.0153 6.29113 5.00276 6.52933 5.00276C10.2719 5.0006 14.0148 5.00017 17.7573 5.00276C18.3302 5.00276 18.8675 5.13073 19.3219 5.50554C19.819 5.91581 20.0767 6.45101 20.1342 7.08737C20.1428 7.18118 20.1424 7.27586 20.1424 7.37011C20.1424 10.0184 20.1424 12.6668 20.1428 15.3151C20.1428 16.204 19.7797 16.8935 19.0154 17.3574C18.6436 17.583 18.229 17.6427 17.801 17.6423C16.524 17.641 15.2473 17.6423 13.9703 17.6423C13.5237 17.6423 13.0771 17.6423 12.6306 17.6423H12.4334V15.8439L12.433 15.8426Z" fill="#4687F1"/>
<path d="M11.1289 16.5114C11.0701 16.7509 11.0524 17.0112 10.943 17.2247C10.7722 17.5594 10.3974 17.6942 10.0239 17.6251C9.67243 17.5598 9.37932 17.2723 9.32052 16.9001C9.26649 16.5598 9.26216 16.211 9.19775 15.8733C8.94614 14.5608 8.2445 13.5548 7.09628 12.8657C6.41193 12.455 5.66316 12.273 4.87117 12.2393C4.49376 12.2233 4.16131 12.0941 3.9819 11.7374C3.66242 11.1028 4.10857 10.4275 4.83053 10.4387C6.81398 10.4699 8.42175 11.2796 9.6815 12.797C10.5712 13.8687 11.0338 15.106 11.08 16.498L11.1293 16.5114H11.1289Z" fill="#4687F1"/>
<path d="M8.3631 16.7421C8.37088 17.209 8.09593 17.5696 7.67443 17.6457C7.17857 17.7352 6.77349 17.5181 6.62478 17.072C6.5876 16.9604 6.56685 16.839 6.56512 16.7214C6.55085 15.852 5.83754 15.0064 4.77189 14.9562C4.37805 14.9377 4.05727 14.7876 3.92023 14.3912C3.68116 13.6991 4.15714 13.1544 4.79696 13.1673C5.69703 13.1855 6.5007 13.5011 7.17511 14.1189C7.90528 14.7881 8.34711 15.7526 8.3631 16.7417V16.7421Z" fill="#4687F1"/>
<path d="M4.75083 17.6383C4.24849 17.6262 3.8741 17.2397 3.88145 16.74C3.8888 16.2506 4.28912 15.8667 4.78542 15.8745C5.26485 15.8819 5.6976 16.3137 5.67771 16.7646C5.65566 17.264 5.24626 17.65 4.75083 17.6383V17.6383Z" fill="#4687F1"/>
</svg>
