<svg width="24" height="24" viewBox="0 0 24 24" fill="none" xmlns="http://www.w3.org/2000/svg">
<path d="M18.6421 12.6468C18.6421 10.3359 17.039 8.35776 15.0186 7.52808L13.6593 9.8812V6.65151C13.6593 6.3937 13.453 6.19214 13.1952 6.19214H10.7999C10.5421 6.19214 10.3358 6.39839 10.3358 6.65151V9.87651L8.97646 7.52339C6.96084 8.35308 5.35302 10.3312 5.35302 12.6421V14.4843H18.6421V12.6421V12.6468ZM19.439 15.5718C19.3733 15.4171 19.2233 15.3187 19.0593 15.3187H4.94521C4.78115 15.3187 4.63115 15.4171 4.56552 15.5671C4.4999 15.7218 4.53271 15.8953 4.64521 16.0171C4.71552 16.0921 6.39834 17.8078 11.9811 17.8078C17.564 17.8078 19.2468 16.0921 19.3358 16.0171C19.4718 15.8953 19.5046 15.7171 19.439 15.5671V15.5718Z" fill="#4687F1"/>
</svg>
