<svg width="24" height="24" viewBox="0 0 24 24" fill="none" xmlns="http://www.w3.org/2000/svg">
<path d="M20.4375 12.5625C20.7188 12.5625 21 12.3164 21 12C21 11.7188 20.7188 11.4375 20.4375 11.4375H18.75V9.1875H20.4375C20.7188 9.1875 21 8.94141 21 8.625C21 8.34375 20.7188 8.0625 20.4375 8.0625H18.75V7.5C18.75 6.26953 17.7305 5.25 16.5 5.25H15.9375V3.5625C15.9375 3.28125 15.6562 3 15.375 3C15.0586 3 14.8125 3.28125 14.8125 3.5625V5.25H12.5625V3.5625C12.5625 3.28125 12.2813 3 12 3C11.6836 3 11.4375 3.28125 11.4375 3.5625V5.25H9.1875V3.5625C9.1875 3.28125 8.90625 3 8.625 3C8.30859 3 8.0625 3.28125 8.0625 3.5625V5.25H7.5C6.23438 5.25 5.25 6.26953 5.25 7.5V8.0625H3.5625C3.24609 8.0625 3 8.34375 3 8.625C3 8.94141 3.24609 9.1875 3.5625 9.1875H5.25V11.4375H3.5625C3.24609 11.4375 3 11.7188 3 12C3 12.3164 3.24609 12.5625 3.5625 12.5625H5.25V14.8125H3.5625C3.24609 14.8125 3 15.0938 3 15.375C3 15.6914 3.24609 15.9375 3.5625 15.9375H5.25V16.5C5.25 17.7656 6.23438 18.75 7.5 18.75H8.0625V20.4375C8.0625 20.7539 8.30859 21 8.625 21C8.90625 21 9.1875 20.7539 9.1875 20.4375V18.75H11.4375V20.4375C11.4375 20.7539 11.6836 21 12 21C12.2813 21 12.5625 20.7539 12.5625 20.4375V18.75H14.8125V20.4375C14.8125 20.7539 15.0586 21 15.375 21C15.6562 21 15.9375 20.7539 15.9375 20.4375V18.75H16.5C17.7305 18.75 18.75 17.7656 18.75 16.5V15.9375H20.4375C20.7188 15.9375 21 15.6914 21 15.375C21 15.0938 20.7188 14.8125 20.4375 14.8125H18.75V12.5625H20.4375ZM12.4922 14.7773C12.4219 14.8125 12.3516 14.8125 12.2813 14.8125C12.0352 14.8125 11.8242 14.707 11.7539 14.4961L11.4023 13.6875H9.1875L8.83594 14.4961C8.73047 14.7773 8.37891 14.918 8.09766 14.7773C7.81641 14.6719 7.67578 14.3203 7.81641 14.0391L9.78516 9.53906C9.96094 9.11719 10.6289 9.11719 10.8047 9.53906L12.7734 14.0391C12.9141 14.3203 12.7734 14.6719 12.4922 14.7773ZM15.375 14.25C15.375 14.5664 15.0937 14.8125 14.8125 14.8125C14.4961 14.8125 14.25 14.5664 14.25 14.25V9.75C14.25 9.46875 14.4961 9.1875 14.8125 9.1875C15.0937 9.1875 15.375 9.46875 15.375 9.75V14.25ZM9.67969 12.5625H10.9102L10.3125 11.1562L9.67969 12.5625Z" fill="#4687F1"/>
</svg>
