<svg width="24" height="24" viewBox="0 0 24 24" fill="none" xmlns="http://www.w3.org/2000/svg">
<path fill-rule="evenodd" clip-rule="evenodd" d="M11.2125 11.836H11.2781C12.9188 11.7844 14.2172 10.4391 14.2219 8.7844C14.2219 7.10159 12.8484 5.72815 11.1656 5.72815C9.48281 5.72815 8.10938 7.10159 8.10938 8.7844C8.10938 10.4672 9.39844 11.7797 11.1047 11.836C11.1422 11.8313 11.1797 11.8313 11.2125 11.836V11.836Z" fill="#4687F1"/>
<path d="M15.6983 15.2859C15.6983 14.4797 15.2437 13.739 14.4327 13.1953C13.5562 12.6094 12.403 12.3187 11.2452 12.3187C10.0874 12.3187 9.51084 12.4828 8.76084 12.8109C8.6999 12.839 8.63428 12.8672 8.57334 12.8953C8.45146 12.9562 8.33428 13.0172 8.21709 13.0875C8.16084 13.1203 8.10459 13.1578 8.04834 13.1953C7.22803 13.7437 6.78271 14.489 6.78271 15.2953C6.78271 16.1015 7.22803 16.8422 8.04834 17.3859C8.2124 17.4984 8.38584 17.5969 8.56865 17.6859C9.36084 18.075 10.303 18.2672 11.2405 18.2672C12.178 18.2672 13.5468 17.9719 14.4327 17.3859C15.253 16.8375 15.6983 16.0922 15.6983 15.2859Z" fill="#4687F1"/>
<path d="M16.7203 9.94224C16.3312 9.94224 15.9609 9.94224 15.5906 9.94224C15.3937 9.94224 15.2156 9.99849 15.1125 10.186C14.9109 10.5563 15.1406 10.936 15.5719 10.9501C15.9187 10.9594 16.2656 10.9501 16.6078 10.9501C16.6594 10.9501 16.7062 10.9501 16.7672 10.9547C16.7672 11.0251 16.7672 11.0813 16.7672 11.1422C16.7672 11.4844 16.7625 11.8266 16.7672 12.1641C16.7765 12.4547 16.9828 12.6516 17.2547 12.6516C17.5265 12.6516 17.7375 12.4547 17.7469 12.1641C17.7562 11.8876 17.7469 11.6157 17.7469 11.3391C17.7469 11.2126 17.7469 11.086 17.7469 10.9454C17.8172 10.9454 17.864 10.9454 17.9156 10.9454C18.2437 10.9454 18.5719 10.9501 18.8953 10.9454C19.214 10.9407 19.4297 10.7251 19.4297 10.4391C19.4297 10.1485 19.2094 9.94693 18.8906 9.93755C18.7453 9.93755 18.5953 9.93755 18.45 9.93755C18.2203 9.93755 17.9906 9.93755 17.7469 9.93755C17.7469 9.86724 17.7469 9.81568 17.7469 9.76412C17.7469 9.41255 17.7515 9.06099 17.7469 8.71411C17.7375 8.40943 17.4234 8.17974 17.1281 8.25005C16.8609 8.31568 16.7203 8.49849 16.7156 8.79849C16.7156 9.17349 16.7156 9.5438 16.7156 9.93755L16.7203 9.94224Z" fill="#4687F1"/>
</svg>
