<svg width="24" height="24" viewBox="0 0 24 24" fill="none" xmlns="http://www.w3.org/2000/svg">
<path d="M12.0937 9.91878C12.0327 10.186 11.9812 10.411 11.9343 10.6407C11.4562 12.8672 10.9733 15.0938 10.4952 17.325C10.3499 18.0047 9.64678 18.1219 9.28584 17.7891C9.15928 17.6719 9.06553 17.4985 9.01397 17.3297C8.5874 15.8625 8.17022 14.3907 7.7624 12.9188C7.7249 12.7875 7.67334 12.7407 7.53271 12.7453C6.69834 12.7547 5.86396 12.7453 5.0249 12.7453C4.65928 12.7453 4.53271 12.6141 4.53271 12.2485C4.53271 12.0657 4.53271 11.8875 4.53271 11.7047C4.5374 11.4235 4.66865 11.2969 4.94521 11.2922C4.99209 11.2922 5.03896 11.2922 5.08584 11.2922C6.10771 11.2922 7.12959 11.2922 8.15146 11.2922C8.64834 11.2922 8.88271 11.4657 9.01865 11.9438C9.21084 12.6141 9.40303 13.2891 9.59521 13.9594C9.60928 14.0157 9.63271 14.0719 9.67959 14.1235C9.80615 13.5282 9.9374 12.9328 10.064 12.3375C10.4624 10.4625 10.8608 8.59222 11.2593 6.71722C11.3296 6.38441 11.489 6.13128 11.8499 6.05628C12.1874 5.99066 12.5437 6.15003 12.6608 6.47816C12.7874 6.83441 12.8812 7.20003 12.9796 7.56566C13.453 9.29066 13.9218 11.0157 14.3905 12.7407C14.4046 12.7875 14.4233 12.8344 14.4515 12.9188C14.5827 12.6563 14.6999 12.4219 14.8218 12.1875C14.9202 12 15.0093 11.8032 15.1218 11.625C15.2718 11.3813 15.5108 11.2688 15.7921 11.2641C16.8702 11.2594 17.9483 11.2641 19.0312 11.2641C19.3358 11.2641 19.4624 11.3953 19.4624 11.7047C19.4624 11.9016 19.4624 12.0985 19.4624 12.2953C19.4624 12.5953 19.3405 12.7172 19.0358 12.7172C18.3468 12.7172 17.6577 12.7172 16.964 12.7172C16.7577 12.7172 16.5468 12.7219 16.3405 12.7172C16.228 12.7125 16.1765 12.7547 16.1296 12.8485C15.7405 13.636 15.3468 14.4235 14.9483 15.211C14.8124 15.4782 14.6202 15.6797 14.2968 15.6985C13.9077 15.7266 13.6077 15.4828 13.4905 15.0469C13.2796 14.2782 13.0733 13.5047 12.8624 12.736C12.6233 11.85 12.3796 10.9641 12.1405 10.0828C12.1312 10.0453 12.1171 10.0032 12.089 9.91878H12.0937Z" fill="#4687F1"/>
</svg>
