<svg width="24" height="24" viewBox="0 0 24 24" fill="none" xmlns="http://www.w3.org/2000/svg">
<path fill-rule="evenodd" clip-rule="evenodd" d="M15.5062 4.76721C17.5453 4.93127 18.5812 6.12659 18.5812 8.32034V15.6563C18.5812 17.9297 17.2781 19.2328 15.0047 19.2328H8.99063C6.71719 19.2328 5.41406 17.9297 5.41406 15.6563V8.32034C5.41406 6.1219 6.45 4.92659 8.48906 4.76721H15.5062ZM12.7828 12.4922C12.7828 12.061 12.4312 11.7094 12 11.7094C11.5688 11.7094 11.2172 12.061 11.2172 12.4922C11.2172 12.9235 11.5688 13.275 12 13.275C12.4312 13.275 12.7828 12.9235 12.7828 12.4922ZM12.7828 14.8266C12.7828 14.3953 12.4312 14.0438 12 14.0438C11.5688 14.0438 11.2172 14.3953 11.2172 14.8266C11.2172 15.2578 11.5688 15.6094 12 15.6094C12.4312 15.6094 12.7828 15.2578 12.7828 14.8266ZM9.9 12.4922C9.9 12.061 9.54844 11.7094 9.11719 11.7094C8.68594 11.7094 8.33438 12.061 8.33438 12.4922C8.33438 12.9235 8.68594 13.275 9.11719 13.275C9.54844 13.275 9.9 12.9235 9.9 12.4922ZM9.9 14.8266C9.9 14.3953 9.54844 14.0438 9.11719 14.0438C8.68594 14.0438 8.33438 14.3953 8.33438 14.8266C8.33438 15.2578 8.68594 15.6094 9.11719 15.6094C9.54844 15.6094 9.9 15.2578 9.9 14.8266ZM15.6656 14.8266V12.4922C15.6656 12.061 15.3141 11.7094 14.8828 11.7094C14.4516 11.7094 14.1 12.061 14.1 12.4922V14.8266C14.1 15.2578 14.4516 15.6094 14.8828 15.6094C15.3141 15.6094 15.6656 15.2578 15.6656 14.8266ZM14.8828 8.13284H9.13125C8.7 8.13284 8.34844 8.4844 8.34844 8.91565C8.34844 9.3469 8.7 9.69846 9.13125 9.69846H14.8828C15.3141 9.69846 15.6656 9.3469 15.6656 8.91565C15.6656 8.4844 15.3141 8.13284 14.8828 8.13284Z" fill="#4687F1"/>
</svg>
