<svg width="24" height="24" viewBox="0 0 24 24" fill="none" xmlns="http://www.w3.org/2000/svg">
<path d="M19.439 7.86561C19.3593 7.53279 18.9327 7.42029 18.6937 7.66404L17.053 9.30467C16.7483 9.60936 16.3358 9.77811 15.9046 9.77811C15.0093 9.77811 14.2827 9.05154 14.2827 8.15623C14.2827 7.72498 14.4515 7.31248 14.7562 7.00779L16.3968 5.36717C16.6405 5.12342 16.528 4.70154 16.1952 4.62186C15.539 4.46248 14.8312 4.45311 14.0952 4.62654C12.3983 5.03436 11.0718 6.47342 10.7999 8.19842C10.6546 8.91561 10.7249 9.63279 10.9405 10.2797L6.01865 15.2015C5.24053 15.9797 5.24053 17.2359 6.01865 18.014C6.38428 18.4031 6.89053 18.6234 7.37334 18.6234C7.85615 18.6234 8.39053 18.4312 8.77959 18.0422L13.7015 13.1203C14.3483 13.3359 15.0655 13.4015 15.8062 13.2844C17.5312 13.0125 18.9749 11.6859 19.378 9.98904C19.603 9.22967 19.5937 8.52186 19.4343 7.86561H19.439ZM7.57959 17.0719C7.25147 17.0531 6.97959 16.7812 6.96084 16.4531C6.9374 16.0687 7.24209 15.7453 7.62178 15.7453C8.00147 15.7453 8.28272 16.0406 8.28272 16.4062C8.28272 16.7719 7.96397 17.0906 7.57959 17.0672V17.0719Z" fill="#4687F1"/>
</svg>
