<svg width="24" height="24" viewBox="0 0 24 24" fill="none" xmlns="http://www.w3.org/2000/svg">
<path d="M15.9047 19.4063C15.539 19.4063 15.0703 19.2891 14.4844 18.9422L12.4219 17.7141C12.2062 17.5875 11.7937 17.5875 11.5875 17.7141L9.5203 18.9422C8.30155 19.6688 7.58436 19.3781 7.26092 19.1438C6.94217 18.9094 6.44998 18.3047 6.77342 16.9172L7.26092 14.7891C7.31717 14.5688 7.20467 14.1844 7.04061 14.0203L5.32967 12.3C4.47654 11.4375 4.54217 10.7063 4.65936 10.3453C4.77654 9.9844 5.14686 9.3469 6.33279 9.14534L8.53123 8.77971C8.73748 8.7469 9.0328 8.5219 9.12186 8.3344L10.3406 5.88752C10.8937 4.7719 11.6156 4.60315 11.9953 4.60315C12.375 4.60315 13.0969 4.7719 13.65 5.88752L14.864 8.32971C14.9625 8.51721 15.2578 8.73752 15.464 8.77502L17.6625 9.14065C18.8531 9.34221 19.2281 9.97971 19.3359 10.3406C19.4484 10.7016 19.514 11.4375 18.6656 12.2953L16.9547 14.025C16.7906 14.1938 16.6875 14.5641 16.7344 14.7938L17.2219 16.9219C17.5406 18.3094 17.0484 18.9141 16.7344 19.1485C16.5609 19.275 16.2844 19.411 15.8953 19.411L15.9047 19.4063Z" fill="#4687F1"/>
</svg>
