<svg width="24" height="24" viewBox="0 0 24 24" fill="none" xmlns="http://www.w3.org/2000/svg">
<path d="M12.811 8.325V7.21875H13.3407C13.7813 7.21875 14.1375 6.8625 14.1375 6.42188C14.1375 5.98125 13.7813 5.625 13.3407 5.625H10.6547C10.2422 5.625 9.88599 5.98125 9.88599 6.39375C9.88599 6.80625 10.2422 7.21875 10.6547 7.21875H11.2172V8.325C7.48599 8.72344 4.57505 11.8828 4.57505 15.7219H19.4532C19.4532 11.8828 16.5422 8.72344 12.811 8.325V8.325ZM19.7204 16.7859H4.30786C3.86724 16.7859 3.51099 17.1422 3.51099 17.5547C3.51099 17.9672 3.86724 18.3797 4.27974 18.3797H19.6875C20.1282 18.3797 20.4844 18.0234 20.4844 17.6109C20.5125 17.1375 20.161 16.7859 19.7157 16.7859H19.7204Z" fill="#4687F1"/>
</svg>
