<svg width="24" height="24" viewBox="0 0 24 24" fill="none" xmlns="http://www.w3.org/2000/svg">
<path d="M7.39787 17.4375C5.20239 17.4375 3.42114 15.6468 3.42114 13.4397C3.42114 11.6963 4.53131 10.2138 6.07782 9.66684C6.07506 9.59188 6.0723 9.51693 6.0723 9.44197C6.0723 6.98778 8.04961 5 10.4909 5C12.1285 5 13.5563 5.89395 14.3212 7.22654C14.741 6.94336 15.2492 6.77679 15.7932 6.77679C17.2568 6.77679 18.4443 7.97057 18.4443 9.44197C18.4443 9.78067 18.3808 10.1027 18.2676 10.4025C19.8804 10.7301 21.0955 12.1654 21.0955 13.8839C21.0955 15.8467 19.5131 17.4375 17.5606 17.4375H7.39787ZM9.57955 12.8012L11.7888 15.0222C12.0484 15.2832 12.4682 15.2832 12.725 15.0222L14.9343 12.8012C15.1939 12.5402 15.1939 12.1183 14.9343 11.8601C14.6747 11.6019 14.255 11.5991 13.9981 11.8601L12.9211 12.9428V9.21987C12.9211 8.85063 12.6256 8.55357 12.2583 8.55357C11.891 8.55357 11.5955 8.85063 11.5955 9.21987V12.9428L10.5185 11.8601C10.2589 11.5991 9.83914 11.5991 9.58231 11.8601C9.32548 12.121 9.32272 12.543 9.58231 12.8012H9.57955Z" fill="#4687F1"/>
</svg>
