<svg width="24" height="24" viewBox="0 0 24 24" fill="none" xmlns="http://www.w3.org/2000/svg">
<path d="M12 3.51562C7.31719 3.51562 3.51562 7.3125 3.51562 12C3.51562 16.6875 7.3125 20.4844 12 20.4844C16.6875 20.4844 20.4844 16.6875 20.4844 12C20.4844 7.3125 16.6828 3.51562 12 3.51562ZM12.6047 16.0031C12.45 16.1672 12.2344 16.2516 11.9578 16.2516C11.6813 16.2516 11.475 16.1672 11.3109 16.0031C11.1469 15.8391 11.0672 15.6234 11.0672 15.3656C11.0672 15.1078 11.1469 14.9062 11.3109 14.7422C11.4703 14.5828 11.6859 14.4984 11.9578 14.4984C12.2297 14.4984 12.45 14.5781 12.6047 14.7422C12.7594 14.9062 12.8344 15.1125 12.8344 15.3656C12.8344 15.6187 12.7594 15.8391 12.6047 16.0031ZM14.4938 10.3875C14.4234 10.6031 14.3062 10.8234 14.1516 11.0391C13.9922 11.2547 13.7766 11.4891 13.5 11.7422C13.2563 11.9625 13.0594 12.1641 12.9141 12.3469C12.7688 12.5297 12.6609 12.7031 12.5953 12.8672C12.5297 13.0312 12.4828 13.2094 12.4594 13.4016C12.45 13.5141 12.4078 13.6031 12.3234 13.6734C12.2391 13.7438 12.1266 13.7812 11.9859 13.7812C11.8453 13.7812 11.7188 13.7344 11.6391 13.6312C11.5547 13.5328 11.5125 13.4016 11.5125 13.2328C11.5125 12.9891 11.5406 12.7594 11.6016 12.5391C11.6625 12.3234 11.7562 12.1031 11.8922 11.8828C12.0281 11.6625 12.2016 11.4281 12.4266 11.1844C12.5906 10.9969 12.7266 10.8281 12.825 10.6828C12.9234 10.5375 12.9938 10.3969 13.0359 10.2609C13.0781 10.125 13.1016 9.98906 13.1016 9.84844C13.1016 9.58594 13.0078 9.38438 12.8156 9.23438C12.6281 9.08437 12.3563 9.00937 12.0094 9.00937C11.6625 9.00937 11.4094 9.05156 11.1516 9.13594C10.8937 9.22031 10.6359 9.3375 10.3781 9.48281C10.2047 9.58594 10.05 9.63281 9.90937 9.61875C9.77344 9.60469 9.66094 9.55781 9.57187 9.46875C9.48281 9.37969 9.43125 9.27656 9.40781 9.15C9.38437 9.02344 9.40781 8.89219 9.46875 8.76094C9.52969 8.625 9.64688 8.50313 9.81094 8.39531C10.1344 8.18438 10.5047 8.02031 10.9219 7.90313C11.3391 7.79063 11.7328 7.72969 12.1078 7.72969C12.4828 7.72969 13.0406 7.81406 13.4156 7.97812C13.7906 8.14219 14.0812 8.37188 14.2922 8.6625C14.5031 8.95313 14.6063 9.3 14.6063 9.69375C14.6063 10.0875 14.5687 10.1672 14.4984 10.3875H14.4938Z" fill="#4687F1"/>
</svg>
