<svg width="24" height="24" viewBox="0 0 24 24" fill="none" xmlns="http://www.w3.org/2000/svg">
<path d="M8.41865 17.3485V11.0813C8.41865 10.5844 8.01553 10.2094 7.52334 10.2094H5.73272C5.23584 10.2094 4.8374 10.6125 4.8374 11.0813V17.325C4.8374 17.8219 5.24053 18.1969 5.73272 18.1969H7.52334C8.02022 18.2485 8.41865 17.8688 8.41865 17.3532V17.3485ZM19.1671 11.1047C19.1671 10.3641 18.5671 9.7594 17.8218 9.7594H13.7202C14.3577 8.70002 14.6858 7.49534 14.6858 7.07346C14.6858 6.41252 14.1655 5.72815 13.2983 5.72815C11.5312 5.72815 12.5624 7.86096 10.2702 9.69377L9.81553 10.0594C9.4874 10.3266 9.31865 10.7156 9.31396 11.1047V15.586C9.31396 16.0078 9.51084 16.4063 9.84834 16.6594L10.8046 17.3766C11.578 17.9578 12.5202 18.2719 13.4905 18.2719H15.1358C15.8765 18.2719 16.4812 17.6719 16.4812 16.9266C16.4812 16.1813 16.4671 16.725 16.4483 16.6313C16.9874 16.4578 17.3812 15.9563 17.3812 15.3563C17.3812 14.7563 17.3062 14.8641 17.1796 14.6578C17.803 14.5407 18.2765 13.9969 18.2765 13.3406C18.2765 12.6844 18.1405 12.675 17.9202 12.436C18.6187 12.3891 19.1718 11.8125 19.1718 11.1L19.1671 11.1047Z" fill="#4687F1"/>
</svg>
