<svg width="24" height="24" viewBox="0 0 24 24" fill="none" xmlns="http://www.w3.org/2000/svg">
<path d="M10.6265 10.4391C10.6265 10.7156 10.6875 10.8188 10.7156 10.8563C10.7531 10.9031 10.8234 10.9594 11.0109 11.025L11.4046 11.1609V9.82031H11.175C10.9031 9.82031 10.6218 10.0688 10.6218 10.4344L10.6265 10.4391Z" fill="#4687F1"/>
<path d="M12.5906 14.1703H12.8296C13.1062 14.1703 13.3828 13.9265 13.3828 13.5562C13.3828 13.1859 13.3218 13.1812 13.2937 13.139C13.2562 13.0921 13.1859 13.0359 12.9984 12.9656L12.5953 12.825V14.1703H12.5906Z" fill="#4687F1"/>
<path d="M12.0046 3.52502C7.32183 3.52502 3.52026 7.3219 3.52026 12.0094C3.52026 16.6969 7.31714 20.4938 12.0046 20.4938C16.6921 20.4938 20.489 16.6969 20.489 12.0094C20.489 7.3219 16.6921 3.52502 12.0046 3.52502V3.52502ZM13.3875 11.8547C13.664 11.9531 13.9828 12.1078 14.2218 12.4125C14.4656 12.7219 14.564 13.111 14.564 13.5563C14.564 14.5266 13.814 15.3563 12.825 15.3563H12.5859V15.5531C12.5859 15.8813 12.3187 16.1438 11.9953 16.1438C11.6718 16.1438 11.4046 15.8766 11.4046 15.5531V15.3563H11.3437C10.2656 15.3563 9.4312 14.4516 9.4312 13.3828C9.4312 12.3141 9.69839 12.7922 10.0218 12.7922C10.3453 12.7922 10.6125 13.0594 10.6125 13.3828C10.6125 13.8469 10.964 14.1703 11.339 14.1703H11.4V12.4125L10.6078 12.136C10.3312 12.0375 10.0125 11.8875 9.77339 11.5828C9.52964 11.2735 9.4312 10.8844 9.4312 10.4344C9.4312 9.47346 10.1812 8.6344 11.1703 8.6344H11.4V8.44221C11.4 8.11409 11.6671 7.85159 11.9906 7.85159C12.314 7.85159 12.5812 8.11877 12.5812 8.44221V8.6344H12.6515C13.7296 8.6344 14.564 9.53909 14.564 10.6078C14.564 11.6766 14.2968 11.1985 13.9734 11.1985C13.65 11.1985 13.3828 10.9313 13.3828 10.6078C13.3828 10.1438 13.0312 9.82034 12.6562 9.82034H12.5859V11.5735L13.3828 11.85L13.3875 11.8547Z" fill="#4687F1"/>
</svg>
