<svg width="24" height="24" viewBox="0 0 24 24" fill="none" xmlns="http://www.w3.org/2000/svg">
<path d="M11.5724 12.0066C11.8099 12.0066 12 12.2006 12 12.4431V15.0668C12 15.3093 11.8099 15.5033 11.5724 15.5033H9.00216C8.76458 15.5033 8.57451 15.3093 8.57451 15.0668V12.4431C8.57451 12.2006 8.76458 12.0066 9.00216 12.0066H11.5724V12.0066ZM9.42981 5.00441C9.78402 5.00441 10.0734 5.29543 10.0734 5.65701V6.75055H13.9309V5.65701C13.9309 5.29543 14.216 5 14.5702 5C14.9244 5 15.2138 5.29102 15.2138 5.6526V6.74614H16.2851C17.2311 6.74614 18 7.53102 18 8.49669V17.2494C18 18.2151 17.2311 19 16.2851 19H7.7149C6.7689 19 6 18.2151 6 17.2494V8.50551C6 7.53984 6.7689 6.75496 7.7149 6.75496H8.78618V5.66142C8.78618 5.29984 9.07127 5.00441 9.42549 5.00441H9.42981ZM16.7171 10.2561H7.28294V17.2583C7.28294 17.5008 7.473 17.6948 7.71058 17.6948H16.2851C16.5227 17.6948 16.7127 17.5008 16.7127 17.2583V10.2561H16.7171Z" fill="#4687F1"/>
</svg>
