<svg width="24" height="24" viewBox="0 0 24 24" fill="none" xmlns="http://www.w3.org/2000/svg">
<path d="M15.8155 5.20776H8.1749C7.2374 5.20776 6.47803 5.96714 6.47803 6.90464V17.0953C6.47803 18.0328 7.2374 18.7921 8.1749 18.7921H15.8155C16.753 18.7921 17.5124 18.0328 17.5124 17.0953V6.90464C17.5124 5.96714 16.753 5.20776 15.8155 5.20776V5.20776ZM11.9952 8.6062C12.928 8.6062 13.6874 9.36558 13.6874 10.2984C13.6874 11.2171 12.9655 11.9578 12.0562 11.9906H12.0187C12.0046 11.9906 11.9812 11.9906 11.9577 11.9906C11.0108 11.9625 10.2983 11.2171 10.2983 10.2984C10.2983 9.37964 11.0577 8.6062 11.9905 8.6062H11.9952ZM13.8046 15.0656C13.3171 15.3937 12.6749 15.5531 12.0374 15.5531C11.3999 15.5531 10.9968 15.4453 10.5562 15.2296C10.453 15.1781 10.3593 15.1265 10.2655 15.0656C9.81084 14.7656 9.5624 14.3531 9.5624 13.9078C9.5624 13.4625 9.81084 13.0453 10.2655 12.7406C10.2983 12.7218 10.3265 12.6984 10.3593 12.6796C10.4249 12.6421 10.4905 12.6046 10.5562 12.5718C10.589 12.5531 10.6265 12.539 10.6593 12.525C11.0765 12.3421 11.5593 12.2531 12.0374 12.2531C12.5155 12.2531 13.3171 12.4171 13.8046 12.7406C14.2546 13.0406 14.5077 13.4531 14.5077 13.8984C14.5077 14.3437 14.2593 14.7609 13.8046 15.0656V15.0656Z" fill="#4687F1"/>
<path d="M18.7874 10.1156C18.5295 10.1156 18.3186 9.90466 18.3186 9.64685V7.79529C18.3186 7.53748 18.5295 7.32654 18.7874 7.32654C19.0452 7.32654 19.2561 7.53748 19.2561 7.79529V9.64685C19.2561 9.90466 19.0452 10.1156 18.7874 10.1156Z" fill="#4687F1"/>
<path d="M18.7874 13.3968C18.5295 13.3968 18.3186 13.1859 18.3186 12.9281V11.0765C18.3186 10.8187 18.5295 10.6078 18.7874 10.6078C19.0452 10.6078 19.2561 10.8187 19.2561 11.0765V12.9281C19.2561 13.1859 19.0452 13.3968 18.7874 13.3968Z" fill="#4687F1"/>
<path d="M18.7874 16.6968C18.5295 16.6968 18.3186 16.4858 18.3186 16.228V14.3765C18.3186 14.1187 18.5295 13.9077 18.7874 13.9077C19.0452 13.9077 19.2561 14.1187 19.2561 14.3765V16.228C19.2561 16.4858 19.0452 16.6968 18.7874 16.6968Z" fill="#4687F1"/>
</svg>
