<svg width="24" height="24" viewBox="0 0 24 24" fill="none" xmlns="http://www.w3.org/2000/svg">
<path d="M18.9235 4.61255H5.07666C4.3126 4.61255 3.69385 5.2313 3.69385 5.99536V15.2297C3.69385 15.9938 4.3126 16.6125 5.07666 16.6125H10.6173L10.1579 17.9954H8.08135C7.70166 17.9954 7.3876 18.3047 7.3876 18.6891C7.3876 19.0735 7.69697 19.3829 8.08135 19.3829H15.9282C16.3126 19.3829 16.622 19.0735 16.622 18.6891C16.622 18.3047 16.3126 17.9954 15.9282 17.9954H13.8517L13.3923 16.6125H18.9329C19.697 16.6125 20.3157 15.9938 20.3157 15.2297V6.00005C20.3157 5.23599 19.697 4.61724 18.9329 4.61724L18.9235 4.61255ZM17.9673 12.8954H6.03291C5.76103 12.8954 5.54072 12.7219 5.54072 12.511V6.83911C5.54072 6.62817 5.76103 6.45474 6.03291 6.45474H17.972C18.2438 6.45474 18.4642 6.62817 18.4642 6.83911V12.511C18.4642 12.7219 18.2438 12.8954 17.972 12.8954H17.9673Z" fill="#4687F1"/>
</svg>
