<svg width="24" height="24" viewBox="0 0 24 24" fill="none" xmlns="http://www.w3.org/2000/svg">
<path d="M19.1718 8.66253C19.1062 9.70784 18.9702 10.7391 18.7265 11.761C18.4124 13.0922 17.8499 14.311 17.114 15.4547C16.5609 16.3125 15.9562 17.1328 15.1968 17.8219C14.5077 18.45 13.7484 18.9891 12.9093 19.411C12.2577 19.7391 11.6249 19.725 10.9827 19.3922C9.57648 18.661 8.42804 17.6344 7.48586 16.3641C6.34211 14.8172 5.51711 13.1344 5.14679 11.236C4.97804 10.3782 4.88429 9.51566 4.84211 8.64378C4.83273 8.46565 4.81398 8.28284 4.82336 8.10472C4.86086 7.44847 5.24523 7.05941 5.82648 6.81566C7.28898 6.20628 8.74679 5.59691 10.2093 4.98753C10.6077 4.82347 11.0109 4.65941 11.4046 4.49066C11.8077 4.31722 12.2015 4.31722 12.6046 4.48597C14.4796 5.26878 16.364 6.04691 18.239 6.83441C18.914 7.11566 19.1859 7.56566 19.1718 8.30628C19.1718 8.42816 19.1718 8.54534 19.1718 8.66722V8.66253ZM11.2687 11.2828C10.7202 11.2828 10.2046 11.2828 9.68429 11.2828C9.40773 11.2828 9.15929 11.3625 9.00929 11.625C8.72804 12.1453 9.04679 12.6797 9.65617 12.6938C10.1437 12.7032 10.6265 12.6938 11.114 12.6938C11.1843 12.6938 11.2546 12.6985 11.3343 12.7032C11.3343 12.8063 11.3343 12.886 11.3343 12.961C11.3343 13.4391 11.3249 13.9172 11.339 14.3953C11.353 14.8032 11.639 15.0797 12.0234 15.0797C12.4077 15.0797 12.6984 14.8032 12.7124 14.4C12.7265 14.0157 12.7171 13.6266 12.7171 13.2422C12.7171 13.0641 12.7171 12.886 12.7171 12.6891C12.8109 12.6891 12.8859 12.6891 12.9562 12.6891C13.4155 12.6891 13.8749 12.6938 14.3343 12.6891C14.7843 12.6797 15.089 12.3844 15.0843 11.9766C15.0843 11.5688 14.7749 11.2828 14.3249 11.2735C14.1187 11.2735 13.9124 11.2735 13.7062 11.2735C13.3827 11.2735 13.0593 11.2735 12.7171 11.2735C12.7171 11.175 12.7171 11.1047 12.7171 11.0344C12.7171 10.5422 12.7265 10.05 12.7124 9.55784C12.703 9.13128 12.2577 8.80784 11.8452 8.90159C11.4655 8.99065 11.2734 9.24847 11.2687 9.67503C11.2687 10.2 11.2687 10.725 11.2687 11.2735V11.2828Z" fill="#4687F1"/>
</svg>
