<svg width="24" height="24" viewBox="0 0 24 24" fill="none" xmlns="http://www.w3.org/2000/svg">
<path d="M13.4167 8.5V5H8.375C7.6156 5 7 5.58762 7 6.3125V17.6875C7 18.4121 7.6156 19 8.375 19H16.625C17.3844 19 18 18.4124 18 17.6875V9.375H14.3591C13.8263 9.375 13.4167 8.98398 13.4167 8.5ZM14.7945 12.2297L13.4167 14.4062L14.82 16.5831C15.0094 16.8754 14.7888 17.25 14.4307 17.25H13.6736C13.5144 17.25 13.3668 17.1712 13.2832 17.0417L12.5 15.8281L11.7177 17.0416C11.6349 17.1707 11.4859 17.25 11.3284 17.25H10.5693C10.2106 17.25 9.99091 16.8746 10.1788 16.5831L11.5833 14.4062L10.1797 12.2297C9.99063 11.9371 10.2112 11.5625 10.5693 11.5625H11.3264C11.4856 11.5625 11.6332 11.6413 11.7168 11.7707L12.5 12.9844L13.2823 11.7706C13.3651 11.6418 13.5141 11.5625 13.6716 11.5625H14.4287C14.7888 11.5625 15.0094 11.9371 14.7945 12.2297ZM14.3333 5V8.5H18L14.3333 5Z" fill="#4687F1"/>
</svg>
