<svg width="24" height="24" viewBox="0 0 24 24" fill="none" xmlns="http://www.w3.org/2000/svg">
<path d="M8.63232 17.6394C8.33232 17.9441 7.93857 18.0941 7.54482 18.0941C7.15107 18.0941 6.75732 17.9441 6.45732 17.6441C5.85732 17.0441 5.85732 16.0691 6.45732 15.4644C6.75732 15.1644 7.15107 15.0144 7.54482 15.0144C7.93857 15.0144 8.33232 15.1644 8.63232 15.4644C9.23232 16.0691 9.23232 17.0394 8.63232 17.6394V17.6394Z" fill="#4687F1"/>
<path d="M13.3994 18.0895C13.3713 18.052 13.3479 18.0942 13.2776 18.0942C12.6729 18.0942 12.1666 17.6254 12.1244 17.016C11.9932 14.3863 9.71507 12.1035 7.08069 11.9301C6.44319 11.8879 5.96038 11.3395 6.00257 10.702C6.04475 10.0645 6.59788 9.60509 7.23069 9.62384C10.976 9.86759 14.2244 13.1113 14.4682 16.8613C14.5104 17.4988 14.0276 18.0473 13.3948 18.0895H13.3994Z" fill="#4687F1"/>
<path d="M17.9929 18.0473C17.9789 18.0895 17.9601 18.0895 17.8992 18.0895C17.2851 18.0895 16.7742 17.602 16.7461 16.9832C16.5773 11.8598 12.2367 7.51914 7.11325 7.26602C6.47575 7.28008 5.97887 6.74571 6.007 6.10821C6.03512 5.47071 6.57887 4.96446 7.21168 5.00196C13.5023 5.26446 18.8367 10.5988 19.057 16.8473C19.1226 17.5316 18.6351 18.066 17.9929 18.052V18.0473Z" fill="#4687F1"/>
</svg>
