<svg width="24" height="24" viewBox="0 0 24 24" fill="none" xmlns="http://www.w3.org/2000/svg">
<path fill-rule="evenodd" clip-rule="evenodd" d="M8.95312 11.8781V10.3594H7.425C6.06562 10.3594 5.67188 10.7531 5.67188 12.1125V16.5656C5.67188 17.9344 6.06562 18.3281 7.425 18.3281H11.8781C13.2469 18.3281 13.6406 17.9344 13.6406 16.5656V15.0469H12.1125C9.95625 15.0469 8.95312 14.0437 8.95312 11.8781V11.8781Z" fill="#4687F1"/>
<path fill-rule="evenodd" clip-rule="evenodd" d="M16.5656 5.67188H12.1125C10.7531 5.67188 10.3594 6.06562 10.3594 7.425V11.8781C10.3594 13.2469 10.7531 13.6406 12.1125 13.6406H16.5656C17.9344 13.6406 18.3281 13.2469 18.3281 11.8781V7.425C18.3281 6.06562 17.9344 5.67188 16.5656 5.67188Z" fill="#4687F1"/>
</svg>
