<svg width="24" height="24" viewBox="0 0 24 24" fill="none" xmlns="http://www.w3.org/2000/svg">
<path d="M17.1422 11.1188H13.3266L15.8672 5.47035C16.0313 5.10941 15.9234 4.67816 15.6047 4.43441C15.2859 4.19535 14.8406 4.20472 14.5359 4.45785L6.30938 11.3203C6.03281 11.55 5.92969 11.9297 6.05156 12.2719C6.17344 12.6141 6.49688 12.8391 6.85781 12.8391H10.6734L8.13281 18.4875C7.96875 18.8485 8.07656 19.2797 8.39531 19.5235C8.55 19.6875 8.68594 19.7438 8.91563 19.7438C9.14531 19.7438 9.30469 19.6782 9.46406 19.5422L17.6906 12.6844C17.9672 12.4547 18.0703 12.075 17.9484 11.7328C17.8313 11.3907 17.5078 11.1188 17.1422 11.1188V11.1188Z" fill="#4687F1"/>
</svg>
