<svg width="24" height="24" viewBox="0 0 24 24" fill="none" xmlns="http://www.w3.org/2000/svg">
<path d="M13.1157 6.05151C13.7298 6.05151 14.2313 6.54839 14.2313 7.16714V8.28276H15.4079C15.8017 8.28276 16.1626 8.43745 16.4579 8.7187L18.2532 10.514C18.5298 10.7906 18.6892 11.1703 18.6892 11.564V14.2265C19.1017 14.2265 19.4345 14.5593 19.4345 14.9718C19.4345 15.3843 19.1017 15.7171 18.6892 15.7171H17.9438C17.9438 16.95 16.9454 17.9484 15.7126 17.9484C14.4798 17.9484 13.4813 16.95 13.4813 15.7171H10.5095C10.5095 16.95 9.51104 17.9484 8.27822 17.9484C7.04541 17.9484 6.04697 16.95 6.04697 15.7171H5.67666C5.0626 15.7171 4.56104 15.2156 4.56104 14.6015V7.16714C4.56104 6.55308 5.05791 6.05151 5.67666 6.05151H13.111H13.1157ZM14.2313 9.7687V12H17.2032V11.564L15.4079 9.7687H14.2313V9.7687ZM8.28291 14.6015C7.66885 14.6015 7.16728 15.1031 7.16728 15.7171C7.16728 16.3312 7.66885 16.8328 8.28291 16.8328C8.89697 16.8328 9.39854 16.3312 9.39854 15.7171C9.39854 15.1031 8.89697 14.6015 8.28291 14.6015ZM15.7173 16.8328C16.3313 16.8328 16.8329 16.3312 16.8329 15.7171C16.8329 15.1031 16.3313 14.6015 15.7173 14.6015C15.1032 14.6015 14.6017 15.1031 14.6017 15.7171C14.6017 16.3312 15.1032 16.8328 15.7173 16.8328Z" fill="#4687F1"/>
</svg>
