<svg width="24" height="24" viewBox="0 0 24 24" fill="none" xmlns="http://www.w3.org/2000/svg">
<path d="M19.5563 11.2828L16.8985 8.625C16.5 8.22656 15.8579 8.22656 15.4594 8.625C15.061 9.02344 15.061 9.66562 15.4594 10.0641L17.4 12.0047L15.4594 13.9453C15.2672 14.1375 15.1594 14.3906 15.1594 14.6625C15.1594 14.9344 15.2672 15.1875 15.4594 15.3797C15.6516 15.5719 15.9047 15.6797 16.1766 15.6797C16.4485 15.6797 16.7016 15.5719 16.8938 15.3797L19.5516 12.7219C19.7438 12.5297 19.8516 12.2766 19.8516 12.0047C19.8516 11.7328 19.7438 11.4797 19.5516 11.2875L19.5563 11.2828Z" fill="#4687F1"/>
<path d="M8.54053 8.62036C8.14209 8.22192 7.4999 8.22192 7.10146 8.62036L4.43896 11.2782C4.04053 11.6766 4.04053 12.3188 4.43896 12.7172L7.10146 15.375C7.29365 15.5672 7.54678 15.675 7.81865 15.675C8.09053 15.675 8.34365 15.5672 8.53584 15.375C8.93428 14.9766 8.93428 14.3344 8.53584 13.936L6.59521 11.9954L8.53584 10.0547C8.93428 9.6563 8.93428 9.01411 8.53584 8.61567L8.54053 8.62036Z" fill="#4687F1"/>
<path d="M13.7999 5.69998C13.2608 5.54529 12.6983 5.85935 12.539 6.39842L9.49679 17.039C9.34679 17.5781 9.65616 18.1406 10.1952 18.2953C10.289 18.3234 10.378 18.3328 10.4718 18.3328C10.9171 18.3328 11.3249 18.0422 11.4562 17.5969L14.4937 6.95623C14.6483 6.41717 14.3343 5.84998 13.7952 5.69998H13.7999Z" fill="#4687F1"/>
</svg>
