<?xml version="1.0" encoding="utf-8"?>
<!-- Generator: Adobe Illustrator 27.0.1, SVG Export Plug-In . SVG Version: 6.00 Build 0)  -->
<svg version="1.1" id="Capa_1" xmlns="http://www.w3.org/2000/svg" xmlns:xlink="http://www.w3.org/1999/xlink" x="0px" y="0px"
	 viewBox="0 0 24 24" style="enable-background:new 0 0 24 24;" xml:space="preserve">
<style type="text/css">
	.st0{fill:#4687F1;}
</style>
<g>
	<g>
		<polygon class="st0" points="13.9,9.1 10.4,5.6 6.7,9.3 10.2,12.8 		"/>
		<path class="st0" d="M14.2,8.6c0.2,0.2,0.6,0.2,0.8,0l0,0c0.2-0.2,0.2-0.5,0-0.7c-0.9-1.4-2.3-2.8-3.4-3.4c-0.2-0.1-0.5-0.2-0.7,0
			l0,0c-0.2,0.2-0.2,0.6,0,0.8L14.2,8.6z"/>
		<path class="st0" d="M9.7,13.1c0.2,0.2,0.2,0.6,0,0.8l0,0c-0.2,0.2-0.5,0.2-0.7,0c-1.4-0.9-2.8-2.3-3.4-3.4
			c-0.1-0.2-0.2-0.5,0-0.7l0,0c0.2-0.2,0.6-0.2,0.8,0L9.7,13.1z"/>
		<path class="st0" d="M20.2,19c0.1,0,0.1-0.1,0.2-0.2c0.2-0.2,0.3-0.5,0.3-0.8c0-0.4-0.2-0.7-0.4-0.9l-7.1-6.3l-0.6,0.5L12,12
			l6.3,7.1c0.2,0.3,0.6,0.4,0.9,0.4c0.3,0,0.6-0.1,0.8-0.3C20.1,19.1,20.2,19.1,20.2,19z"/>
	</g>
	<polygon class="st0" points="14.1,16.9 14.5,17.3 14.5,17.8 14.8,17.8 15.4,18.3 15.4,19.7 5.7,19.7 5.7,18.3 6.2,17.8 6.6,17.8 
		6.6,17.3 7,16.9 	"/>
</g>
</svg>
