<svg width="24" height="24" viewBox="0 0 24 24" fill="none" xmlns="http://www.w3.org/2000/svg">
<g clip-path="url(#clip0_517_7)">
<path d="M9.08611 11.434C10.0222 12 10.8333 12.7492 11.4694 13.6352C11.6639 13.9059 11.8417 14.1902 12 14.4828C12.1583 14.1875 12.3361 13.9059 12.5306 13.6352C13.1667 12.7492 13.9778 12 14.9139 11.434C16.1556 10.682 17.6139 10.25 19.1667 10.25H19.4417C19.75 10.25 20 10.4961 20 10.7996C20 14.8465 16.6694 18.125 12.5583 18.125H12H11.4417C7.33056 18.125 4 14.8465 4 10.7996C4 10.4961 4.25 10.25 4.55833 10.25H4.83333C6.38611 10.25 7.84444 10.682 9.08611 11.434ZM12.375 6.02812C12.8111 6.49023 14.0722 7.99141 14.7194 10.5289C13.6639 11.1195 12.7361 11.918 12 12.8695C11.2639 11.918 10.3361 11.1223 9.28056 10.5289C9.925 7.99141 11.1861 6.49023 11.625 6.02812C11.7222 5.92695 11.8583 5.875 12 5.875C12.1417 5.875 12.2778 5.92695 12.375 6.02812Z" fill="#4687F1"/>
</g>
<defs>
<clipPath id="clip0_517_7">
<rect width="16" height="14" fill="white" transform="translate(4 5)"/>
</clipPath>
</defs>
</svg>
