<svg width="24" height="24" viewBox="0 0 24 24" fill="none" xmlns="http://www.w3.org/2000/svg">
<path d="M16.2492 9.79883C16.4133 10.0695 16.416 10.4059 16.2602 10.682C16.107 10.9555 15.8145 11.1004 15.5 11.1004H10.25C9.93555 11.1004 9.64297 10.9555 9.48984 10.682C9.33398 10.4059 9.33672 10.0695 9.50078 9.79883L12.1258 5.42492C12.2816 5.16125 12.5688 5 12.875 5C13.1813 5 13.4684 5.16127 13.6242 5.42492L16.2492 9.79883ZM12.875 13.5313C12.875 12.927 13.3645 12.4375 13.9688 12.4375H17.9063C18.5105 12.4375 19 12.927 19 13.5313V17.4688C19 18.073 18.5105 18.5625 17.9063 18.5625H13.9688C13.3645 18.5625 12.875 18.073 12.875 17.4688V13.5313ZM5 15.5C5 13.5668 6.56707 12 8.5 12C10.4332 12 12 13.5668 12 15.5C12 17.4332 10.4332 19 8.5 19C6.56707 19 5 17.4332 5 15.5Z" fill="#4687F1"/>
</svg>
