<svg width="137" height="41" viewBox="0 0 137 41" fill="none" xmlns="http://www.w3.org/2000/svg">
<rect width="136.388" height="40.8785" rx="8" fill="white"/>
<path d="M28.7384 21.3058C28.7518 20.2613 29.0293 19.2371 29.5449 18.3286C30.0606 17.42 30.7976 16.6567 31.6876 16.1096C31.1222 15.3022 30.3764 14.6377 29.5093 14.169C28.6423 13.7002 27.6779 13.4401 26.6927 13.4093C24.5911 13.1887 22.5538 14.6668 21.4829 14.6668C20.3912 14.6668 18.7424 13.4312 16.9669 13.4677C15.8184 13.5048 14.6992 13.8388 13.7182 14.4371C12.7371 15.0354 11.9278 15.8776 11.3691 16.8816C8.94871 21.0721 10.7541 27.2307 13.0726 30.618C14.2326 32.2767 15.5883 34.1294 17.3622 34.0637C19.0981 33.9917 19.7464 32.9568 21.8418 32.9568C23.9177 32.9568 24.526 34.0637 26.3359 34.022C28.1986 33.9917 29.3722 32.3559 30.4915 30.6816C31.3249 29.4997 31.9663 28.1935 32.3918 26.8113C31.3096 26.3536 30.3861 25.5875 29.7364 24.6085C29.0867 23.6294 28.7396 22.4808 28.7384 21.3058V21.3058Z" fill="black"/>
<path d="M25.3199 11.1817C26.3355 9.96249 26.8358 8.3954 26.7147 6.81323C25.163 6.9762 23.7298 7.71778 22.7004 8.89021C22.1971 9.46297 21.8117 10.1293 21.5661 10.8511C21.3205 11.5729 21.2196 12.3361 21.2691 13.0969C22.0452 13.1049 22.813 12.9367 23.5146 12.605C24.2163 12.2732 24.8335 11.7866 25.3199 11.1817Z" fill="black"/>
<path d="M51.3777 27.1566H46.1085L44.8431 30.8075H42.6113L47.6022 17.3H49.921L54.9119 30.8075H52.642L51.3777 27.1566ZM46.6542 25.4719H50.8309L48.772 19.5467H48.7144L46.6542 25.4719Z" fill="black"/>
<path d="M65.6905 25.884C65.6905 28.9443 64.0141 30.9105 61.4845 30.9105C60.8437 30.9433 60.2064 30.7991 59.6455 30.4943C59.0847 30.1896 58.6231 29.7368 58.3134 29.1876H58.2655V34.0654H56.1968V20.9595H58.1992V22.5974H58.2373C58.5612 22.0509 59.0307 21.6004 59.5957 21.2938C60.1608 20.9872 60.8004 20.8361 61.4464 20.8564C64.0043 20.8564 65.6905 22.8322 65.6905 25.884ZM63.5641 25.884C63.5641 23.8902 62.5096 22.5794 60.9007 22.5794C59.32 22.5794 58.2569 23.9178 58.2569 25.884C58.2569 27.8683 59.32 29.1972 60.9007 29.1972C62.5096 29.1972 63.5641 27.8959 63.5641 25.884Z" fill="black"/>
<path d="M76.7832 25.884C76.7832 28.9443 75.1069 30.9105 72.5772 30.9105C71.9364 30.9433 71.2991 30.7991 70.7383 30.4943C70.1775 30.1896 69.7158 29.7367 69.4062 29.1876H69.3583V34.0654H67.2896V20.9595H69.292V22.5974H69.33C69.6539 22.0509 70.1234 21.6004 70.6885 21.2938C71.2536 20.9872 71.8931 20.8361 72.5392 20.8564C75.0971 20.8564 76.7832 22.8322 76.7832 25.884ZM74.6569 25.884C74.6569 23.8902 73.6024 22.5794 71.9935 22.5794C70.4128 22.5794 69.3496 23.9178 69.3496 25.884C69.3496 27.8683 70.4128 29.1971 71.9935 29.1971C73.6024 29.1971 74.6569 27.8959 74.6569 25.884H74.6569Z" fill="black"/>
<path d="M84.1148 27.044C84.2681 28.3835 85.5998 29.263 87.4196 29.263C89.1633 29.263 90.4178 28.3835 90.4178 27.1757C90.4178 26.1273 89.6612 25.4995 87.8696 25.0693L86.0781 24.6476C83.5397 24.0484 82.3613 22.8885 82.3613 21.0062C82.3613 18.6756 84.4398 17.0748 87.3913 17.0748C90.3123 17.0748 92.3148 18.6756 92.3822 21.0062H90.2938C90.1688 19.6582 89.0284 18.8445 87.3619 18.8445C85.6954 18.8445 84.555 19.6678 84.555 20.866C84.555 21.8209 85.2834 22.3829 87.0651 22.813L88.5882 23.1784C91.4244 23.8338 92.6028 24.9471 92.6028 26.9228C92.6028 29.4499 90.5428 31.0326 87.2662 31.0326C84.2006 31.0326 82.1308 29.4871 81.9971 27.0439L84.1148 27.044Z" fill="black"/>
<path d="M97.0674 18.6289V20.9595H98.9839V22.5603H97.0674V27.9894C97.0674 28.8328 97.4511 29.2258 98.2936 29.2258C98.5212 29.2219 98.7483 29.2063 98.9741 29.1791V30.7703C98.5954 30.8394 98.2104 30.8708 97.8251 30.8638C95.7846 30.8638 94.9888 30.1149 94.9888 28.205V22.5603H93.5234V20.9595H94.9888V18.6289H97.0674Z" fill="black"/>
<path d="M100.094 25.884C100.094 22.7855 101.961 20.8384 104.874 20.8384C107.796 20.8384 109.655 22.7854 109.655 25.884C109.655 28.9911 107.806 30.9297 104.874 30.9297C101.943 30.9297 100.094 28.9911 100.094 25.884ZM107.547 25.884C107.547 23.7585 106.55 22.504 104.874 22.504C103.197 22.504 102.202 23.768 102.202 25.884C102.202 28.0181 103.197 29.263 104.874 29.263C106.55 29.263 107.547 28.0181 107.547 25.884H107.547Z" fill="black"/>
<path d="M111.36 20.9595H113.333V22.6357H113.381C113.515 22.1122 113.829 21.6495 114.27 21.3255C114.712 21.0015 115.254 20.8359 115.806 20.8564C116.044 20.8556 116.282 20.8809 116.514 20.9319V22.8227C116.213 22.7328 115.899 22.6915 115.585 22.7005C115.284 22.6886 114.985 22.7404 114.707 22.8523C114.428 22.9642 114.178 23.1336 113.974 23.3488C113.769 23.5641 113.614 23.8201 113.52 24.0993C113.426 24.3785 113.395 24.6742 113.429 24.9663V30.8075H111.36L111.36 20.9595Z" fill="black"/>
<path d="M126.053 27.915C125.775 29.7028 123.993 30.9297 121.713 30.9297C118.781 30.9297 116.961 29.0102 116.961 25.9308C116.961 22.8418 118.791 20.8384 121.626 20.8384C124.415 20.8384 126.168 22.71 126.168 25.696V26.3886H119.05V26.5107C119.017 26.8732 119.063 27.2383 119.186 27.5818C119.309 27.9254 119.505 28.2395 119.761 28.5033C120.018 28.7672 120.328 28.9747 120.673 29.1121C121.018 29.2494 121.389 29.3136 121.761 29.3002C122.25 29.3449 122.74 29.2343 123.16 28.9847C123.579 28.7352 123.905 28.36 124.088 27.915L126.053 27.915ZM119.06 24.9758H124.098C124.117 24.6499 124.066 24.3238 123.95 24.0179C123.833 23.712 123.653 23.433 123.421 23.1983C123.189 22.9636 122.91 22.7783 122.601 22.6541C122.292 22.5299 121.96 22.4693 121.626 22.4764C121.289 22.4744 120.955 22.5376 120.644 22.6624C120.332 22.7873 120.048 22.9712 119.81 23.2035C119.571 23.4359 119.382 23.7122 119.253 24.0163C119.125 24.3205 119.059 24.6466 119.06 24.9758V24.9758Z" fill="black"/>
<path d="M46.3948 7.1331C46.8285 7.10269 47.2638 7.16671 47.6691 7.32055C48.0744 7.47439 48.4397 7.71422 48.7387 8.02273C49.0377 8.33123 49.2629 8.70074 49.3981 9.10458C49.5332 9.50842 49.5749 9.93654 49.5202 10.3581C49.5202 12.4316 48.3734 13.6234 46.3948 13.6234H43.9956V7.1331H46.3948ZM45.0273 12.7056H46.2796C46.5895 12.7237 46.8997 12.674 47.1875 12.5602C47.4753 12.4464 47.7335 12.2714 47.9433 12.0478C48.1531 11.8242 48.3093 11.5577 48.4004 11.2676C48.4916 10.9776 48.5154 10.6714 48.4701 10.3713C48.5121 10.0723 48.4859 9.76802 48.3933 9.48014C48.3008 9.19225 48.1443 8.92793 47.9349 8.70611C47.7256 8.48429 47.4686 8.31046 47.1824 8.19707C46.8962 8.08369 46.5879 8.03357 46.2796 8.05029H45.0273V12.7056Z" fill="black"/>
<path d="M50.6855 11.1722C50.654 10.8503 50.6917 10.5256 50.7961 10.2188C50.9006 9.91194 51.0695 9.62985 51.2921 9.39057C51.5147 9.15128 51.786 8.9601 52.0886 8.82927C52.3912 8.69844 52.7185 8.63086 53.0494 8.63086C53.3803 8.63086 53.7076 8.69844 54.0102 8.82927C54.3128 8.9601 54.5841 9.15128 54.8067 9.39057C55.0293 9.62985 55.1982 9.91194 55.3027 10.2188C55.4071 10.5256 55.4448 10.8503 55.4133 11.1722C55.4454 11.4944 55.4082 11.8196 55.304 12.127C55.1998 12.4343 55.031 12.7169 54.8083 12.9566C54.5857 13.1964 54.3142 13.388 54.0113 13.5191C53.7084 13.6502 53.3807 13.7179 53.0494 13.7179C52.7181 13.7179 52.3904 13.6502 52.0875 13.5191C51.7846 13.388 51.5131 13.1964 51.2905 12.9566C51.0678 12.7169 50.899 12.4343 50.7948 12.127C50.6906 11.8196 50.6534 11.4944 50.6855 11.1722V11.1722ZM54.3958 11.1722C54.3958 10.1105 53.9077 9.48964 53.051 9.48964C52.1911 9.48964 51.7074 10.1105 51.7074 11.1722C51.7074 12.2424 52.1912 12.8585 53.051 12.8585C53.9077 12.8585 54.3958 12.2382 54.3958 11.1722H54.3958Z" fill="black"/>
<path d="M61.6982 13.6233H60.672L59.636 10.016H59.5577L58.5261 13.6233H57.5096L56.1279 8.72534H57.1313L58.0293 12.4628H58.1032L59.1338 8.72534H60.0828L61.1134 12.4628H61.1916L62.0852 8.72534H63.0745L61.6982 13.6233Z" fill="black"/>
<path d="M64.2368 8.72534H65.1891V9.50343H65.263C65.3884 9.22397 65.6 8.9897 65.8681 8.83328C66.1362 8.67686 66.4476 8.60608 66.7589 8.6308C67.0028 8.61288 67.2477 8.64881 67.4754 8.73594C67.7032 8.82306 67.908 8.95914 68.0746 9.1341C68.2412 9.30905 68.3654 9.5184 68.438 9.74663C68.5106 9.97485 68.5297 10.2161 68.4939 10.4525V13.6233H67.5046V10.6953C67.5046 9.90816 67.1546 9.51672 66.423 9.51672C66.2574 9.50918 66.0921 9.53672 65.9384 9.59745C65.7847 9.65818 65.6463 9.75066 65.5326 9.86855C65.4189 9.98644 65.3327 10.127 65.2798 10.2805C65.2268 10.434 65.2085 10.5969 65.2261 10.7579V13.6233H64.2368L64.2368 8.72534Z" fill="black"/>
<path d="M70.0698 6.81335H71.0591V13.6234H70.0698V6.81335Z" fill="black"/>
<path d="M72.4345 11.1723C72.403 10.8504 72.4407 10.5256 72.5452 10.2188C72.6497 9.91197 72.8186 9.62987 73.0412 9.39058C73.2638 9.15129 73.5352 8.9601 73.8378 8.82927C74.1404 8.69844 74.4677 8.63086 74.7987 8.63086C75.1296 8.63086 75.4569 8.69844 75.7595 8.82927C76.0622 8.9601 76.3335 9.15129 76.5561 9.39058C76.7787 9.62987 76.9476 9.91197 77.0521 10.2188C77.1566 10.5256 77.1943 10.8504 77.1628 11.1723C77.1949 11.4945 77.1576 11.8198 77.0534 12.1271C76.9492 12.4344 76.7803 12.717 76.5577 12.9567C76.335 13.1965 76.0635 13.3881 75.7606 13.5192C75.4576 13.6503 75.13 13.718 74.7987 13.718C74.4673 13.718 74.1397 13.6503 73.8368 13.5192C73.5338 13.3881 73.2623 13.1965 73.0396 12.9567C72.817 12.717 72.6481 12.4344 72.5439 12.1271C72.4397 11.8198 72.4024 11.4945 72.4345 11.1723V11.1723ZM76.1448 11.1723C76.1448 10.1106 75.6566 9.48973 74.8 9.48973C73.9401 9.48973 73.4564 10.1106 73.4564 11.1723C73.4564 12.2425 73.9402 12.8586 74.8 12.8586C75.6567 12.8586 76.1448 12.2383 76.1448 11.1723H76.1448Z" fill="black"/>
<path d="M78.2041 12.2382C78.2041 11.3566 78.8759 10.8483 80.0685 10.776L81.4263 10.6996V10.2768C81.4263 9.75948 81.0762 9.46737 80.4 9.46737C79.8478 9.46737 79.4651 9.66548 79.3553 10.0118H78.3976C78.4987 9.17047 79.3086 8.63086 80.4457 8.63086C81.7024 8.63086 82.4112 9.24217 82.4112 10.2768V13.6234H81.4589V12.9351H81.3806C81.2217 13.182 80.9987 13.3833 80.7341 13.5184C80.4696 13.6535 80.1731 13.7176 79.875 13.7041C79.6645 13.7255 79.4519 13.7035 79.2506 13.6397C79.0494 13.5758 78.8641 13.4715 78.7067 13.3334C78.5493 13.1953 78.4232 13.0265 78.3367 12.8378C78.2501 12.6492 78.2049 12.445 78.2041 12.2382V12.2382ZM81.4263 11.8197V11.4102L80.2022 11.4867C79.5119 11.5318 79.1988 11.7613 79.1988 12.1931C79.1988 12.6339 79.5901 12.8904 80.1283 12.8904C80.286 12.906 80.4453 12.8905 80.5967 12.8447C80.7481 12.7989 80.8885 12.7238 81.0096 12.6239C81.1307 12.524 81.23 12.4014 81.3016 12.2632C81.3731 12.125 81.4156 11.9742 81.4263 11.8197V11.8197Z" fill="black"/>
<path d="M83.7114 11.1723C83.7114 9.62459 84.5257 8.64414 85.7921 8.64414C86.1054 8.63004 86.4163 8.70336 86.6885 8.85552C86.9607 9.00769 87.183 9.23242 87.3293 9.50345H87.4032V6.81335H88.3925V13.6234H87.4445V12.8495H87.3663C87.2086 13.1187 86.9786 13.3407 86.7012 13.4913C86.4237 13.6419 86.1093 13.7155 85.7921 13.7041C84.517 13.7042 83.7114 12.7237 83.7114 11.1723ZM84.7333 11.1723C84.7333 12.2112 85.2345 12.8363 86.0726 12.8363C86.9064 12.8363 87.4217 12.2021 87.4217 11.1765C87.4217 10.1557 86.901 9.51252 86.0726 9.51252C85.2399 9.51252 84.7333 10.1419 84.7333 11.1723H84.7333Z" fill="black"/>
<path d="M92.4853 11.1722C92.4538 10.8503 92.4915 10.5256 92.5959 10.2188C92.7004 9.91194 92.8693 9.62985 93.0919 9.39057C93.3145 9.15128 93.5858 8.9601 93.8884 8.82927C94.191 8.69844 94.5183 8.63086 94.8492 8.63086C95.1801 8.63086 95.5074 8.69844 95.81 8.82927C96.1126 8.9601 96.3839 9.15128 96.6065 9.39057C96.8291 9.62985 96.998 9.91194 97.1025 10.2188C97.2069 10.5256 97.2446 10.8503 97.2131 11.1722C97.2452 11.4944 97.208 11.8196 97.1038 12.127C96.9996 12.4343 96.8308 12.7169 96.6081 12.9566C96.3855 13.1964 96.114 13.388 95.8111 13.5191C95.5082 13.6502 95.1805 13.7179 94.8492 13.7179C94.5179 13.7179 94.1902 13.6502 93.8873 13.5191C93.5844 13.388 93.3129 13.1964 93.0903 12.9566C92.8676 12.7169 92.6988 12.4343 92.5946 12.127C92.4904 11.8196 92.4532 11.4944 92.4853 11.1722V11.1722ZM96.1956 11.1722C96.1956 10.1105 95.7075 9.48964 94.8508 9.48964C93.9909 9.48964 93.5072 10.1105 93.5072 11.1722C93.5072 12.2424 93.991 12.8585 94.8508 12.8585C95.7075 12.8585 96.1956 12.2382 96.1956 11.1722Z" fill="black"/>
<path d="M98.5405 8.72534H99.4928V9.50343H99.5668C99.6922 9.22397 99.9037 8.9897 100.172 8.83328C100.44 8.67686 100.751 8.60608 101.063 8.6308C101.307 8.61288 101.551 8.64881 101.779 8.73594C102.007 8.82306 102.212 8.95914 102.378 9.1341C102.545 9.30905 102.669 9.5184 102.742 9.74663C102.814 9.97485 102.833 10.2161 102.798 10.4525V13.6233H101.808V10.6953C101.808 9.90816 101.458 9.51672 100.727 9.51672C100.561 9.50918 100.396 9.53672 100.242 9.59745C100.088 9.65818 99.95 9.75066 99.8363 9.86855C99.7226 9.98644 99.6364 10.127 99.5835 10.2805C99.5306 10.434 99.5122 10.5969 99.5298 10.7579V13.6233H98.5405V8.72534Z" fill="black"/>
<path d="M108.387 7.50586V8.74762H109.473V9.56183H108.387V12.0804C108.387 12.5935 108.604 12.8181 109.096 12.8181C109.222 12.8177 109.348 12.8103 109.473 12.7958V13.601C109.296 13.632 109.116 13.6486 108.935 13.6504C107.835 13.6504 107.397 13.2722 107.397 12.3279V9.56179H106.601V8.74757H107.397V7.50586H108.387Z" fill="black"/>
<path d="M110.825 6.81335H111.805V9.51251H111.884C112.015 9.23044 112.232 8.99485 112.506 8.83784C112.779 8.68083 113.096 8.61003 113.412 8.6351C113.655 8.6222 113.897 8.66178 114.122 8.75102C114.347 8.84026 114.55 8.97696 114.715 9.15137C114.879 9.32577 115.003 9.53359 115.076 9.75998C115.149 9.98638 115.171 10.2258 115.138 10.4611V13.6234H114.148V10.6996C114.148 9.91722 113.775 9.521 113.076 9.521C112.906 9.50737 112.735 9.53021 112.575 9.58792C112.415 9.64563 112.27 9.73681 112.15 9.85509C112.029 9.97337 111.937 10.1159 111.879 10.2727C111.821 10.4294 111.799 10.5967 111.814 10.7628V13.6234H110.825L110.825 6.81335Z" fill="black"/>
<path d="M120.906 12.3007C120.772 12.7484 120.481 13.1356 120.084 13.3946C119.687 13.6537 119.209 13.7681 118.734 13.7178C118.404 13.7263 118.076 13.6645 117.773 13.5366C117.469 13.4088 117.198 13.218 116.978 12.9774C116.757 12.7369 116.593 12.4524 116.497 12.1437C116.4 11.835 116.374 11.5094 116.419 11.1896C116.375 10.8689 116.402 10.5426 116.498 10.233C116.594 9.92334 116.758 9.63752 116.977 9.39487C117.196 9.15223 117.466 8.95842 117.768 8.82658C118.071 8.69474 118.399 8.62794 118.73 8.6307C120.125 8.6307 120.966 9.5618 120.966 11.0999V11.4372H117.427V11.4913C117.411 11.6711 117.434 11.852 117.494 12.0225C117.555 12.193 117.651 12.3493 117.776 12.4814C117.902 12.6135 118.055 12.7185 118.224 12.7897C118.394 12.8608 118.577 12.8965 118.762 12.8945C118.998 12.9223 119.238 12.8806 119.45 12.7749C119.663 12.6692 119.838 12.5041 119.954 12.3007L120.906 12.3007ZM117.427 10.7222H119.958C119.971 10.5579 119.948 10.3927 119.891 10.2375C119.835 10.0823 119.745 9.94034 119.629 9.82084C119.513 9.70135 119.372 9.60692 119.217 9.54364C119.061 9.48037 118.893 9.44963 118.725 9.45341C118.553 9.4513 118.384 9.48269 118.225 9.54572C118.067 9.60875 117.923 9.70214 117.802 9.82039C117.681 9.93865 117.585 10.0794 117.521 10.2343C117.456 10.3891 117.424 10.5551 117.427 10.7222H117.427Z" fill="black"/>
</svg>
