<?xml version="1.0" encoding="utf-8"?>
<!-- Generator: Adobe Illustrator 27.4.1, SVG Export Plug-In . SVG Version: 6.00 Build 0)  -->
<svg version="1.1" id="Capa_1" xmlns="http://www.w3.org/2000/svg" xmlns:xlink="http://www.w3.org/1999/xlink" x="0px" y="0px"
	 viewBox="0 0 24 24" style="enable-background:new 0 0 24 24;" xml:space="preserve">
<style type="text/css">
	.st0{fill:#4687F1;}
</style>
<g>
	<path class="st0" d="M5.3,8.7c0,0.3-0.1,0.5-0.1,0.8C5.2,9.2,5.3,8.9,5.3,8.7z M5.2,14.5c0,0.3,0,0.5,0.1,0.8
		C5.3,15.1,5.2,14.8,5.2,14.5z M8.7,18.7c0.2,0,0.5,0.1,0.8,0.1C9.2,18.8,8.9,18.7,8.7,18.7z M8.7,5.3c0.3,0,0.5-0.1,0.8-0.1
		C9.2,5.2,8.9,5.3,8.7,5.3z M15.3,5.3c-0.3,0-0.5-0.1-0.8-0.1C14.8,5.2,15.1,5.3,15.3,5.3z M18.7,8.7c0,0.3,0.1,0.5,0.1,0.8
		C18.8,9.2,18.7,8.9,18.7,8.7z"/>
	<path class="st0" d="M20.5,8.9c0,0.4-0.3,0.6-0.6,0.6h-1.1v1.6c0,0.3-0.3,0.5-0.6,0.3c-0.4-0.2-0.8-0.3-1.2-0.2
		c-0.3,0.1-0.6-0.1-0.6-0.4v-0.7c0-1.4-1.1-2.5-2.5-2.5h-3.8c-1.4,0-2.5,1.1-2.5,2.5v3.8c0,1.4,1.1,2.5,2.5,2.5h0.4
		c0.1,0,0.2,0.1,0.2,0.2c0,0.8,0.6,1.5,1.4,1.7c0.1,0,0.2,0.2,0.2,0.3c0,0.1-0.1,0.1-0.2,0.1H9.5v1.1c0,0.3-0.3,0.6-0.6,0.6
		c-0.4,0-0.6-0.3-0.6-0.6v-1.2c-1.4-0.4-2.4-1.5-2.8-2.8H4.2c-0.3,0-0.6-0.3-0.6-0.6c0-0.4,0.3-0.6,0.6-0.6h1.1v-1.9H4.2
		c-0.3,0-0.6-0.3-0.6-0.6c0-0.4,0.3-0.6,0.6-0.6h1.1V9.5H4.2c-0.3,0-0.6-0.3-0.6-0.6c0-0.3,0.3-0.6,0.6-0.6h1.3
		c0.4-1.3,1.5-2.4,2.8-2.8V4.2c0-0.3,0.3-0.6,0.6-0.6c0.3,0,0.6,0.3,0.6,0.6v1.1h1.9V4.2c0-0.3,0.3-0.6,0.6-0.6s0.6,0.3,0.6,0.6v1.1
		h1.9V4.2c0-0.3,0.3-0.6,0.6-0.6c0.3,0,0.6,0.3,0.6,0.6v1.3c1.3,0.4,2.4,1.5,2.8,2.8h1.3C20.2,8.2,20.5,8.5,20.5,8.9z"/>
	<path class="st0" d="M19.6,15c-0.6,0-0.9-0.3-0.9-0.7c0-0.2,0.1-0.4,0.2-0.6c0.2-0.4,0.1-0.9-0.3-1.2l-0.8-0.4
		c-0.4-0.2-0.8-0.1-1,0.3l-0.1,0.1c-0.4,0.7-1.1,0.7-1.5,0l-0.1-0.1c-0.2-0.4-0.7-0.5-1-0.3l-0.8,0.4C13.1,12.7,13,13,13,13.3
		c0,0.1,0,0.3,0.1,0.4c0.1,0.2,0.2,0.4,0.2,0.6c0,0.4-0.3,0.7-0.9,0.7c-0.5,0-0.9,0.4-0.9,0.8v0.8c0,0.5,0.4,0.8,0.9,0.8
		c0.6,0,0.9,0.3,0.9,0.7c0,0.2-0.1,0.4-0.2,0.6c-0.2,0.4-0.1,0.9,0.3,1.2l0.8,0.4c0.3,0.2,0.8,0.1,1-0.3l0.1-0.1
		c0.4-0.7,1.1-0.7,1.5,0l0.1,0.1c0.2,0.4,0.7,0.5,1,0.3l0.8-0.4c0.3-0.2,0.4-0.4,0.4-0.7c0-0.1,0-0.3-0.1-0.4
		c-0.1-0.2-0.2-0.4-0.2-0.6c0-0.4,0.3-0.7,0.9-0.7c0.5,0,0.9-0.4,0.9-0.8v-0.8C20.5,15.4,20.1,15,19.6,15z M16,17.7
		c-0.8,0-1.5-0.7-1.5-1.5c0-0.8,0.7-1.5,1.5-1.5c0.8,0,1.5,0.7,1.5,1.5C17.4,17,16.8,17.7,16,17.7z"/>
	<path class="st0" d="M15.6,10.3v0.5c0,0.3-0.4,0.5-0.7,0.4c-0.4-0.1-0.8-0.1-1.2,0.2L13,11.8c-0.5,0.3-0.9,0.9-0.9,1.5
		c0,0.1,0,0.1,0,0.2c0,0.3-0.2,0.7-0.5,0.9c-0.4,0.2-0.7,0.5-0.9,1c-0.1,0.2-0.2,0.3-0.4,0.3c-1.1,0-1.9-0.9-1.9-1.9v-3.4
		c0-1.1,0.9-1.9,1.9-1.9h3.4C14.7,8.4,15.6,9.3,15.6,10.3z"/>
</g>
</svg>
