<svg width="93" height="93" viewBox="0 0 93 93" fill="none" xmlns="http://www.w3.org/2000/svg">
<g clip-path="url(#clip0_171_456)">
<path d="M47.6424 34.1079C44.6718 32.5616 41.7048 32 38.7522 32C34.7494 32 30.779 33.0357 26.8841 34.0495C22.9461 35.0743 19.1663 36.059 15.4081 36.059C13.8868 36.059 12.3656 35.8985 10.8443 35.5119L10.0639 35.315L9.92724 36.1246C8.61456 43.8269 7.32706 51.2118 6.1007 58.0716L6 58.6331L6.4963 58.8921C9.46331 60.4384 12.4339 61 15.3829 61C19.3857 61 23.3597 59.9643 27.251 58.9505C31.189 57.9257 34.9688 56.941 38.727 56.941C40.2483 56.941 41.7695 57.1015 43.2908 57.4881L44.0712 57.685L44.2079 56.8754C45.5241 49.1659 46.8116 41.7809 48.0344 34.9284L48.1351 34.3668L47.6424 34.1079ZM22.7196 48.9398C21.7449 49.1403 20.7739 49.2899 19.7992 49.3519C19.6986 49.9427 19.5979 50.5298 19.4936 51.117C20.5258 51.0732 21.5543 50.9237 22.5865 50.7158C22.457 51.4853 22.3275 52.2548 22.1981 53.0243C20.2992 53.378 18.4039 53.5056 16.505 53.1628C17.0912 49.888 17.681 46.5656 18.2672 43.2069C20.1661 43.2798 22.0614 42.9625 23.9603 42.4884C23.8308 43.2652 23.7014 44.042 23.5719 44.8152C22.5397 45.0595 21.5111 45.2564 20.479 45.3622C20.3819 45.9384 20.2812 46.5109 20.1841 47.0835C21.1587 46.9996 22.1297 46.8319 23.1043 46.6167C22.9785 47.3972 22.849 48.1703 22.7196 48.9398ZM33.4511 50.0703C32.5844 50.2234 31.7248 50.4241 30.8581 50.6538C31.1386 48.9544 31.4156 47.2622 31.6997 45.57C31.1746 44.6839 30.6495 43.8086 30.1245 42.9443C29.1678 43.2142 28.2112 43.5059 27.251 43.7977C27.1611 44.4869 27.0352 45.0959 26.9453 45.7816C27.7724 45.5299 28.6607 45.2892 29.4879 45.0449C29.3584 45.8253 29.229 46.6094 29.0995 47.3935C28.2723 47.6415 27.384 47.8822 26.5569 48.1338C26.3195 49.4358 26.1145 50.8179 25.8736 52.1198C25.0068 52.3715 24.1401 52.6085 23.2733 52.8055C23.8596 49.2898 24.4494 45.7561 25.0356 42.2113C26.3447 41.8502 27.6538 41.4345 28.9628 41.0479C29.0096 41.0333 29.0599 41.0187 29.1067 41.0042C29.2505 40.9604 29.3944 40.9203 29.5347 40.8802C29.6462 40.8473 29.754 40.8145 29.8655 40.7853C30.0058 40.7452 30.1496 40.7051 30.2899 40.665C30.4014 40.6358 30.5093 40.603 30.6208 40.5738C30.6675 40.5592 30.7142 40.5483 30.7646 40.5337C31.1998 40.417 31.6313 40.3076 32.0665 40.2091C32.5232 41.026 32.9836 41.8575 33.4403 42.7C34.2171 41.6387 34.9903 40.6212 35.7672 39.6548C36.8281 39.6767 37.5402 39.6038 38.7018 39.6402C37.1518 41.223 35.8175 43.1047 34.2926 45.0668C34.0157 46.7297 33.7316 48.4 33.4511 50.0703ZM37.6049 50.3C36.7742 50.4167 36.1016 49.8369 36.1016 49.0017C36.1016 48.1666 36.7742 47.3972 37.6049 47.2768C38.4357 47.1601 39.1082 47.74 39.1082 48.5751C39.1082 49.4102 38.4357 50.1833 37.6049 50.3Z" fill="white"/>
<path d="M55.3858 37.2065C54.8802 37.1884 54.371 37.163 53.8654 37.1267C53.8049 37.4025 53.7479 37.6819 53.6874 37.9577C54.1646 37.994 54.6452 38.0194 55.1224 38.0375C55.044 38.4041 54.9692 38.7705 54.8909 39.1371C54.4138 39.1153 53.9331 39.0863 53.456 39.05C53.3954 39.3367 53.3349 39.6197 53.2743 39.9064C53.78 39.9463 54.2891 39.979 54.7948 40.0044C54.7164 40.3709 54.6417 40.7374 54.5633 41.1039C53.6304 41.0531 52.6975 40.9769 51.7646 40.8681C52.1172 39.2278 52.4661 37.5839 52.8186 35.9364C53.7515 36.0235 54.6844 36.0779 55.6173 36.107C55.5389 36.4735 55.4642 36.84 55.3858 37.2065Z" fill="white"/>
<path d="M56.0235 37.729C56.4187 37.7398 56.8104 37.7435 57.2056 37.7435C57.1771 37.885 57.1487 38.0229 57.1166 38.1644C57.5047 37.8487 57.8999 37.689 58.2988 37.6818C58.7937 37.6745 59.1284 37.8777 59.2993 38.3023C59.6554 37.8596 60.0791 37.6273 60.5704 37.6056C60.7271 37.5983 60.8696 37.6165 61.0013 37.6564C61.1295 37.6963 61.2363 37.7652 61.3146 37.8596C61.393 37.9576 61.4464 38.0846 61.4713 38.2406C61.4962 38.4003 61.4855 38.5963 61.4392 38.8249C61.2826 39.576 61.1295 40.3273 60.9728 41.0784C60.5776 41.0966 60.1859 41.1147 59.7907 41.1292C59.9082 40.5595 60.0257 39.9934 60.1432 39.4236C60.1788 39.2495 60.1966 39.1043 60.1966 38.9918C60.1966 38.8793 60.1788 38.7959 60.1467 38.7342C60.1147 38.6725 60.0684 38.6325 60.015 38.6108C59.958 38.589 59.8975 38.5817 59.8263 38.5853C59.4489 38.5999 59.1996 38.8902 59.0821 39.4599C58.9646 40.026 58.8471 40.5958 58.7296 41.1619C58.3344 41.1691 57.9427 41.1764 57.5474 41.1764C57.6649 40.6103 57.7824 40.0478 57.8999 39.4817C57.9355 39.3075 57.9569 39.1623 57.9569 39.0499C57.9605 38.9374 57.9463 38.8466 57.9177 38.7777C57.8893 38.7124 57.8465 38.6652 57.786 38.6434C57.7255 38.618 57.6507 38.6071 57.5652 38.6071C57.4905 38.6071 57.4193 38.618 57.348 38.6398C57.2768 38.6615 57.2127 38.7051 57.1487 38.7704C57.0846 38.8358 57.0276 38.9228 56.9742 39.0354C56.9207 39.1478 56.8781 39.2967 56.8389 39.4781C56.7214 40.0405 56.6039 40.603 56.4864 41.1655C56.0911 41.1583 55.6994 41.151 55.3042 41.1328C55.5463 40.0043 55.7849 38.8648 56.0235 37.729Z" fill="white"/>
<path d="M62.6533 42.6897C62.2581 42.7151 61.8664 42.7405 61.4712 42.7623C61.8308 41.0276 62.1869 39.2894 62.5465 37.5512C62.9415 37.5258 63.3332 37.4967 63.7288 37.4677C63.7039 37.5984 63.675 37.7254 63.6506 37.856C63.9709 37.5076 64.3484 37.3153 64.7826 37.279C65.0212 37.2609 65.2349 37.2899 65.4202 37.3697C65.605 37.4496 65.7581 37.5657 65.876 37.7217C65.9933 37.8778 66.0715 38.0628 66.1106 38.2842C66.1497 38.5056 66.1429 38.7414 66.0891 39.0027C66.0358 39.2604 65.9434 39.5072 65.8153 39.7358C65.6833 39.9644 65.5268 40.1712 65.3415 40.3527C65.1567 40.5341 64.9537 40.6793 64.7293 40.7918C64.5048 40.9042 64.2735 40.9696 64.0349 40.9877C63.6183 41.0204 63.3014 40.897 63.0843 40.6176C62.9381 41.3071 62.7958 41.9965 62.6533 42.6897ZM64.8574 39.1043C64.8789 38.9954 64.8823 38.8939 64.8647 38.7995C64.8466 38.7052 64.8109 38.6253 64.7576 38.5564C64.7043 38.4911 64.6329 38.4402 64.5473 38.404C64.4623 38.3677 64.3659 38.3568 64.2594 38.364C64.1556 38.3713 64.0525 38.4003 63.9527 38.4475C63.8535 38.4947 63.7606 38.5564 63.6789 38.6362C63.5967 38.7124 63.5259 38.8031 63.4618 38.9048C63.4012 39.0064 63.3581 39.1116 63.3371 39.2168C63.3156 39.3257 63.3122 39.4273 63.3332 39.518C63.3513 39.6088 63.3904 39.6886 63.4437 39.7539C63.497 39.8192 63.5684 39.87 63.654 39.9063C63.7396 39.9426 63.832 39.9571 63.9385 39.9498C64.0417 39.9426 64.1454 39.9136 64.2452 39.8664C64.3444 39.8192 64.4374 39.7539 64.519 39.6777C64.6012 39.6015 64.672 39.5108 64.7327 39.4128C64.7933 39.3112 64.8358 39.2096 64.8574 39.1043Z" fill="white"/>
<path d="M68.6817 34.9203C68.2934 36.8073 67.9085 38.6907 67.5208 40.5777C67.1251 40.614 66.7335 40.6503 66.3384 40.683C66.7267 38.7996 67.111 36.9125 67.4992 35.0255C67.8943 34.9929 68.286 34.9566 68.6817 34.9203Z" fill="white"/>
<path d="M68.5 38.7415C68.5533 38.4839 68.653 38.2371 68.7993 38.0012C68.9449 37.769 69.1235 37.5585 69.3366 37.377C69.5503 37.1956 69.7889 37.0468 70.0525 36.9271C70.3195 36.8109 70.5972 36.7384 70.8892 36.713C71.1777 36.6876 71.4339 36.713 71.6583 36.7855C71.8862 36.8581 72.0716 36.9706 72.2172 37.123C72.3635 37.2754 72.4632 37.4605 72.5165 37.6819C72.5698 37.9032 72.5664 38.1536 72.5092 38.4294C72.4525 38.7052 72.3493 38.9629 72.1997 39.1987C72.05 39.4346 71.8686 39.6451 71.6583 39.8229C71.4446 40.0043 71.206 40.1495 70.9356 40.262C70.6653 40.3745 70.3875 40.4434 70.095 40.4689C69.8071 40.4943 69.5503 40.4725 69.3264 40.4035C69.1019 40.3346 68.9166 40.2257 68.7777 40.0733C68.6354 39.9209 68.5391 39.7322 68.4858 39.5072C68.4359 39.2859 68.4393 39.0282 68.5 38.7415ZM69.743 38.6435C69.7181 38.7633 69.7181 38.8685 69.7391 38.9629C69.7606 39.0572 69.7963 39.137 69.8496 39.2024C69.9029 39.2677 69.9709 39.3185 70.0559 39.3511C70.1415 39.3838 70.2379 39.3947 70.341 39.3874C70.4442 39.3766 70.5474 39.3511 70.6505 39.3004C70.7543 39.2532 70.8432 39.1878 70.9283 39.108C71.0105 39.0282 71.0813 38.9411 71.1459 38.8395C71.206 38.7379 71.2491 38.6326 71.274 38.5165C71.295 38.4077 71.295 38.306 71.274 38.2117C71.2525 38.1173 71.2168 38.0375 71.1635 37.9686C71.1102 37.9032 71.0422 37.8524 70.9572 37.8197C70.8716 37.7871 70.7752 37.7762 70.6721 37.7835C70.5689 37.7907 70.4657 37.8234 70.3626 37.8706C70.2588 37.9214 70.1664 37.9831 70.0848 38.0629C70.0026 38.1427 69.9312 38.2298 69.8711 38.3278C69.8071 38.4294 69.764 38.5346 69.743 38.6435Z" fill="white"/>
<path d="M73.6273 39.5943C73.2963 38.629 72.9613 37.6674 72.6302 36.7021C73.086 36.6658 73.5451 36.6331 74.0008 36.6041C74.1754 37.1775 74.35 37.7545 74.528 38.3314C74.9412 37.7218 75.3505 37.1121 75.7637 36.5061C76.216 36.4844 76.6678 36.4662 77.1201 36.4553C75.8668 38.2081 74.6102 39.9899 73.3563 41.7934C72.9154 41.8261 72.4738 41.8587 72.0322 41.895C72.5628 41.1221 73.0933 40.3564 73.6273 39.5943Z" fill="white"/>
<path d="M77.9501 38.3532C77.8395 38.8757 78.0249 39.1334 78.5056 39.1297C78.7618 39.1261 78.9789 39.0209 79.1534 38.8068C79.5344 38.8068 79.9153 38.8104 80.2967 38.8213C79.9011 39.5979 79.2424 39.9789 78.3202 39.9898C78.0391 39.9934 77.7863 39.9535 77.5726 39.8737C77.3555 39.7902 77.1809 39.6741 77.0454 39.518C76.9105 39.362 76.8215 39.1733 76.7784 38.9519C76.7325 38.7306 76.7393 38.4802 76.8 38.2007C76.8606 37.9141 76.9564 37.6528 77.0919 37.4206C77.2274 37.1883 77.3912 36.9887 77.5867 36.8218C77.7829 36.6585 78.0034 36.5278 78.2494 36.4371C78.4948 36.3464 78.7618 36.3029 79.0503 36.3029C79.3314 36.3029 79.5774 36.3464 79.7872 36.4371C79.9941 36.5278 80.1613 36.6549 80.282 36.8218C80.4033 36.9887 80.4815 37.1919 80.5138 37.4314C80.5456 37.6709 80.5314 37.9395 80.4674 38.237C80.4606 38.2806 80.4498 38.3205 80.4424 38.3641C79.6058 38.3386 78.7759 38.3386 77.9501 38.3532ZM79.4777 37.6419C79.4737 37.4714 79.4204 37.3371 79.3207 37.2319C79.2209 37.1302 79.082 37.0758 78.908 37.0758C78.7261 37.0758 78.5662 37.1266 78.4307 37.2246C78.2953 37.3226 78.1921 37.4641 78.1247 37.6419C78.5804 37.6419 79.0287 37.6383 79.4777 37.6419Z" fill="white"/>
<path d="M81.4429 36.4734C81.8386 36.4915 82.2303 36.5133 82.6253 36.5423C82.5862 36.7274 82.5471 36.9125 82.508 37.0976C82.6752 36.9052 82.864 36.7601 83.0703 36.6657C83.2766 36.575 83.5011 36.5387 83.7431 36.5605C83.7754 36.5641 83.8072 36.5677 83.8429 36.5714C83.8786 36.575 83.9211 36.5823 83.9676 36.5968C83.886 36.9742 83.8072 37.3516 83.7256 37.729C83.5867 37.6346 83.4229 37.5802 83.2415 37.5657C82.9671 37.5439 82.7427 37.6092 82.5721 37.7653C82.4009 37.9213 82.2801 38.1572 82.2121 38.4729C82.109 38.9556 82.0058 39.4418 81.906 39.9281C81.511 39.9063 81.1193 39.8918 80.7236 39.8773C80.9662 38.7414 81.2043 37.6092 81.4429 36.4734Z" fill="white"/>
<path d="M86.4315 37.8669C86.2393 37.7181 86.0364 37.6274 85.8295 37.5983C85.7195 37.5838 85.6266 37.5911 85.5517 37.6237C85.4735 37.6564 85.427 37.7108 85.4129 37.7834C85.4061 37.8233 85.4027 37.856 85.4095 37.8814C85.4168 37.9068 85.4344 37.9322 85.4667 37.9612C85.4985 37.9866 85.5483 38.0157 85.6158 38.041C85.6838 38.0701 85.7728 38.1027 85.8867 38.1463C86.2002 38.2588 86.4173 38.4148 86.542 38.6108C86.6667 38.8031 86.7018 39.0281 86.6452 39.2858C86.6021 39.4781 86.5278 39.645 86.4139 39.7902C86.3034 39.9317 86.1645 40.0442 86.0041 40.1276C85.8437 40.2111 85.6549 40.2692 85.4486 40.3018C85.2389 40.3345 85.0178 40.3345 84.7826 40.3055C84.3308 40.251 83.9102 40.0769 83.5293 39.7793C83.7322 39.5107 83.9351 39.2459 84.1381 38.9846C84.4198 39.2459 84.7083 39.3946 85.0036 39.4345C85.1102 39.449 85.2065 39.4382 85.2848 39.3983C85.363 39.3583 85.4129 39.3039 85.427 39.2313C85.4378 39.1878 85.4378 39.1515 85.4344 39.1225C85.431 39.0934 85.4129 39.0644 85.3811 39.0353C85.3528 39.0063 85.3063 38.9773 85.2423 38.9483C85.1782 38.9192 85.096 38.8866 84.9895 38.8503C84.6403 38.7306 84.409 38.5927 84.2951 38.4294C84.1812 38.266 84.1488 38.0592 84.2061 37.8015C84.2452 37.6128 84.3166 37.4495 84.4198 37.308C84.5229 37.1665 84.6476 37.0504 84.8007 36.9633C84.9537 36.8762 85.1283 36.8145 85.3239 36.7854C85.52 36.7528 85.7337 36.7564 85.9576 36.7891C86.3283 36.8471 86.6701 36.9778 86.987 37.181C86.809 37.406 86.6202 37.6346 86.4315 37.8669Z" fill="white"/>
<path d="M54.0081 43.8255C53.4954 43.7929 52.9827 43.7493 52.4699 43.6986C52.4094 43.9743 52.3524 44.2501 52.2919 44.5223C52.7583 44.5731 53.2283 44.613 53.6948 44.6457C53.6165 45.0086 53.5417 45.3751 53.4633 45.738C52.9969 45.7017 52.5269 45.6581 52.0604 45.6073C51.9216 46.2533 51.7827 46.8956 51.6474 47.5379C51.2201 47.4871 50.7964 47.429 50.3691 47.3601C50.7217 45.7343 51.0706 44.1013 51.4231 42.4647C52.3631 42.5845 53.3031 42.6679 54.2431 42.726C54.1612 43.0961 54.0829 43.4626 54.0081 43.8255Z" fill="white"/>
<path d="M53.9545 46.01C54.0079 45.7597 54.1076 45.5274 54.2536 45.3169C54.3996 45.1064 54.5776 44.925 54.7913 44.769C55.0049 44.6165 55.2435 44.4968 55.507 44.4133C55.7741 44.3299 56.0518 44.29 56.3438 44.2936C56.6322 44.2972 56.8886 44.348 57.1128 44.4387C57.3407 44.5295 57.5259 44.6565 57.6719 44.8198C57.8179 44.9831 57.9176 45.1754 57.971 45.4004C58.0244 45.6254 58.0209 45.8722 57.9638 46.1479C57.9069 46.4201 57.8036 46.6705 57.6541 46.8955C57.5045 47.1205 57.3229 47.3164 57.1128 47.4761C56.8992 47.6394 56.6606 47.7628 56.39 47.8462C56.1194 47.9297 55.8417 47.9696 55.5497 47.9588C55.2613 47.9478 55.0049 47.8934 54.7806 47.7954C54.5563 47.6938 54.3711 47.5596 54.2323 47.3854C54.0898 47.2112 53.9937 47.008 53.9403 46.7757C53.8905 46.5435 53.894 46.2858 53.9545 46.01ZM55.1972 46.0899C55.1723 46.206 55.1723 46.3113 55.1937 46.4056C55.215 46.5036 55.2506 46.587 55.304 46.6596C55.3574 46.7322 55.4251 46.7903 55.5105 46.8338C55.596 46.8773 55.6921 46.8991 55.7954 46.9027C55.8986 46.9064 56.0019 46.8882 56.1052 46.852C56.2085 46.8156 56.301 46.7612 56.3829 46.6887C56.4648 46.6197 56.536 46.5363 56.5966 46.4419C56.6571 46.3475 56.6998 46.2423 56.7247 46.1334C56.7461 46.0282 56.7461 45.9266 56.7247 45.8286C56.7034 45.7343 56.6678 45.6471 56.6144 45.5746C56.5609 45.502 56.4933 45.4475 56.4078 45.404C56.3224 45.3641 56.2263 45.3424 56.123 45.3387C56.0197 45.3351 55.9164 45.3532 55.8132 45.3895C55.7099 45.4258 55.621 45.4802 55.5355 45.5492C55.45 45.6181 55.3824 45.698 55.3218 45.7887C55.2613 45.883 55.2186 45.9846 55.1972 46.0899Z" fill="white"/>
<path d="M58.9395 44.4134C59.3347 44.4025 59.7264 44.3916 60.1216 44.3735C60.0825 44.5621 60.0433 44.7509 60.0041 44.9396C60.1715 44.7291 60.3602 44.5621 60.5667 44.4425C60.7732 44.3227 60.9976 44.2574 61.2397 44.2464C61.2717 44.2464 61.3038 44.2429 61.3394 44.2392C61.375 44.2356 61.4177 44.2392 61.464 44.2464C61.3821 44.6384 61.3038 45.0267 61.2219 45.4186C61.083 45.346 60.9228 45.3134 60.7376 45.3242C60.4634 45.3387 60.2391 45.4295 60.0682 45.6037C59.8973 45.7778 59.7763 46.0246 59.7086 46.3512C59.6053 46.8448 59.5021 47.3383 59.4024 47.8318C59.0071 47.8427 58.6155 47.8536 58.2202 47.8572C58.4588 46.7105 58.6974 45.5601 58.9395 44.4134Z" fill="white"/>
<path d="M50.6608 51.6748C50.2442 50.7385 49.8311 49.7987 49.4146 48.8479C49.9237 48.9422 50.4329 49.0221 50.942 49.0946C51.1521 49.5845 51.3587 50.0708 51.5687 50.5535C51.9676 50.1434 52.3663 49.726 52.7651 49.3051C53.2743 49.3523 53.7835 49.3922 54.2926 49.4213C53.5093 50.2486 52.726 51.0578 51.9426 51.8417C51.7752 52.6292 51.6043 53.4166 51.437 54.2005C51.0097 54.1461 50.586 54.0844 50.1587 54.0154C50.3225 53.2388 50.4898 52.4586 50.6608 51.6748Z" fill="white"/>
<path d="M52.7973 52.6073C52.8507 52.3569 52.9504 52.1283 53.0964 51.9215C53.2424 51.7146 53.4204 51.5368 53.6341 51.388C53.8477 51.2392 54.0863 51.1304 54.3498 51.0505C54.6168 50.9707 54.8946 50.9381 55.1865 50.9526C55.475 50.9634 55.7313 51.0179 55.9556 51.1159C56.1835 51.2139 56.3687 51.3445 56.5146 51.5078C56.6606 51.6711 56.7603 51.867 56.8137 52.092C56.8671 52.317 56.8636 52.5674 56.8067 52.8396C56.7496 53.1117 56.6464 53.3585 56.4968 53.5799C56.3473 53.8012 56.1657 53.9936 55.9556 54.1496C55.742 54.3056 55.5034 54.4254 55.2328 54.5052C54.9658 54.5851 54.6844 54.6141 54.3925 54.5996C54.1041 54.5851 53.8513 54.5197 53.6234 54.4145C53.399 54.3093 53.2139 54.1678 53.075 53.9899C52.9326 53.8121 52.8365 53.6053 52.7831 53.373C52.7332 53.1372 52.7368 52.8831 52.7973 52.6073ZM54.04 52.7162C54.0151 52.8323 54.0151 52.9376 54.0364 53.0319C54.0578 53.1299 54.0934 53.217 54.1468 53.2895C54.2002 53.3657 54.2679 53.4238 54.3533 53.4674C54.4388 53.5109 54.5313 53.5363 54.6382 53.5436C54.7414 53.5472 54.8447 53.5327 54.948 53.5001C55.0512 53.4637 55.1402 53.4129 55.2257 53.344C55.3076 53.275 55.3788 53.1952 55.4429 53.1009C55.5034 53.0065 55.5461 52.9049 55.5711 52.796C55.5925 52.6908 55.5925 52.5892 55.5711 52.4912C55.5497 52.3932 55.5141 52.3097 55.4607 52.2372C55.4073 52.1646 55.3396 52.1066 55.2542 52.063C55.1687 52.0194 55.0726 51.994 54.9693 51.9904C54.8661 51.9868 54.7628 52.0013 54.6596 52.0339C54.5563 52.0703 54.4673 52.1211 54.3818 52.1864C54.2999 52.2517 54.2287 52.3315 54.1682 52.4223C54.1041 52.513 54.0613 52.6109 54.04 52.7162Z" fill="white"/>
<path d="M58.9608 51.1015C58.8255 51.7474 58.6902 52.397 58.5549 53.043C58.4659 53.4675 58.6226 53.678 59.0213 53.6671C59.4202 53.6562 59.6658 53.4349 59.7549 53.0103C59.8902 52.3607 60.0255 51.7112 60.1608 51.0616C60.556 51.047 60.9476 51.0253 61.3429 51.0035C61.1934 51.7329 61.0403 52.466 60.8907 53.1953C60.7945 53.6635 60.5703 54.0227 60.2249 54.2695C59.8795 54.5163 59.4094 54.6505 58.8184 54.665C58.2273 54.6795 57.8072 54.5634 57.558 54.3348C57.3087 54.1026 57.2339 53.7542 57.33 53.2933C57.4796 52.5712 57.6327 51.849 57.7822 51.1232C58.1739 51.116 58.5692 51.1087 58.9608 51.1015Z" fill="white"/>
<path d="M63.1873 51.8961C63.0201 52.7163 62.8489 53.5328 62.6816 54.3529C62.2864 54.3783 61.8948 54.4037 61.4995 54.4255C61.6668 53.609 61.8377 52.7925 62.0051 51.976C61.8734 51.9832 61.7452 51.9905 61.6134 51.9977C61.6846 51.6566 61.7559 51.3155 61.8235 50.9744C61.9552 50.9671 62.0835 50.9599 62.2152 50.949C62.2864 50.6006 62.3576 50.2523 62.4288 49.9039C62.824 49.8785 63.2156 49.8494 63.6107 49.8204C63.5399 50.1688 63.4685 50.5171 63.3976 50.8655C63.6215 50.8474 63.846 50.8329 64.0704 50.8147C63.999 51.1558 63.9282 51.5006 63.8601 51.8417C63.6357 51.8635 63.4118 51.878 63.1873 51.8961Z" fill="white"/>
<path d="M65.0427 48.6193C65.4378 48.5866 65.8294 48.554 66.2245 48.5177C66.0465 49.385 65.8686 50.2523 65.6906 51.1196C65.8935 50.9019 66.0857 50.7494 66.2636 50.666C66.4416 50.5825 66.6445 50.5281 66.8656 50.5099C67.2856 50.4736 67.5815 50.5644 67.7448 50.7893C67.9086 51.0144 67.9517 51.3301 67.8661 51.7437C67.713 52.4841 67.5634 53.2244 67.4103 53.9646C67.0153 54.001 66.6236 54.0372 66.2279 54.0699C66.3492 53.482 66.4705 52.8941 66.5913 52.3062C66.627 52.1284 66.6445 51.9869 66.6411 51.8816C66.6377 51.7764 66.6128 51.6966 66.5629 51.6421C66.4773 51.5551 66.3634 51.5188 66.2138 51.5333C66.0148 51.5514 65.847 51.6276 65.7155 51.7619C65.5834 51.8962 65.4944 52.0776 65.4446 52.3099C65.3165 52.9304 65.1884 53.5546 65.0603 54.1751C64.6652 54.2078 64.2735 54.2405 63.8784 54.2695C64.2661 52.3861 64.6544 50.5027 65.0427 48.6193Z" fill="white"/>
</g>
<defs>
<clipPath id="clip0_171_456">
<rect width="81" height="29" fill="white" transform="translate(6 32)"/>
</clipPath>
</defs>
</svg>
