<?xml version="1.0" encoding="utf-8"?>
<!-- Generator: Adobe Illustrator 27.4.1, SVG Export Plug-In . SVG Version: 6.00 Build 0)  -->
<svg version="1.1" id="Capa_1" xmlns="http://www.w3.org/2000/svg" xmlns:xlink="http://www.w3.org/1999/xlink" x="0px" y="0px"
	 viewBox="0 0 24 24" style="enable-background:new 0 0 24 24;" xml:space="preserve">
<style type="text/css">
	.st0{fill:#4687F1;}
</style>
<g>
	<path class="st0" d="M13.7,4.3v7c0,0.9-0.7,1.6-1.6,1.6H4.4c-0.5,0-0.8-0.4-0.8-0.8V6.7c0-1.7,1.4-3.1,3.1-3.1h6.3
		C13.3,3.5,13.7,3.9,13.7,4.3z"/>
	<path class="st0" d="M20.1,15c0.2,0,0.4,0.2,0.4,0.4v0.8c0,1.4-1.1,2.5-2.5,2.5c0-1.4-1.1-2.5-2.5-2.5c-1.4,0-2.5,1.1-2.5,2.5h-1.7
		c0-1.4-1.1-2.5-2.5-2.5s-2.5,1.1-2.5,2.5c-1.4,0-2.5-1.1-2.5-2.5v-1.7c0-0.5,0.4-0.8,0.8-0.8h8.1c1.2,0,2.1-0.9,2.1-2.1V6.9
		c0-0.5,0.4-0.8,0.8-0.8h0.7c0.6,0,1.2,0.3,1.5,0.9l0.5,0.9c0.1,0.1,0,0.3-0.2,0.3c-1.2,0-2.1,0.9-2.1,2.1v2.5
		c0,1.2,0.9,2.1,2.1,2.1H20.1z"/>
	<path class="st0" d="M8.6,20.5c0.9,0,1.7-0.8,1.7-1.7c0-0.9-0.8-1.7-1.7-1.7c-0.9,0-1.7,0.8-1.7,1.7C6.9,19.7,7.7,20.5,8.6,20.5z"
		/>
	<path class="st0" d="M15.4,20.5c0.9,0,1.7-0.8,1.7-1.7c0-0.9-0.8-1.7-1.7-1.7c-0.9,0-1.7,0.8-1.7,1.7
		C13.7,19.7,14.5,20.5,15.4,20.5z"/>
	<path class="st0" d="M20.5,12.4v1.2h-2.5c-0.5,0-0.8-0.4-0.8-0.8v-2.5c0-0.5,0.4-0.8,0.8-0.8H19l1.2,2.2
		C20.4,11.9,20.5,12.2,20.5,12.4z"/>
</g>
</svg>
