<?xml version="1.0" encoding="utf-8"?>
<!-- Generator: Adobe Illustrator 27.4.1, SVG Export Plug-In . SVG Version: 6.00 Build 0)  -->
<svg version="1.1" id="Capa_1" xmlns="http://www.w3.org/2000/svg" xmlns:xlink="http://www.w3.org/1999/xlink" x="0px" y="0px"
	 viewBox="0 0 24 24" style="enable-background:new 0 0 24 24;" xml:space="preserve">
<style type="text/css">
	.st0{fill:#4687F1;}
</style>
<g>
	<path class="st0" d="M16.1,6.2l-4.6-2.5c-0.5-0.3-1.1-0.3-1.5,0L5.5,6.2C5.1,6.4,4.9,6.7,4.9,7.1c0,0.4,0.2,0.8,0.5,0.9l4.6,2.5
		c0.2,0.1,0.5,0.2,0.8,0.2c0.3,0,0.5-0.1,0.8-0.2L16.1,8c0.3-0.2,0.5-0.5,0.5-0.9C16.7,6.7,16.5,6.4,16.1,6.2z"/>
	<path class="st0" d="M9.3,11.3L5,9.2c-0.3-0.2-0.7-0.1-1,0c-0.3,0.2-0.5,0.5-0.5,0.9v4c0,0.7,0.4,1.3,1,1.6l4.2,2.1
		C8.9,18,9.1,18,9.2,18c0.2,0,0.4-0.1,0.5-0.2c0.3-0.2,0.5-0.5,0.5-0.9v-4C10.3,12.3,9.9,11.7,9.3,11.3z"/>
	<path class="st0" d="M18.1,10.2v2C17.7,12,17.3,12,16.8,12c-1.1,0-2.2,0.4-3,1.1C12.7,14,12,15.3,12,16.8c0,0.4,0,0.8,0.2,1.2
		c-0.1,0-0.2-0.1-0.4-0.1c-0.3-0.2-0.5-0.5-0.5-0.9v-4c0-0.7,0.4-1.3,1-1.6l4.2-2.1c0.3-0.2,0.7-0.1,1,0
		C17.9,9.5,18.1,9.8,18.1,10.2z"/>
	<path class="st0" d="M19.7,14.5c-0.7-0.8-1.7-1.3-2.8-1.3c-0.9,0-1.6,0.3-2.3,0.8c-0.8,0.7-1.4,1.7-1.4,2.8c0,0.7,0.2,1.3,0.5,1.9
		c0.2,0.4,0.5,0.7,0.8,0.9h0c0.6,0.5,1.4,0.8,2.3,0.8c0.9,0,1.8-0.3,2.4-0.9c0.3-0.2,0.5-0.5,0.7-0.9c0.3-0.5,0.5-1.2,0.5-1.9
		C20.5,16,20.2,15.2,19.7,14.5z M18.7,16.4l-1.9,1.8c-0.1,0.1-0.3,0.2-0.4,0.2c-0.2,0-0.3-0.1-0.4-0.2L15,17.3
		c-0.2-0.2-0.2-0.6,0-0.9c0.2-0.2,0.6-0.2,0.9,0l0.5,0.5l1.5-1.4c0.2-0.2,0.6-0.2,0.9,0C18.9,15.8,18.9,16.2,18.7,16.4z"/>
</g>
</svg>
