<?xml version="1.0" encoding="utf-8"?>
<!-- Generator: Adobe Illustrator 27.5.0, SVG Export Plug-In . SVG Version: 6.00 Build 0)  -->
<svg version="1.1" id="Capa_1" xmlns="http://www.w3.org/2000/svg" xmlns:xlink="http://www.w3.org/1999/xlink" x="0px" y="0px"
	 viewBox="0 0 24 24" style="enable-background:new 0 0 24 24;" xml:space="preserve">
<style type="text/css">
	.st0{fill:#4687F1;}
</style>
<g>
	<path class="st0" d="M6.5,9.7l4.4,1.9c0.3,0.1,0.7,0.2,1.1,0.2c0.4,0,0.8-0.1,1.1-0.2l4.4-1.9c1.1-0.5,1.3-1.2,1.3-1.5
		s-0.2-1-1.3-1.5l-4.4-1.9c-0.6-0.3-1.6-0.3-2.3,0L6.5,6.7C5.4,7.2,5.2,7.9,5.2,8.2S5.4,9.3,6.5,9.7z"/>
	<path class="st0" d="M6.2,13.4l5,2.2c0.3,0.1,0.5,0.2,0.8,0.2s0.6-0.1,0.8-0.2l5-2.2c0.8-0.3,1.4-1.3,1.4-2.1
		c0-0.3-0.2-0.6-0.6-0.6c-0.3,0-0.6,0.2-0.6,0.6c0,0.4-0.3,0.9-0.7,1.1l-5,2.2c-0.2,0.1-0.5,0.1-0.8,0l-5-2.2
		c-0.4-0.2-0.7-0.7-0.7-1.1c0-0.3-0.2-0.6-0.6-0.6c-0.3,0-0.6,0.2-0.6,0.6C4.8,12.1,5.4,13,6.2,13.4z"/>
	<path class="st0" d="M18.7,14.4c-0.3,0-0.6,0.2-0.6,0.6c0,0.5-0.3,0.9-0.7,1.1l-5,2.2c-0.2,0.1-0.5,0.1-0.8,0l-5-2.2
		c-0.4-0.2-0.7-0.6-0.7-1.1c0-0.3-0.2-0.6-0.6-0.6c-0.3,0-0.6,0.2-0.6,0.6c0,0.9,0.5,1.7,1.4,2.1l5,2.2c0.3,0.1,0.5,0.2,0.8,0.2
		s0.6-0.1,0.8-0.2l5-2.2c0.8-0.4,1.4-1.2,1.4-2.1C19.2,14.6,19,14.4,18.7,14.4z"/>
</g>
</svg>
