<?xml version="1.0" encoding="utf-8"?>
<!-- Generator: Adobe Illustrator 27.4.1, SVG Export Plug-In . SVG Version: 6.00 Build 0)  -->
<svg version="1.1" id="Capa_1" xmlns="http://www.w3.org/2000/svg" xmlns:xlink="http://www.w3.org/1999/xlink" x="0px" y="0px"
	 viewBox="0 0 24 24" style="enable-background:new 0 0 24 24;" xml:space="preserve">
<style type="text/css">
	.st0{fill:#4687F1;}
</style>
<g>
	<path class="st0" d="M12,3.5c-2.2,0-4,1.8-4,4c0,2.2,1.7,3.9,3.9,4c0.1,0,0.1,0,0.2,0c0,0,0,0,0,0c0,0,0,0,0,0
		c2.2-0.1,3.9-1.8,3.9-4C16,5.3,14.2,3.5,12,3.5z"/>
	<path class="st0" d="M16.3,13.8c-2.4-1.6-6.2-1.6-8.6,0C6.6,14.5,6,15.5,6,16.6s0.6,2,1.7,2.7c1.2,0.8,2.7,1.2,4.3,1.2
		s3.1-0.4,4.3-1.2c1.1-0.7,1.7-1.7,1.7-2.7C18,15.5,17.4,14.5,16.3,13.8z M14,15.9L11.8,18c-0.1,0.1-0.2,0.2-0.4,0.2
		c-0.1,0-0.3-0.1-0.4-0.2L10,16.9c-0.2-0.2-0.2-0.5,0-0.7c0.2-0.2,0.5-0.2,0.7,0l0.7,0.7l1.8-1.8c0.2-0.2,0.5-0.2,0.7,0
		C14.2,15.3,14.2,15.7,14,15.9z"/>
</g>
</svg>
