<?xml version="1.0" encoding="utf-8"?>
<!-- Generator: Adobe Illustrator 27.4.1, SVG Export Plug-In . SVG Version: 6.00 Build 0)  -->
<svg version="1.1" id="Capa_1" xmlns="http://www.w3.org/2000/svg" xmlns:xlink="http://www.w3.org/1999/xlink" x="0px" y="0px"
	 viewBox="0 0 24 24" style="enable-background:new 0 0 24 24;" xml:space="preserve">
<style type="text/css">
	.st0{fill:#4687F1;}
</style>
<g>
	<path class="st0" d="M15.4,10.1H8.6c-0.6,0-1.1,0.5-1.1,1.1V12c0,0,0,0,0.1,0c0.1-0.1,0.2-0.1,0.3-0.1c0.1,0,0.1,0,0.2-0.1
		c0.2,0,0.3-0.1,0.5-0.1h6.8c0.2,0,0.3,0,0.5,0.1c0.1,0,0.1,0,0.2,0.1c0.1,0,0.2,0.1,0.3,0.1c0,0,0.1,0,0.1,0v-0.9
		C16.5,10.6,16,10.1,15.4,10.1z"/>
	<path class="st0" d="M15.4,13.1H8.6c-0.6,0-1.1,0.5-1.1,1.1v0.4h2.3c0.3,0,0.6,0.3,0.6,0.6c0,0.8,0.7,1.5,1.5,1.5
		c0.8,0,1.5-0.7,1.5-1.5c0-0.3,0.3-0.6,0.6-0.6h2.3v-0.4C16.5,13.5,16,13.1,15.4,13.1z"/>
	<path class="st0" d="M15.4,7.3H8.6C8,7.3,7.6,7.8,7.6,8.4v0.7c0.3-0.2,0.7-0.3,1.1-0.3h6.8c0.4,0,0.7,0.1,1.1,0.3V8.4
		C16.5,7.8,16,7.3,15.4,7.3z"/>
	<path class="st0" d="M15.6,3.5H8.5c-3.1,0-4.9,1.8-4.9,4.9v7.1c0,3.1,1.8,4.9,4.9,4.9h7.1c3.1,0,4.9-1.8,4.9-4.9V8.4
		C20.5,5.4,18.6,3.5,15.6,3.5z M17.9,15.8h-0.8h-2.4c-0.3,1.2-1.4,2.1-2.7,2.1S9.6,17,9.3,15.8H6.9H6.1c-0.3,0-0.6-0.3-0.6-0.6
		c0-0.3,0.3-0.6,0.6-0.6h0.2v-0.4v-0.4v-2.5V8.4c0-1.3,1-2.3,2.3-2.3h6.8c1.3,0,2.3,1,2.3,2.3v2.8v2.5v0.4v0.4h0.2
		c0.3,0,0.6,0.3,0.6,0.6C18.6,15.5,18.3,15.8,17.9,15.8z"/>
</g>
</svg>
