<svg width="140" height="41" viewBox="0 0 140 41" fill="none" xmlns="http://www.w3.org/2000/svg">
<rect x="0.387695" width="138.817" height="40.5477" rx="8" fill="white"/>
<path d="M21.8174 19.6676L10.6274 31.5438C10.6285 31.5459 10.6285 31.5491 10.6295 31.5512C10.9732 32.8407 12.1503 33.7898 13.5482 33.7898C14.1073 33.7898 14.6317 33.6385 15.0816 33.3736L15.1173 33.3526L27.7124 26.085L21.8174 19.6676Z" fill="#EA4335"/>
<path d="M33.1376 17.6452L33.1271 17.6378L27.6892 14.4859L21.563 19.9374L27.7113 26.0836L33.1197 22.9632C34.0677 22.4503 34.712 21.4508 34.712 20.2989C34.712 19.1534 34.0772 18.1591 33.1376 17.6452Z" fill="#FBBC04"/>
<path d="M10.6274 9.00314C10.5601 9.25117 10.5244 9.51182 10.5244 9.78087V30.7671C10.5244 31.0362 10.5601 31.2968 10.6285 31.5438L22.202 19.9713L10.6274 9.00314Z" fill="#4285F4"/>
<path d="M21.9004 20.2738L27.6914 14.4839L15.111 7.18997C14.6538 6.91566 14.1199 6.75801 13.5492 6.75801C12.1514 6.75801 10.9722 7.70916 10.6285 8.99978C10.6285 9.00083 10.6274 9.00188 10.6274 9.00293L21.9004 20.2738Z" fill="#34A853"/>
<path d="M51.1833 10.1137C51.1833 10.9462 50.9369 11.6088 50.4432 12.1036C49.8819 12.6917 49.1518 12.9857 48.2537 12.9857C47.3924 12.9857 46.6613 12.6877 46.0602 12.0906C45.4572 11.4946 45.1572 10.7545 45.1572 9.87234C45.1572 8.98919 45.4572 8.25008 46.0602 7.65304C46.6613 7.05698 47.3924 6.75797 48.2537 6.75797C48.6799 6.75797 49.0892 6.84141 49.4766 7.00831C49.865 7.1752 50.176 7.39673 50.4094 7.6739L49.8849 8.19842C49.4905 7.72754 48.9471 7.49111 48.2537 7.49111C47.6259 7.49111 47.0835 7.71165 46.6255 8.15273C46.1675 8.5948 45.939 9.16701 45.939 9.87234C45.939 10.5767 46.1675 11.1499 46.6255 11.591C47.0835 12.033 47.6259 12.2526 48.2537 12.2526C48.9193 12.2526 49.4736 12.031 49.9187 11.587C50.2068 11.2979 50.3727 10.8966 50.4174 10.38H48.2537V9.66372H51.1416C51.1694 9.81969 51.1833 9.96969 51.1833 10.1137Z" fill="black"/>
<path d="M51.1833 10.1137C51.1833 10.9462 50.9369 11.6088 50.4432 12.1036C49.8819 12.6917 49.1518 12.9857 48.2537 12.9857C47.3924 12.9857 46.6613 12.6877 46.0602 12.0906C45.4572 11.4946 45.1572 10.7545 45.1572 9.87234C45.1572 8.98919 45.4572 8.25008 46.0602 7.65304C46.6613 7.05698 47.3924 6.75797 48.2537 6.75797C48.6799 6.75797 49.0892 6.84141 49.4766 7.00831C49.865 7.1752 50.176 7.39673 50.4094 7.6739L49.8849 8.19842C49.4905 7.72754 48.9471 7.49111 48.2537 7.49111C47.6259 7.49111 47.0835 7.71165 46.6255 8.15273C46.1675 8.5948 45.939 9.16701 45.939 9.87234C45.939 10.5767 46.1675 11.1499 46.6255 11.591C47.0835 12.033 47.6259 12.2526 48.2537 12.2526C48.9193 12.2526 49.4736 12.031 49.9187 11.587C50.2068 11.2979 50.3727 10.8966 50.4174 10.38H48.2537V9.66372H51.1416C51.1694 9.81969 51.1833 9.96969 51.1833 10.1137Z" fill="black"/>
<path d="M55.7622 7.62441H53.0482V9.5139H55.4959V10.2302H53.0482V12.1196H55.7622V12.8528H52.2822V6.89226H55.7622V7.62441Z" fill="black"/>
<path d="M55.7622 7.62441H53.0482V9.5139H55.4959V10.2302H53.0482V12.1196H55.7622V12.8528H52.2822V6.89226H55.7622V7.62441Z" fill="black"/>
<path d="M58.9919 12.8525H58.226V7.62417H56.561V6.89202H60.6569V7.62417H58.9919V12.8525Z" fill="black"/>
<path d="M58.9919 12.8525H58.226V7.62417H56.561V6.89202H60.6569V7.62417H58.9919V12.8525Z" fill="black"/>
<path d="M63.6206 6.89202H64.3865V12.8525H63.6206V6.89202Z" fill="black"/>
<path d="M67.7834 12.8525H67.0175V7.62417H65.3525V6.89202H69.4484V7.62417H67.7834V12.8525Z" fill="black"/>
<path d="M67.7834 12.8525H67.0175V7.62417H65.3525V6.89202H69.4484V7.62417H67.7834V12.8525Z" fill="black"/>
<path d="M73.3971 11.583C73.8381 12.03 74.3776 12.2526 75.0163 12.2526C75.6551 12.2526 76.1945 12.03 76.6356 11.583C77.0767 11.136 77.2982 10.5657 77.2982 9.87234C77.2982 9.17893 77.0767 8.60771 76.6356 8.16167C76.1945 7.71463 75.6551 7.49111 75.0163 7.49111C74.3776 7.49111 73.8381 7.71463 73.3971 8.16167C72.957 8.60771 72.7354 9.17893 72.7354 9.87234C72.7354 10.5657 72.957 11.136 73.3971 11.583ZM77.2019 12.0817C76.6157 12.6847 75.8876 12.9857 75.0163 12.9857C74.1451 12.9857 73.4169 12.6847 72.8318 12.0817C72.2457 11.4797 71.9536 10.7436 71.9536 9.87234C71.9536 9.00111 72.2457 8.26399 72.8318 7.66198C73.4169 7.05997 74.1451 6.75797 75.0163 6.75797C75.8826 6.75797 76.6088 7.06096 77.1979 7.66595C77.786 8.27094 78.08 9.00608 78.08 9.87234C78.08 10.7436 77.787 11.4797 77.2019 12.0817Z" fill="black"/>
<path d="M73.3971 11.583C73.8381 12.03 74.3776 12.2526 75.0163 12.2526C75.6551 12.2526 76.1945 12.03 76.6356 11.583C77.0767 11.136 77.2982 10.5657 77.2982 9.87234C77.2982 9.17893 77.0767 8.60771 76.6356 8.16167C76.1945 7.71463 75.6551 7.49111 75.0163 7.49111C74.3776 7.49111 73.8381 7.71463 73.3971 8.16167C72.957 8.60771 72.7354 9.17893 72.7354 9.87234C72.7354 10.5657 72.957 11.136 73.3971 11.583ZM77.2019 12.0817C76.6157 12.6847 75.8876 12.9857 75.0163 12.9857C74.1451 12.9857 73.4169 12.6847 72.8318 12.0817C72.2457 11.4797 71.9536 10.7436 71.9536 9.87234C71.9536 9.00111 72.2457 8.26399 72.8318 7.66198C73.4169 7.05997 74.1451 6.75797 75.0163 6.75797C75.8826 6.75797 76.6088 7.06096 77.1979 7.66595C77.786 8.27094 78.08 9.00608 78.08 9.87234C78.08 10.7436 77.787 11.4797 77.2019 12.0817Z" fill="black"/>
<path d="M79.1553 12.8525V6.89202H80.0871L82.9839 11.5283H83.0177L82.9839 10.3799V6.89202H83.7508V12.8525H82.9511L79.9202 7.99074H79.8874L79.9202 9.14013V12.8525H79.1553Z" fill="black"/>
<path d="M79.1553 12.8525V6.89202H80.0871L82.9839 11.5283H83.0177L82.9839 10.3799V6.89202H83.7508V12.8525H82.9511L79.9202 7.99074H79.8874L79.9202 9.14013V12.8525H79.1553Z" fill="black"/>
<path d="M110.31 29.7406H112.163V17.3219H110.31V29.7406ZM127.006 21.7952L124.881 27.1796H124.817L122.612 21.7952H120.615L123.922 29.3204L122.038 33.5067H123.97L129.067 21.7952H127.006ZM116.494 28.33C115.886 28.33 115.039 28.027 115.039 27.2749C115.039 26.3173 116.093 25.9497 117.004 25.9497C117.819 25.9497 118.203 26.1256 118.698 26.365C118.554 27.5154 117.564 28.33 116.494 28.33ZM116.717 21.524C115.375 21.524 113.984 22.1151 113.41 23.4254L115.055 24.1119C115.407 23.4254 116.061 23.2009 116.749 23.2009C117.708 23.2009 118.682 23.7761 118.698 24.7993V24.9265C118.362 24.7348 117.644 24.4477 116.765 24.4477C114.992 24.4477 113.186 25.4222 113.186 27.2432C113.186 28.9051 114.64 29.9761 116.269 29.9761C117.516 29.9761 118.203 29.4168 118.634 28.7611H118.698V29.7198H120.487V24.9583C120.487 22.7539 118.842 21.524 116.717 21.524M105.261 23.3072H102.624V19.0504H105.261C106.647 19.0504 107.434 20.1978 107.434 21.1783C107.434 22.1409 106.647 23.3072 105.261 23.3072ZM105.213 17.3219H100.772V29.7406H102.624V25.0358H105.213C107.268 25.0358 109.287 23.5476 109.287 21.1783C109.287 18.809 107.268 17.3219 105.213 17.3219M80.9927 28.3319C79.7122 28.3319 78.6403 27.26 78.6403 25.7878C78.6403 24.2997 79.7122 23.2109 80.9927 23.2109C82.2574 23.2109 83.2488 24.2997 83.2488 25.7878C83.2488 27.26 82.2574 28.3319 80.9927 28.3319ZM83.1216 22.4906H83.0571C82.6408 21.9949 81.8411 21.5469 80.8328 21.5469C78.7198 21.5469 76.7836 23.4026 76.7836 25.7878C76.7836 28.1561 78.7198 29.9969 80.8328 29.9969C81.8411 29.9969 82.6408 29.5489 83.0571 29.0363H83.1216V29.6452C83.1216 31.2615 82.2574 32.1258 80.8646 32.1258C79.7281 32.1258 79.0238 31.3092 78.7357 30.6208L77.1194 31.2933C77.5833 32.4139 78.8161 33.7898 80.8646 33.7898C83.0412 33.7898 84.882 32.5093 84.882 29.3889V21.8022H83.1216V22.4906ZM86.1625 29.7406H88.0192V17.3209H86.1625V29.7406ZM90.7551 25.6437C90.7074 24.0116 92.0197 23.1791 92.9634 23.1791C93.7006 23.1791 94.3244 23.5466 94.5321 24.0751L90.7551 25.6437ZM96.5169 24.2351C96.1652 23.2913 95.0923 21.5469 92.8999 21.5469C90.7233 21.5469 88.9153 23.2585 88.9153 25.7719C88.9153 28.1402 90.7074 29.9969 93.1075 29.9969C95.0447 29.9969 96.1652 28.8128 96.6292 28.1243L95.1887 27.1637C94.7089 27.868 94.0522 28.3319 93.1075 28.3319C92.1637 28.3319 91.4912 27.8998 91.0591 27.0524L96.7086 24.7149L96.5169 24.2351ZM51.507 22.8433V24.6354H55.7956C55.6675 25.6437 55.3317 26.3799 54.8201 26.8915C54.1952 27.5163 53.2187 28.2048 51.507 28.2048C48.8655 28.2048 46.8012 26.0759 46.8012 23.4354C46.8012 20.7939 48.8655 18.666 51.507 18.666C52.9316 18.666 53.9717 19.2263 54.7396 19.9465L56.0042 18.6819C54.9313 17.6576 53.5078 16.8728 51.507 16.8728C47.89 16.8728 44.8491 19.8183 44.8491 23.4354C44.8491 27.0524 47.89 29.9969 51.507 29.9969C53.4591 29.9969 54.9313 29.3562 56.0837 28.1561C57.2689 26.972 57.6364 25.308 57.6364 23.9629C57.6364 23.5466 57.6046 23.1632 57.5401 22.8433H51.507ZM62.5131 28.3319C61.2326 28.3319 60.1279 27.2759 60.1279 25.7719C60.1279 24.251 61.2326 23.2109 62.5131 23.2109C63.7927 23.2109 64.8973 24.251 64.8973 25.7719C64.8973 27.2759 63.7927 28.3319 62.5131 28.3319ZM62.5131 21.5469C60.1756 21.5469 58.2712 23.3231 58.2712 25.7719C58.2712 28.2048 60.1756 29.9969 62.5131 29.9969C64.8497 29.9969 66.754 28.2048 66.754 25.7719C66.754 23.3231 64.8497 21.5469 62.5131 21.5469ZM71.7649 28.3319C70.4843 28.3319 69.3796 27.2759 69.3796 25.7719C69.3796 24.251 70.4843 23.2109 71.7649 23.2109C73.0454 23.2109 74.1491 24.251 74.1491 25.7719C74.1491 27.2759 73.0454 28.3319 71.7649 28.3319ZM71.7649 21.5469C69.4283 21.5469 67.5239 23.3231 67.5239 25.7719C67.5239 28.2048 69.4283 29.9969 71.7649 29.9969C74.1014 29.9969 76.0058 28.2048 76.0058 25.7719C76.0058 23.3231 74.1014 21.5469 71.7649 21.5469Z" fill="black"/>
</svg>
