<svg width="110" height="110" viewBox="0 0 110 110" fill="none" xmlns="http://www.w3.org/2000/svg">
<rect width="110" height="110" rx="55" fill="#4687F1" fill-opacity="0.1"/>
<path fill-rule="evenodd" clip-rule="evenodd" d="M26.1861 44.8924C26.1861 36.9085 32.6158 30.4698 40.5193 30.4698C45.1757 30.4698 49.3526 32.7334 51.9603 36.2189C52.3823 36.7829 53.0455 37.115 53.7499 37.115C54.4542 37.115 55.1174 36.7829 55.5394 36.2189C58.1471 32.7334 62.324 30.4698 66.9804 30.4698C74.8839 30.4698 81.3136 36.9084 81.3136 44.8924C81.3136 49.2768 80.4058 53.2495 78.8962 56.8224C76.9311 55.4077 74.6431 54.4135 72.1644 53.9719C71.2164 53.8017 70.2409 53.7128 69.2451 53.7128C60.1142 53.7128 52.7069 61.1201 52.7069 70.251C52.7069 73.3909 53.5951 76.3195 55.1127 78.8123C55.0375 78.8386 54.9635 78.8639 54.8906 78.8881L54.8905 78.8878L54.8535 78.9009C54.6606 78.969 54.2605 79.0416 53.7499 79.0416C53.2392 79.0416 52.8391 78.969 52.6462 78.9009L52.6462 78.9008L52.6244 78.8933C48.6243 77.5278 41.9401 73.8989 36.2856 68.1052C30.6579 62.3392 26.1861 54.5785 26.1861 44.8924ZM58.0989 82.45C57.4812 82.707 56.8859 82.9341 56.3209 83.123C55.5055 83.4071 54.5733 83.5114 53.7499 83.5114C52.9236 83.5114 51.9877 83.4063 51.1703 83.12C46.5283 81.5331 39.2429 77.5348 33.0868 71.2272C26.8992 64.8876 21.7163 56.0654 21.7163 44.8924C21.7163 34.4608 30.1263 26 40.5193 26C45.6695 26 50.359 28.1039 53.7499 31.4804C57.1407 28.1039 61.8302 26 66.9804 26C77.3734 26 85.7834 34.4608 85.7834 44.8924C85.7834 50.5717 84.4492 55.6524 82.3134 60.117C84.489 62.9171 85.7847 66.4345 85.7847 70.2533C85.7847 73.3442 84.9274 76.2806 83.3711 78.7787C80.5109 83.5538 75.2761 86.7916 69.2464 86.7916C64.9424 86.7916 61.0211 85.1408 58.0989 82.45ZM71.6454 58.4236C70.87 58.267 70.0678 58.1849 69.2464 58.1849C62.5841 58.1849 57.178 63.591 57.178 70.2533C57.178 72.502 57.8275 74.6343 58.936 76.4482L58.9541 76.4779L58.9539 76.478C61.0083 79.9605 64.8475 82.3218 69.2464 82.3218C73.6381 82.3218 77.4561 79.9662 79.545 76.4678L79.5687 76.4291C80.6866 74.6404 81.3149 72.5182 81.3149 70.2533C81.3149 67.1157 80.1158 64.2566 78.1512 62.1097C78.1065 62.0695 78.0632 62.0274 78.0215 61.9834C76.3304 60.1962 74.1205 58.9276 71.6454 58.4236ZM76.461 65.2196C77.2976 66.1271 77.2402 67.541 76.3326 68.3776L68.7042 75.4101C67.8226 76.2227 66.4569 76.195 65.6091 75.3472L62.0928 71.831C61.22 70.9582 61.22 69.5431 62.0928 68.6703C62.9656 67.7975 64.3807 67.7975 65.2534 68.6703L67.2523 70.6692L73.303 65.0912C74.2105 64.2546 75.6244 64.3121 76.461 65.2196Z" fill="#4687F1"/>
</svg>
