<svg width="110" height="110" viewBox="0 0 110 110" fill="none" xmlns="http://www.w3.org/2000/svg">
<rect width="110" height="110" rx="55" fill="#4687F1" fill-opacity="0.1"/>
<path fill-rule="evenodd" clip-rule="evenodd" d="M59.9643 82.3665C59.9184 82.3665 59.8728 82.3649 59.8276 82.3618H43.6324C43.6272 82.3619 43.622 82.3619 43.6168 82.3619C43.6116 82.3619 43.6064 82.3619 43.6012 82.3618H27.1081C27.0629 82.3649 27.0174 82.3665 26.9714 82.3665C26.9255 82.3665 26.88 82.3649 26.8347 82.3618H24.0266C22.9187 82.3618 22 81.4431 22 80.3353C22 79.2274 22.9187 78.3087 24.0266 78.3087H24.9449V37.1871C24.9449 30.6209 28.5387 27 35.0778 27H51.912C58.4241 27 61.9909 30.6209 61.9909 37.1871V78.3087H72.7492V70.0619C69.3525 69.149 66.8542 66.0495 66.8542 62.3634V56.2295C66.8542 51.8251 70.421 48.2583 74.8255 48.2583C79.2299 48.2583 82.7967 51.8251 82.7967 56.2295V62.3634C82.7967 66.0854 80.2497 69.2092 76.8024 70.0879V78.3087H83.4734C84.5813 78.3087 85.5 79.2274 85.5 80.3353C85.5 81.4431 84.5813 82.3618 83.4734 82.3618H75.1228C75.0103 82.3811 74.8944 82.3911 74.7758 82.3911C74.6601 82.3911 74.5465 82.3811 74.4357 82.3618H60.101C60.0558 82.3649 60.0102 82.3665 59.9643 82.3665ZM45.6434 78.3087V70.2023C45.6434 69.0945 44.7247 68.1757 43.6168 68.1757C42.5089 68.1757 41.5902 69.0945 41.5902 70.2023V78.3087H28.998V37.1871C28.998 32.8907 30.8355 31.0532 35.0778 31.0532H51.912C56.1273 31.0532 57.9377 32.8907 57.9377 37.1871V78.3087H45.6434ZM75.033 66.3031C77.0985 66.1949 78.7435 64.4825 78.7435 62.3904V56.2566C78.7435 54.0949 76.9872 52.3385 74.8255 52.3385C72.6638 52.3385 70.9074 54.0949 70.9074 56.2566V62.3904C70.9074 64.4601 72.5174 66.1582 74.5517 66.299C74.6254 66.2907 74.7002 66.2864 74.7758 66.2864C74.8628 66.2864 74.9487 66.2921 75.033 66.3031ZM36.9988 45.2078H50.3744C51.4823 45.2078 52.401 44.2891 52.401 43.1812C52.401 42.0734 51.4823 41.1546 50.3744 41.1546H36.9988C35.891 41.1546 34.9722 42.0734 34.9722 43.1812C34.9722 44.2891 35.891 45.2078 36.9988 45.2078ZM50.3744 55.3407H36.9988C35.891 55.3407 34.9722 54.422 34.9722 53.3141C34.9722 52.2063 35.891 51.2875 36.9988 51.2875H50.3744C51.4823 51.2875 52.401 52.2063 52.401 53.3141C52.401 54.422 51.4823 55.3407 50.3744 55.3407Z" fill="#4687F1"/>
</svg>
