<?xml version="1.0" encoding="utf-8"?>
<!-- Generator: Adobe Illustrator 27.3.1, SVG Export Plug-In . SVG Version: 6.00 Build 0)  -->
<svg version="1.1" id="Capa_1" xmlns="http://www.w3.org/2000/svg" xmlns:xlink="http://www.w3.org/1999/xlink" x="0px" y="0px"
	 viewBox="0 0 110 110" style="enable-background:new 0 0 110 110;" xml:space="preserve">
<style type="text/css">
	.st0{fill:#4687F1;}
	.st1{fill:#4687F1;fill-opacity:0.1;}
</style>
<path class="st0" d="M45.7,29.3L45.7,29.3c0-1.3-1-2.3-2.3-2.3h-14C28,27,27,28,27,29.3v14c0,1.3,1,2.3,2.3,2.3h0.2
	C38.4,45.7,45.7,38.4,45.7,29.3L45.7,29.3z M31.7,31.7h9.1c-0.9,4.6-4.5,8.2-9.1,9.1L31.7,31.7L31.7,31.7z"/>
<path class="st0" d="M29.3,50.3L29.3,50.3c1.3,0,2.3,1,2.3,2.3v0c0,1.3-1,2.3-2.3,2.3h0C28,55,27,54,27,52.7v0
	C27,51.4,28,50.3,29.3,50.3L29.3,50.3z"/>
<path class="st0" d="M44.2,44.2L44.2,44.2c0.9-0.9,2.4-0.9,3.3,0l0,0c0.9,0.9,0.9,2.4,0,3.3l0,0c-0.9,0.9-2.4,0.9-3.3,0l0,0
	C43.3,46.6,43.3,45.1,44.2,44.2z"/>
<path class="st0" d="M52.7,27c1.3,0,2.3,1,2.3,2.3v0c0,1.3-1,2.3-2.3,2.3s-2.3-1-2.3-2.3v0C50.4,28,51.4,27,52.7,27z"/>
<path class="st0" d="M55,83h25.7c1.3,0,2.3-1,2.3-2.3v0c0-1.3-1-2.3-2.3-2.3H76v-20l6.3-6.3c0.9-0.9,0.9-2.4,0-3.3l0,0
	c-0.9-0.9-2.4-0.9-3.3,0l-14,14c-0.9,0.9-0.9,2.4,0,3.3l0,0c0.9,0.9,2.4,0.9,3.3,0l3-3v15.4H55v-20l6.3-6.3c0.9-0.9,0.9-2.4,0-3.3
	l0,0c-0.9-0.9-2.4-0.9-3.3,0l-14,14c-0.9,0.9-0.9,2.4,0,3.3l0,0c0.9,0.9,2.4,0.9,3.3,0l3-3v15.4h-21c-1.3,0-2.3,1-2.3,2.3v0
	c0,1.3,1,2.3,2.3,2.3H55L55,83z"/>
<path class="st1" d="M55,0L55,0c30.4,0,55,24.6,55,55l0,0c0,30.4-24.6,55-55,55l0,0C24.6,110,0,85.4,0,55l0,0C0,24.6,24.6,0,55,0z"
	/>
</svg>
