<svg width="110" height="110" viewBox="0 0 110 110" fill="none" xmlns="http://www.w3.org/2000/svg">
<rect width="110" height="110" rx="55" fill="#4687F1" fill-opacity="0.1"/>
<path d="M78.09 29.4454C77.65 29 76.88 28.8887 76.33 29.1113C75.78 29.334 75.34 30.0021 75.34 30.6702V79.3298C75.34 80.2206 76.11 81 76.99 81C77.87 81 78.64 80.2206 78.64 79.3298V61.5139H85.35C86.23 61.5139 87 60.7345 87 59.8437V49.5996C87 42.0278 83.812 34.5675 78.09 29.4454ZM83.7 58.2848H78.64V35.0128C81.83 39.1328 83.702 44.3662 83.702 49.7109V58.2848H83.7ZM31.67 53.9422V79.3298C31.67 80.2206 30.9 81 30.02 81C29.14 81 28.37 80.2206 28.37 79.3298V53.9422C24.19 53.1627 21 49.4882 21 45.0343V33.1199C21 32.2291 21.77 31.4497 22.65 31.4497C23.53 31.4497 24.3 32.2291 24.3 33.1199V45.0343C24.3 48.2634 26.83 50.8244 30.02 50.8244C33.21 50.8244 35.74 48.2634 35.74 45.0343V33.1199C35.74 32.2291 36.51 31.4497 37.388 31.4497C38.2661 31.4497 39.038 32.2291 39.038 33.1199V45.0343C39.038 49.4882 35.85 53.1627 31.668 53.9422H31.67ZM25.84 43.8094V33.1199C25.84 32.2291 26.61 31.4497 27.49 31.4497C28.37 31.4497 29.14 32.2291 29.14 33.1199V43.8094C29.14 44.7002 28.37 45.4797 27.49 45.4797C26.61 45.4797 25.84 44.7002 25.84 43.8094ZM30.79 43.8094V33.1199C30.79 32.2291 31.56 31.4497 32.44 31.4497C33.32 31.4497 34.09 32.2291 34.09 33.1199V43.8094C34.09 44.7002 33.32 45.4797 32.44 45.4797C31.56 45.4797 30.79 44.7002 30.79 43.8094ZM56.09 37.5739C46.63 37.5739 38.82 45.3683 38.82 55.0557C38.82 64.743 46.52 72.5375 56.09 72.5375C65.66 72.5375 73.36 64.743 73.36 55.0557C73.36 45.3683 65.55 37.5739 56.09 37.5739ZM56.09 69.197C48.39 69.197 42.12 62.8501 42.12 55.0557C42.12 47.2612 48.39 40.9143 56.09 40.9143C63.79 40.9143 70.06 47.2612 70.06 55.0557C70.06 62.8501 63.79 69.197 56.09 69.197ZM56.09 44.7002C50.48 44.7002 45.86 49.3769 45.86 55.0557C45.86 60.7345 50.48 65.4111 56.09 65.4111C61.7 65.4111 66.32 60.7345 66.32 55.0557C66.32 49.3769 61.7 44.7002 56.09 44.7002ZM56.09 62.0707C52.24 62.0707 49.16 58.9529 49.16 55.0557C49.16 51.1585 52.24 48.0407 56.09 48.0407C59.94 48.0407 63.02 51.1585 63.02 55.0557C63.02 58.9529 59.94 62.0707 56.09 62.0707Z" fill="#4687F1"/>
</svg>
