<svg width="28" height="28" viewBox="0 0 28 28" fill="none" xmlns="http://www.w3.org/2000/svg">
<rect width="28" height="28" rx="10" fill="white" fill-opacity="0.25"/>
<path d="M14.0018 9.8978C11.7316 9.8978 9.9005 11.7293 9.9005 14C9.9005 16.2707 11.7316 18.1022 14.0018 18.1022C16.2719 18.1022 18.1031 16.2707 18.1031 14C18.1031 11.7293 16.2719 9.8978 14.0018 9.8978ZM14.0018 16.667C12.5347 16.667 11.3354 15.4709 11.3354 14C11.3354 12.5291 12.5312 11.333 14.0018 11.333C15.4724 11.333 16.6682 12.5291 16.6682 14C16.6682 15.4709 15.4688 16.667 14.0018 16.667ZM19.2274 9.73C19.2274 10.262 18.7991 10.6868 18.2708 10.6868C17.739 10.6868 17.3142 10.2584 17.3142 9.73C17.3142 9.20161 17.7426 8.77318 18.2708 8.77318C18.7991 8.77318 19.2274 9.20161 19.2274 9.73ZM21.9438 10.7011C21.8831 9.41939 21.5904 8.28406 20.6516 7.34866C19.7165 6.41325 18.5814 6.1205 17.2999 6.05623C15.9793 5.98126 12.0207 5.98126 10.7001 6.05623C9.4222 6.11693 8.28712 6.40968 7.34835 7.34509C6.40959 8.28049 6.12047 9.41582 6.05622 10.6975C5.98126 12.0185 5.98126 15.9779 6.05622 17.2989C6.1169 18.5806 6.40959 19.7159 7.34835 20.6513C8.28712 21.5867 9.41863 21.8795 10.7001 21.9438C12.0207 22.0187 15.9793 22.0187 17.2999 21.9438C18.5814 21.8831 19.7165 21.5903 20.6516 20.6513C21.5868 19.7159 21.8795 18.5806 21.9438 17.2989C22.0187 15.9779 22.0187 12.0221 21.9438 10.7011ZM20.2376 18.7163C19.9592 19.416 19.4202 19.9551 18.717 20.2372C17.664 20.6549 15.1654 20.5585 14.0018 20.5585C12.8381 20.5585 10.336 20.6513 9.28656 20.2372C8.58695 19.9587 8.04796 19.4196 7.76598 18.7163C7.34835 17.6631 7.44473 15.1639 7.44473 14C7.44473 12.8361 7.35192 10.3334 7.76598 9.28372C8.0444 8.58396 8.58338 8.04485 9.28656 7.7628C10.3395 7.34509 12.8381 7.44148 14.0018 7.44148C15.1654 7.44148 17.6676 7.34866 18.717 7.7628C19.4166 8.04128 19.9556 8.58039 20.2376 9.28372C20.6552 10.3369 20.5588 12.8361 20.5588 14C20.5588 15.1639 20.6552 17.6666 20.2376 18.7163Z" fill="white"/>
</svg>
