<svg width="110" height="110" viewBox="0 0 110 110" fill="none" xmlns="http://www.w3.org/2000/svg">
<rect width="110" height="110" rx="55" fill="#4687F1" fill-opacity="0.1"/>
<path d="M68.5484 27.0042C68.0125 27.0599 67.5153 27.3136 67.1554 27.7162C66.7955 28.1188 66.5974 28.6393 66.6 29.1791V53.7139L49.5625 43.9722C48.8893 43.5839 48.062 43.5839 47.3888 43.9722C46.7156 44.3606 46.3013 45.0765 46.3 45.8533V53.7139L29.2625 43.9722C28.5893 43.5839 27.762 43.5839 27.0888 43.9722C26.4156 44.3593 26 45.0752 26 45.852V82.8251C26 83.4025 26.2292 83.9553 26.637 84.3631C27.0448 84.7709 27.5976 85 28.175 85H81.825C82.4024 85 82.9552 84.7709 83.363 84.3631C83.7708 83.9553 84 83.4025 84 82.8251V29.1778C84 28.6004 83.7708 28.0476 83.363 27.6398C82.9552 27.2321 82.4024 27.0029 81.825 27.0029H68.775C68.6999 26.999 68.6248 26.999 68.5484 27.0029V27.0042ZM70.95 31.354H79.65V80.6515H30.35V49.592L47.3875 59.3337C48.0607 59.7221 48.888 59.7221 49.5612 59.3337C50.2344 58.9453 50.6487 58.2294 50.65 57.4527V49.592L67.6875 59.3337C68.3607 59.7221 69.188 59.7221 69.8612 59.3337C70.5344 58.9453 70.9487 58.2294 70.95 57.4527V31.354V31.354ZM38.0984 62.5274C37.5625 62.5844 37.0653 62.8368 36.7054 63.2394C36.3455 63.6421 36.1474 64.1625 36.15 64.7023V74.8518C36.15 75.4279 36.3792 75.982 36.787 76.3898C37.1948 76.7976 37.7489 77.0267 38.325 77.0267H48.475C49.0511 77.0267 49.6052 76.7976 50.013 76.3898C50.4208 75.982 50.65 75.4279 50.65 74.8518V64.7023C50.65 64.1262 50.4208 63.5721 50.013 63.1644C49.6052 62.7566 49.0511 62.5274 48.475 62.5274H38.325C38.2499 62.5235 38.1735 62.5235 38.0984 62.5274ZM58.3984 62.5274C57.8625 62.5844 57.3653 62.8368 57.0054 63.2394C56.6455 63.6421 56.4474 64.1625 56.45 64.7023V74.8518C56.45 75.4279 56.6792 75.982 57.087 76.3898C57.4948 76.7976 58.0476 77.0267 58.625 77.0267H68.775C69.3524 77.0267 69.9052 76.7976 70.313 76.3898C70.7208 75.982 70.95 75.4279 70.95 74.8518V64.7023C70.95 64.1262 70.7208 63.5721 70.313 63.1644C69.9052 62.7566 69.3524 62.5274 68.775 62.5274H58.625C58.5499 62.5235 58.4735 62.5235 58.3984 62.5274V62.5274ZM40.5 66.8772H46.3V72.6769H40.5V66.8772V66.8772ZM60.8 66.8772H66.6V72.6769H60.8V66.8772Z" fill="#4687F1"/>
</svg>
