<?xml version="1.0" encoding="utf-8"?>
<!-- Generator: Adobe Illustrator 27.0.0, SVG Export Plug-In . SVG Version: 6.00 Build 0)  -->
<svg version="1.1" id="Capa_1" xmlns="http://www.w3.org/2000/svg" xmlns:xlink="http://www.w3.org/1999/xlink" x="0px" y="0px"
	 viewBox="0 0 24 24" style="enable-background:new 0 0 24 24;" xml:space="preserve">
<style type="text/css">
	.st0{fill:#0B4199;}
</style>
<g>
	<path class="st0" d="M12,14.3c1.2,0,2.3-1,2.3-2.3c0-1.2-1-2.3-2.3-2.3c-1.2,0-2.3,1-2.3,2.3C9.8,13.2,10.8,14.3,12,14.3z"/>
	<path class="st0" d="M5.4,13.4c0.8,0,1.4-0.6,1.4-1.4c0-0.8-0.6-1.4-1.4-1.4C4.6,10.6,4,11.2,4,12C4,12.8,4.6,13.4,5.4,13.4z"/>
	<path class="st0" d="M18.6,13.4c0.8,0,1.4-0.6,1.4-1.4c0-0.8-0.6-1.4-1.4-1.4c-0.8,0-1.4,0.6-1.4,1.4
		C17.1,12.8,17.8,13.4,18.6,13.4z"/>
	<path class="st0" d="M12,6.9c0.8,0,1.4-0.6,1.4-1.4C13.5,4.6,12.8,4,12,4c-0.8,0-1.4,0.6-1.4,1.4C10.6,6.2,11.2,6.9,12,6.9z"/>
	<path class="st0" d="M12,20c0.8,0,1.4-0.6,1.4-1.4c0-0.8-0.6-1.4-1.4-1.4c-0.8,0-1.4,0.6-1.4,1.4C10.6,19.4,11.2,20,12,20z"/>
	<path class="st0" d="M8.8,16.2c0.5,0,1-0.4,1-1c0-0.5-0.4-1-1-1c-0.5,0-1,0.4-1,1C7.8,15.7,8.3,16.2,8.8,16.2z"/>
	<path class="st0" d="M15.2,9.8c0.5,0,1-0.4,1-1s-0.4-1-1-1c-0.5,0-1,0.4-1,1S14.6,9.8,15.2,9.8z"/>
	<path class="st0" d="M8.8,9.8c0.5,0,1-0.4,1-1s-0.4-1-1-1c-0.5,0-1,0.4-1,1S8.3,9.8,8.8,9.8z"/>
	<path class="st0" d="M15.2,16.2c0.5,0,1-0.4,1-1c0-0.5-0.4-1-1-1c-0.5,0-1,0.4-1,1C14.2,15.7,14.6,16.2,15.2,16.2z"/>
</g>
</svg>
