<svg width="28" height="28" viewBox="0 0 28 28" fill="none" xmlns="http://www.w3.org/2000/svg">
<rect width="28" height="28" rx="10" fill="white" fill-opacity="0.25"/>
<path d="M9.58143 22H6.26429V11.3176H9.58143V22ZM7.92107 9.86044C6.86036 9.86044 6 8.98185 6 7.92111C6 7.4116 6.2024 6.92296 6.56267 6.56268C6.92294 6.2024 7.41157 6 7.92107 6C8.43057 6 8.9192 6.2024 9.27947 6.56268C9.63974 6.92296 9.84214 7.4116 9.84214 7.92111C9.84214 8.98185 8.98143 9.86044 7.92107 9.86044ZM21.9964 22H18.6864V16.7999C18.6864 15.5606 18.6614 13.9712 16.9618 13.9712C15.2371 13.9712 14.9729 15.3177 14.9729 16.7106V22H11.6593V11.3176H14.8407V12.7748H14.8871C15.33 11.9355 16.4118 11.0498 18.0257 11.0498C21.3829 11.0498 22 13.2605 22 16.132V22H21.9964Z" fill="white"/>
</svg>
