<?xml version="1.0" encoding="utf-8"?>
<!-- Generator: Adobe Illustrator 28.0.0, SVG Export Plug-In . SVG Version: 6.00 Build 0)  -->
<svg version="1.1" id="Layer_1" xmlns="http://www.w3.org/2000/svg" xmlns:xlink="http://www.w3.org/1999/xlink" x="0px" y="0px"
	 viewBox="0 0 24 24" style="enable-background:new 0 0 24 24;" xml:space="preserve">
<style type="text/css">
	.st0{fill:#4687F1;}
	.st1{opacity:0.4;enable-background:new    ;}
</style>
<g>
	<g>
		<path class="st0" d="M6.9,13.6l1.5-4.1l1.5,4.1H6.9z M12.7,16.5L9.2,7C9.1,6.7,8.8,6.5,8.5,6.5S7.8,6.7,7.7,7l-3.5,9.5
			c-0.2,0.4,0.1,0.9,0.5,1c0.4,0.2,0.9-0.1,1-0.5l0.7-1.9h4.2l0.7,1.9c0.1,0.3,0.4,0.5,0.7,0.5c0.1,0,0.2,0,0.3-0.1
			C12.7,17.3,12.9,16.9,12.7,16.5z"/>
		<g class="st1">
			<path class="st0" d="M18.3,14.4c0,0.9-0.7,1.6-1.6,1.6c-0.9,0-1.6-0.7-1.6-1.6v-1.6c0-0.9,0.7-1.6,1.6-1.6c0.9,0,1.6,0.7,1.6,1.6
				V14.4z M19.1,9.6c-0.3,0-0.6,0.2-0.7,0.5c-0.5-0.3-1-0.5-1.6-0.5c-1.7,0-3.2,1.4-3.2,3.2l0,1.6c0,1.7,1.4,3.2,3.1,3.2
				c0.6,0,1.2-0.2,1.6-0.5c0.1,0.3,0.4,0.5,0.7,0.5c0.4,0,0.8-0.4,0.8-0.8v-6.3C19.9,10,19.5,9.6,19.1,9.6z"/>
		</g>
	</g>
</g>
</svg>
