<svg width="110" height="110" viewBox="0 0 110 110" fill="none" xmlns="http://www.w3.org/2000/svg">
<rect width="110" height="110" rx="55" fill="#4687F1" fill-opacity="0.1"/>
<path fill-rule="evenodd" clip-rule="evenodd" d="M67.0162 34.0166C67.8452 30.0827 65.2937 25.9963 61.5636 24.7301C59.7542 24.0643 57.839 24.2133 56.2436 24.7618C54.6533 25.3084 53.1317 26.3371 52.1885 27.7494L52.1858 27.7535L43.1232 41.2368C42.7888 40.161 42.2379 39.193 41.3812 38.4021C39.7445 36.8913 37.4882 36.499 35.1775 36.499H32.127C29.8164 36.499 27.56 36.8913 25.9233 38.4021C24.2416 39.9545 23.7383 42.1896 23.7383 44.5827V74.4771C23.7383 76.8702 24.2416 79.1053 25.9233 80.6576C27.56 82.1685 29.8164 82.5608 32.127 82.5608H35.1775C37.4882 82.5608 39.7445 82.1685 41.3812 80.6576C42.0814 80.0113 42.5773 79.2467 42.9177 78.4015L49.5399 83.5284C50.5477 84.4752 51.918 85.0362 53.0796 85.368C54.3434 85.7292 55.6987 85.9137 56.8348 85.9137H68.4266C70.8052 85.9137 73.176 85.0334 75.0777 83.6419C76.9586 82.2656 78.5374 80.2718 79.1653 77.8611L86.4538 55.6919C87.4295 52.9339 87.0851 50.1504 85.5207 48.0272C83.9615 45.9112 81.3999 44.7324 78.4931 44.7324H66.2912C66.0172 44.7324 65.8084 44.6216 65.6808 44.477C65.5707 44.3523 65.4463 44.1187 65.504 43.6951L67.0162 34.0166ZM43.5663 73.1169L52.5542 80.0752L52.6567 80.1778C52.86 80.3811 53.4091 80.7034 54.3366 80.9684C55.2081 81.2174 56.1406 81.338 56.8348 81.338H68.4266C69.7085 81.338 71.1507 80.8455 72.3757 79.9492C73.5991 79.054 74.4455 77.8761 74.7483 76.665L74.7685 76.5843L82.1246 54.2094L82.1344 54.182C82.6712 52.6789 82.4024 51.5089 81.837 50.7415C81.2608 49.9595 80.1619 49.3081 78.4931 49.3081H66.2912C63.1086 49.3081 60.4684 46.5889 60.9759 43.0361L60.9802 43.0065L62.5168 33.173L62.5326 33.1019C62.8702 31.5827 61.7914 29.6291 60.0769 29.0576L60.0368 29.0443L59.9971 29.0294C59.3779 28.7972 58.5642 28.8025 57.7311 29.0889C56.8825 29.3806 56.2702 29.8757 55.993 30.2916L55.9882 30.2988L43.5663 48.7801V73.1169ZM28.314 44.5827C28.314 42.7052 28.7258 42.0423 29.0269 41.7644C29.373 41.4449 30.1671 41.0747 32.127 41.0747H35.1775C37.1375 41.0747 37.9316 41.4449 38.2776 41.7644C38.5788 42.0423 38.9906 42.7052 38.9906 44.5827V74.4771C38.9906 76.3546 38.5788 77.0174 38.2776 77.2954C37.9316 77.6149 37.1375 77.9851 35.1775 77.9851H32.127C30.1671 77.9851 29.373 77.6149 29.0269 77.2954C28.7258 77.0174 28.314 76.3546 28.314 74.4771V44.5827Z" fill="#4687F1"/>
</svg>
