<svg width="208" height="140" viewBox="0 0 208 140" fill="none" xmlns="http://www.w3.org/2000/svg">
<path d="M0 32C0 23.1634 7.16344 16 16 16H192C200.837 16 208 23.1634 208 32V108C208 116.837 200.837 124 192 124H16C7.16344 124 0 116.837 0 108V32Z" fill="white"/>
<path d="M126.794 65.1281H139.468L143.596 65.1345V59.4218H125.118C119.618 59.7848 117.15 63.3033 117.15 63.3033C117.15 63.3033 115.121 59.4218 108.84 59.4218H95.358V47H89.6453V60.5653C89.6453 60.5653 87.3743 59.4234 83.5663 59.4234H65V65.1777H81.1578C88.1004 65.1777 89.6309 68.194 89.6309 70.7513L89.6037 74.5976C89.5285 77.7611 88.6042 79.6722 82.3892 79.6722L68.3122 79.6674C65 79.6674 65 82.986 65 82.986V92.7546H70.7271V85.3658L75.4803 85.3722L84.8042 85.3658C94.496 85.3658 95.3436 80.5326 95.3436 74.0411C95.3436 72.6417 95.3436 70.8121 95.3436 70.7529C95.3021 66.7898 93.9315 65.1905 93.9298 65.1745H107.717C114.407 65.1745 114.5 69.4351 114.542 70.9128L114.551 85.3674H120.278V84.0224C121.782 84.798 123.122 85.3658 126.684 85.3658C126.911 85.3658 143.596 85.3674 143.596 85.3674V79.669H126.744C124.977 79.669 123.311 79.3732 122.049 78.268C120.827 77.1949 120.243 75.7236 120.278 74.0283V70.7609C120.384 67.6039 123.199 65.1298 126.794 65.1298V65.1281Z" fill="#FF5050"/>
</svg>
