<svg width="208" height="140" viewBox="0 0 208 140" fill="none" xmlns="http://www.w3.org/2000/svg">
<path d="M0 32C0 23.1634 7.16344 16 16 16H192C200.837 16 208 23.1634 208 32V108C208 116.837 200.837 124 192 124H16C7.16344 124 0 116.837 0 108V32Z" fill="white"/>
<path fill-rule="evenodd" clip-rule="evenodd" d="M62.2587 95.6292V93.1082C63.6936 93.5599 64.9632 93.7857 66.0677 93.7857C67.5926 93.7857 68.3552 93.3826 68.3552 92.577C68.3552 92.2767 68.2442 92.0243 68.0217 91.82C67.7943 91.6032 67.2116 91.3027 66.2754 90.9177C64.5955 90.227 63.5001 89.6379 62.9906 89.1507C62.3302 88.5076 62 87.6965 62 86.7165C62 85.4543 62.4811 84.4924 63.4427 83.8313C64.3936 83.176 65.6318 82.8487 67.1593 82.8487C68.001 82.8487 69.2191 83.0036 70.8124 83.3138V85.7389C69.6269 85.2653 68.5264 85.0291 67.5097 85.0291C66.078 85.0291 65.3622 85.4222 65.3622 86.2101C65.3622 86.5047 65.5064 86.7449 65.7951 86.9311C66.0353 87.0818 66.6969 87.4002 67.7787 87.8872C69.3363 88.5789 70.3732 89.1802 70.8898 89.6917C71.5029 90.2983 71.81 91.0834 71.81 92.0456C71.81 93.4287 71.2084 94.4837 70.0061 95.2106C69.0321 95.8001 67.769 96.0937 66.2177 96.0937C64.9077 96.0937 63.5877 95.9393 62.2587 95.6292Z" fill="#009999"/>
<path fill-rule="evenodd" clip-rule="evenodd" d="M73.8236 83.0701H77.3892V95.8353H73.8236V83.0701Z" fill="#009999"/>
<path fill-rule="evenodd" clip-rule="evenodd" d="M80.6591 95.8353V83.0701H89.804V85.379H84.0956V88.2614H89.0645V90.3674H84.0956V93.3967H89.9511V95.8353H80.6591Z" fill="#009999"/>
<path fill-rule="evenodd" clip-rule="evenodd" d="M92.2789 95.8353V83.0701H96.9019L100.114 91.2265L103.406 83.0701H107.797V95.8353H104.417V86.7973L100.673 95.9649H98.4627L94.7911 86.7973V95.8353H92.2789Z" fill="#009999"/>
<path fill-rule="evenodd" clip-rule="evenodd" d="M111.068 95.8353V83.0701H120.213V85.379H114.505V88.2614H119.473V90.3674H114.505V93.3967H120.361V95.8353H111.068Z" fill="#009999"/>
<path fill-rule="evenodd" clip-rule="evenodd" d="M122.707 95.8353V83.0701H126.839L131.224 91.6154V83.0701H133.735V95.8353H129.72L125.219 87.175V95.8353H122.707Z" fill="#009999"/>
<path fill-rule="evenodd" clip-rule="evenodd" d="M136.266 95.6288V93.1078C137.689 93.5594 138.959 93.7852 140.076 93.7852C141.601 93.7852 142.363 93.3821 142.363 92.5766C142.363 92.2762 142.255 92.0239 142.04 91.8195C141.811 91.6028 141.226 91.3023 140.284 90.9173C138.609 90.2323 137.513 89.6435 136.999 89.1503C136.339 88.5128 136.009 87.6988 136.009 86.7073C136.009 85.4506 136.489 84.4918 137.451 83.8308C138.401 83.1755 139.641 82.8482 141.168 82.8482C142.027 82.8482 143.14 82.9846 144.505 83.2586L144.82 83.3133V85.7384C143.635 85.2648 142.531 85.0285 141.509 85.0285C140.083 85.0285 139.371 85.4216 139.371 86.2096C139.371 86.5041 139.515 86.7444 139.803 86.9306C140.031 87.0755 140.696 87.394 141.796 87.8866C143.341 88.5784 144.376 89.1797 144.897 89.6911C145.511 90.2978 145.818 91.0829 145.818 92.0451C145.818 93.4282 145.22 94.4832 144.023 95.2101C143.044 95.7996 141.777 96.0931 140.226 96.0931C138.915 96.0932 137.594 95.9389 136.266 95.6288Z" fill="#009999"/>
<path d="M114.393 43.1216H118.992L129.808 69.5394H130.181L140.997 43.1216H145.597V74.9473H141.991V50.7672H141.681L131.735 74.9473H128.254L118.309 50.7672H117.998V74.9473H114.393V43.1216Z" fill="#232122"/>
<path d="M89.7776 74.9473V43.1216H93.6315V71.5285H108.425V74.9473H89.7776Z" fill="#232122"/>
<path d="M62 74.9472V43.1216H72.7536C75.2503 43.1216 77.2912 43.5722 78.8763 44.4736C80.4717 45.3645 81.6528 46.5714 82.4194 48.0943C83.186 49.6172 83.5693 51.3163 83.5693 53.1914C83.5693 55.0666 83.186 56.7708 82.4194 58.304C81.6631 59.8373 80.4924 61.0598 78.9074 61.9714C77.3223 62.8728 75.2918 63.3234 72.8158 63.3234H65.108V59.9046H72.6914C74.4008 59.9046 75.7735 59.6094 76.8095 59.0189C77.8455 58.4284 78.5966 57.6306 79.0628 56.6257C79.5393 55.6105 79.7776 54.4657 79.7776 53.1914C79.7776 51.9172 79.5393 50.7776 79.0628 49.7726C78.5966 48.7677 77.8403 47.9804 76.794 47.4106C75.7476 46.8304 74.3594 46.5404 72.6293 46.5404H65.8539V74.9472H62Z" fill="#232122"/>
</svg>
