<svg width="208" height="140" viewBox="0 0 208 140" fill="none" xmlns="http://www.w3.org/2000/svg">
<path d="M0 32C0 23.1634 7.16344 16 16 16H192C200.837 16 208 23.1634 208 32V108C208 116.837 200.837 124 192 124H16C7.16344 124 0 116.837 0 108V32Z" fill="white"/>
<path d="M50.8718 56.1216C44.3044 56.1216 39 61.403 39 67.9419V84.1216H55.25C61.8174 84.1216 67.1218 78.8401 67.1218 72.3012V56.1216H50.8718ZM60.4702 61.0677C60.4702 63.2473 58.7021 64.924 56.5972 64.924H52.3873V68.2773H58.0285V72.1336H52.4715V80.1815H47.8407V60.0617H52.3873V63.6665C52.5557 61.6545 54.2396 60.0617 56.2604 60.0617H60.4702V61.0677Z" fill="#0075DD"/>
<path d="M82.9508 66.433V76.912H85.7293V71.2114C85.7293 70.8761 85.7293 69.8701 86.1503 69.4509C86.5712 68.9479 87.1606 68.6964 87.8342 68.7803H87.9184V66.1815H87.8342C86.9922 66.0976 86.2345 66.433 85.8977 66.7683L85.7293 66.936C85.6451 67.0198 85.5609 67.1036 85.4767 67.1874V66.5168L82.9508 66.433Z" fill="black"/>
<path d="M110.736 76.9958V71.2114C110.736 69.6186 111.494 68.6964 112.756 68.6964C113.262 68.6964 113.683 68.8641 114.019 69.1994C114.44 69.6186 114.693 70.2892 114.693 71.1276V76.912H117.387V70.3731C117.387 68.1096 115.788 66.2653 113.683 66.0976C112.504 66.0138 111.494 66.2653 110.736 67.0198V62.912H108.041V76.912H110.736V76.9958Z" fill="black"/>
<path d="M125.891 69.2833H125.807L125.891 69.1994C126.986 68.5288 127.323 67.1036 127.154 66.0976C126.733 64.0857 125.133 62.912 122.608 62.912H118.903V76.912H122.86C125.807 76.912 127.575 75.6545 128.08 73.3072C128.249 71.9659 127.407 69.8701 125.891 69.2833ZM121.597 65.6785H122.776C123.281 65.6785 124.291 65.7623 124.376 66.8521C124.376 67.1874 124.291 67.5228 124.039 67.7743C123.618 68.1934 122.944 68.2773 122.355 68.2773H121.513L121.597 65.6785ZM124.881 73.6425C124.46 74.0617 123.702 74.3132 122.523 74.3132H121.597V70.9599H123.113C124.039 70.9599 125.133 71.3791 125.218 72.4689C125.302 72.888 125.133 73.3072 124.881 73.6425Z" fill="black"/>
<path d="M137.931 67.7743C136.921 66.7683 135.49 66.1815 133.974 66.1815C130.859 66.2653 128.417 68.7803 128.501 71.8821C128.585 74.8162 130.943 77.2473 133.89 77.3312H133.974C135.405 77.3312 136.837 76.7443 137.847 75.7383C140.036 73.6425 140.12 70.1216 138.016 67.9419C138.1 67.8581 138.016 67.7743 137.931 67.7743ZM134.142 74.7324C133.385 74.7324 132.627 74.4809 132.122 73.894C131.532 73.3072 131.196 72.5527 131.196 71.7144C131.196 70.1216 132.459 68.8641 134.058 68.7803H134.142C135.742 68.7803 137.005 70.0377 137.089 71.6306C137.005 73.2234 135.826 74.6485 134.142 74.7324Z" fill="black"/>
<path d="M149.803 67.7743C148.793 66.7683 147.361 66.1815 145.846 66.1815C142.731 66.2653 140.289 68.7803 140.373 71.8821C140.457 74.8162 142.815 77.2473 145.762 77.3312H145.846C147.277 77.3312 148.709 76.7443 149.719 75.7383C151.908 73.6425 151.992 70.1216 149.887 67.9419C149.887 67.8581 149.803 67.7743 149.803 67.7743ZM148.035 73.7264C147.53 74.3132 146.772 74.6485 146.014 74.6485C145.256 74.6485 144.499 74.397 143.994 73.8102C143.404 73.2234 143.067 72.4689 143.067 71.6306C143.067 70.0377 144.33 68.7803 145.93 68.6964H146.014C147.614 68.6964 148.877 69.9539 148.877 71.5467C148.793 72.4689 148.54 73.2234 148.035 73.7264Z" fill="black"/>
<path d="M154.855 72.2174L155.023 71.9659H155.276L158.307 76.9958H161.254L157.128 70.1216L161.254 66.433H157.549L154.855 68.8641V62.912H152.245V76.9958H154.855V72.2174Z" fill="black"/>
<path d="M169 73.8102C169 71.5467 167.148 70.9599 165.716 70.5407C164.79 70.2892 164.032 70.0377 164.032 69.4509C164.032 69.0318 164.369 68.7803 164.959 68.7803C165.295 68.7803 165.632 68.8641 165.885 69.1156L165.969 69.1994L167.737 67.4389L167.653 67.3551C166.979 66.6845 165.969 66.3491 165.043 66.3491C162.854 66.3491 161.506 67.6066 161.506 69.5348C161.506 71.7982 163.275 72.3012 164.706 72.7204C165.716 72.9719 166.474 73.2234 166.474 73.894C166.474 74.4809 165.885 74.9 165.043 74.9C164.201 74.9 163.696 74.4809 163.696 73.8102V73.6425H161.001V73.8102C161.001 75.8222 162.685 77.3312 165.043 77.3312C167.316 77.3312 169 75.8222 169 73.8102Z" fill="black"/>
<path d="M76.8886 65.7623V68.7803H81.5194V71.4629H76.9728V76.9958H74.1943V62.9958H81.772V65.7623H76.8886Z" fill="black"/>
<path d="M99.0324 71.7982C99.0324 68.3611 97.0959 66.2653 93.9806 66.2653C90.7811 66.2653 88.5078 68.5288 88.5078 71.6306C88.5078 74.9 90.8653 77.3312 93.8964 77.3312C95.4961 77.3312 97.0959 76.6605 98.1904 75.4868L98.2746 75.403L96.3381 73.7264L96.2539 73.8102C95.6645 74.5647 94.7383 74.9839 93.8122 74.9839C92.3808 74.9839 91.2863 74.0617 91.0337 72.5527V72.3012H98.9482L99.0324 71.7982ZM91.2863 69.9539L91.3705 69.7863C91.8757 68.9479 92.7176 68.5288 93.8122 68.5288C94.9909 68.5288 95.9171 69.0318 96.1697 69.9539H91.2863Z" fill="black"/>
<path d="M104.084 70.5407C103.158 70.2892 102.4 70.0377 102.4 69.3671C102.4 68.9479 102.737 68.6964 103.326 68.6964C103.663 68.6964 104 68.7803 104.253 69.0318L104.337 69.1156L106.105 67.3551L106.021 67.2713C105.347 66.6006 104.337 66.2653 103.411 66.2653C101.222 66.2653 99.8744 67.5228 99.8744 69.4509C99.8744 71.7144 101.642 72.2174 103.074 72.6366C104.084 72.888 104.842 73.1395 104.842 73.8102C104.842 74.397 104.253 74.8162 103.411 74.8162C102.569 74.8162 102.063 74.397 102.063 73.7264V73.5587H99.3692V73.7264C99.3692 75.7383 101.053 77.2473 103.411 77.2473C105.768 77.2473 107.452 75.7383 107.452 73.7264C107.368 71.5467 105.516 71.0437 104.084 70.5407Z" fill="black"/>
</svg>
