<svg width="208" height="140" viewBox="0 0 208 140" fill="none" xmlns="http://www.w3.org/2000/svg">
<path d="M0 32C0 23.1634 7.16344 16 16 16H192C200.837 16 208 23.1634 208 32V108C208 116.837 200.837 124 192 124H16C7.16344 124 0 116.837 0 108V32Z" fill="white"/>
<path d="M56 75.467L56.373 73.9939H59.1087C59.5391 73.9939 59.8739 73.9365 60.0939 73.8313C60.3044 73.7261 60.4478 73.5635 60.4957 73.3435L62.4852 65.5H64.3696L62.38 73.3435C62.3035 73.6591 62.1696 73.9365 61.9878 74.2044C61.8061 74.4626 61.567 74.6922 61.2704 74.8739C60.9739 75.0652 60.6104 75.2087 60.1896 75.3139C59.7687 75.4191 59.2809 75.467 58.7357 75.467H56Z" fill="#D22439"/>
<path d="M133.277 66.973H139.858C140.691 66.973 141.025 67.2791 140.872 67.8913L140.691 68.6278C140.681 68.6852 140.662 68.733 140.643 68.7904H142.527C142.546 68.733 142.565 68.6757 142.575 68.6183L142.757 67.9104C142.843 67.5565 142.871 67.2217 142.833 66.9348C142.795 66.6383 142.68 66.3896 142.479 66.1791C142.278 65.9687 142.001 65.8061 141.637 65.6817C141.274 65.567 140.805 65.5096 140.241 65.5096H131.776L130.944 68.8H132.828L133.277 66.973Z" fill="#D22439"/>
<path d="M129.251 75.467H131.135L132.12 71.5644H130.236L129.251 75.467Z" fill="#D22439"/>
<path d="M138.72 75.467H140.729L139.667 71.5644H137.658L138.72 75.467Z" fill="#D22439"/>
<path d="M146.353 68.5704C146.353 68.5704 143.876 69.4696 143.847 69.4696C143.053 69.4696 118.997 69.4696 118.997 69.4696L118.662 70.9426H143.914L146.353 71.9278L152.704 70.2539L146.353 68.5704Z" fill="#D22439"/>
<path d="M129.796 66.973L130.169 65.5H119.924L119.551 66.973H129.796Z" fill="#D22439"/>
<path d="M117.399 75.467H127.653L128.026 73.9939H117.772L117.399 75.467Z" fill="#D22439"/>
<path d="M71.4191 67.4417L72.2035 69.46H74.2026L72.5861 65.5H71.2183L67.5739 69.46H69.5922L71.4191 67.4417Z" fill="#D22439"/>
<path d="M72.8061 71.0191L74.5278 75.467H76.6513L74.8339 71.0191H72.8061Z" fill="#D22439"/>
<path d="M62.0739 75.467H64.1687L68.1861 71.0191H66.1583L62.0739 75.467Z" fill="#D22439"/>
<path d="M114.357 75.467H116.481L114.673 71.0191H112.636L114.357 75.467Z" fill="#D22439"/>
<path d="M101.904 75.467H103.998L108.025 71.0191H105.988L101.904 75.467Z" fill="#D22439"/>
<path d="M111.249 67.4417L112.033 69.46H114.042L112.425 65.5H111.048L107.413 69.46H109.422L111.249 67.4417Z" fill="#D22439"/>
<path d="M80.7548 67.6522C80.8696 67.2026 81.4818 66.973 82.6009 66.973H90.3966L90.76 65.5H82.9644C80.5922 65.5 79.2339 66.2174 78.8705 67.6522L77.4357 73.3148C77.0722 74.7496 78.0765 75.467 80.4487 75.467H84.8487C87.2209 75.467 88.5792 74.7591 88.9426 73.3435L89.5357 71.0191L89.947 69.4696C85.4513 69.4696 85.2313 69.4696 85.2313 69.4696L84.8679 71.0191H87.6609L87.0583 73.3435C86.9531 73.7739 86.3409 73.9939 85.2218 73.9939H80.8218C79.7122 73.9939 79.2052 73.7644 79.32 73.3148L80.7548 67.6522Z" fill="#D22439"/>
<path d="M93.9261 67.6522C94.0409 67.2026 94.6531 66.973 95.7722 66.973H103.568L103.941 65.5H96.1453C93.7731 65.5 92.4148 66.2174 92.0513 67.6522L90.6166 73.3148C90.2531 74.7496 91.2574 75.467 93.6296 75.467H98.0296C100.402 75.467 101.76 74.7591 102.124 73.3435L102.717 71.0191L103.128 69.4696C98.6322 69.4696 98.4122 69.4696 98.4122 69.4696L98.0487 71.0191H100.832L100.23 73.3435C100.124 73.7739 99.5122 73.9939 98.3931 73.9939H93.9931C92.8835 73.9939 92.3766 73.7644 92.4913 73.3148L93.9261 67.6522Z" fill="#D22439"/>
</svg>
