<svg width="208" height="140" viewBox="0 0 208 140" fill="none" xmlns="http://www.w3.org/2000/svg">
<path d="M0 32C0 23.1634 7.16344 16 16 16H192C200.837 16 208 23.1634 208 32V108C208 116.837 200.837 124 192 124H16C7.16344 124 0 116.837 0 108V32Z" fill="white"/>
<path d="M54.0951 55.1216C45.8445 55.1216 39.1286 61.79 39.1251 69.986C39.1243 72.6059 39.8138 75.1633 41.1237 77.4174L39 85.1216L46.9356 83.0543C49.1223 84.2387 51.5838 84.8626 54.0889 84.8635H54.0951C62.3448 84.8635 69.0606 78.1942 69.0641 69.9982C69.0659 66.0262 67.5101 62.2914 64.6838 59.482C61.8574 56.6718 58.0992 55.1233 54.0951 55.1216ZM54.0951 82.3531H54.0898C51.8576 82.3531 49.6674 81.7561 47.7573 80.6308L47.3031 80.3632L42.5946 81.5901L43.8511 77.0307L43.5554 76.5632C42.3102 74.5959 41.6522 72.3218 41.6531 69.9878C41.6557 63.1751 47.2375 57.6329 54.1003 57.6329C57.4237 57.6337 60.5475 58.9207 62.8961 61.2564C65.2455 63.5913 66.5379 66.6961 66.5371 69.9973C66.5344 76.81 60.9527 82.3531 54.0951 82.3531ZM60.9194 73.0995C60.5458 72.9136 58.7065 72.015 58.3635 71.8908C58.0204 71.7665 57.7711 71.7048 57.5217 72.0767C57.2723 72.4487 56.5556 73.2855 56.3378 73.5331C56.1199 73.7816 55.9011 73.8121 55.5275 73.6261C55.1539 73.4401 53.9481 73.0474 52.52 71.7822C51.4079 70.7976 50.6571 69.5811 50.4392 69.2092C50.2213 68.8373 50.4156 68.6365 50.6037 68.4514C50.7717 68.2855 50.9774 68.0178 51.1646 67.8006C51.3519 67.5833 51.414 67.4287 51.5382 67.1802C51.6625 66.9325 51.6004 66.7153 51.5067 66.5293C51.4131 66.3433 50.665 64.515 50.3535 63.7712C50.0498 63.0474 49.7418 63.1447 49.5117 63.1334C49.2938 63.1221 49.0444 63.1204 48.795 63.1204C48.5457 63.1204 48.1405 63.2133 47.7975 63.5853C47.4545 63.9572 46.4885 64.8557 46.4885 66.684C46.4885 68.5123 47.829 70.2789 48.0154 70.5265C48.2026 70.7742 50.6527 74.5263 54.4048 76.1348C55.2974 76.5171 55.9939 76.7457 56.5373 76.9169C57.4333 77.1993 58.2488 77.1593 58.8928 77.0637C59.6112 76.9568 61.1058 76.1652 61.4173 75.2971C61.7288 74.4299 61.7288 73.6861 61.6352 73.5305C61.5415 73.3758 61.2922 73.2829 60.9185 73.0969L60.9194 73.0995ZM87.4012 72.8727H87.3609L84.8794 62.9301H81.8885L79.3658 72.7511H79.3256L77.0269 62.9301H73.833L77.6779 77.3592H80.9129L83.3332 67.5373H83.3743L85.8358 77.3592H89.0095L92.9156 62.9301H89.783L87.4021 72.8727H87.4012ZM102.659 67.8101C102.375 67.44 101.984 67.1506 101.49 66.9412C100.995 66.7335 100.36 66.6292 99.5877 66.6292C99.0452 66.6292 98.4895 66.7665 97.919 67.0437C97.3494 67.3192 96.8821 67.7606 96.5155 68.3672H96.4542V62.9301H93.5658V77.3583H96.4542V71.8821C96.4542 70.8176 96.6301 70.0538 96.9836 69.588C97.3362 69.124 97.9059 68.8911 98.6925 68.8911C99.3838 68.8911 99.8651 69.1032 100.137 69.5281C100.408 69.9521 100.544 70.5952 100.544 71.4572V77.3583H103.433V70.9323C103.433 70.2858 103.375 69.6967 103.26 69.164C103.145 68.6331 102.945 68.1812 102.66 67.8101H102.659ZM114.56 75.0347V69.5993C114.56 68.965 114.418 68.4567 114.132 68.0734C113.848 67.6894 113.482 67.3896 113.035 67.1741C112.587 66.9586 112.092 66.8134 111.549 66.7396C111.007 66.6657 110.471 66.6284 109.943 66.6284C109.36 66.6284 108.78 66.6848 108.204 66.8004C107.627 66.9151 107.109 67.1072 106.647 67.3765C106.186 67.6459 105.806 68.0031 105.509 68.4471C105.21 68.892 105.04 69.4507 105 70.1251H107.888C107.942 69.5594 108.133 69.1544 108.459 68.912C108.784 68.6695 109.231 68.5488 109.801 68.5488C110.058 68.5488 110.299 68.5653 110.523 68.5992C110.746 68.6331 110.943 68.6991 111.113 68.8008C111.282 68.9016 111.418 69.0432 111.52 69.2257C111.621 69.4073 111.672 69.6541 111.672 69.9626C111.685 70.2597 111.597 70.4839 111.408 70.6395C111.217 70.795 110.96 70.9132 110.634 70.9931C110.309 71.0748 109.936 71.1357 109.515 71.1748C109.094 71.2165 108.667 71.2712 108.234 71.3373C107.799 71.405 107.368 71.4954 106.942 71.6101C106.515 71.7239 106.134 71.8969 105.802 72.1245C105.47 72.3548 105.198 72.6607 104.987 73.0448C104.777 73.4288 104.672 73.9181 104.672 74.5098C104.672 75.0486 104.764 75.5135 104.947 75.9036C105.13 76.2955 105.385 76.6179 105.71 76.8743C106.036 77.1306 106.416 77.3192 106.85 77.4408C107.283 77.5616 107.752 77.6225 108.253 77.6225C108.904 77.6225 109.542 77.5277 110.165 77.34C110.789 77.1497 111.332 76.8213 111.793 76.3486C111.807 76.5241 111.83 76.6961 111.864 76.8638C111.898 77.0316 111.942 77.1975 111.996 77.3583H114.926C114.79 77.1437 114.695 76.8204 114.641 76.3885C114.586 75.9575 114.559 75.5074 114.559 75.0347H114.56ZM111.672 73.3168C111.672 73.4801 111.655 73.6956 111.621 73.9641C111.588 74.2344 111.496 74.4994 111.346 74.7627C111.197 75.0251 110.966 75.2519 110.654 75.4396C110.343 75.6291 109.902 75.7229 109.331 75.7229C109.101 75.7229 108.877 75.7029 108.66 75.6612C108.443 75.6212 108.253 75.55 108.09 75.4492C107.928 75.3484 107.799 75.2102 107.704 75.0347C107.609 74.8592 107.561 74.6445 107.561 74.389C107.561 74.1197 107.609 73.8963 107.704 73.7217C107.799 73.547 107.924 73.4019 108.081 73.2872C108.236 73.1725 108.419 73.0821 108.629 73.0144C108.839 72.9474 109.053 72.8936 109.271 72.8527C109.501 72.8128 109.732 72.778 109.962 72.7519C110.194 72.7259 110.414 72.6911 110.624 72.6511C110.834 72.6103 111.03 72.5599 111.214 72.4991C111.397 72.4382 111.549 72.3557 111.672 72.2471V73.3176V73.3168ZM119.952 63.779H117.063V66.9108H115.314V68.8303H117.063V74.9947C117.063 75.5204 117.152 75.9445 117.328 76.2677C117.505 76.591 117.745 76.8413 118.05 77.0159C118.355 77.1914 118.708 77.3088 119.109 77.3687C119.508 77.4287 119.933 77.46 120.38 77.46C120.666 77.46 120.957 77.453 121.256 77.4408C121.553 77.4269 121.825 77.4009 122.07 77.3592V75.1364C121.933 75.1633 121.791 75.185 121.642 75.1972C121.493 75.2111 121.337 75.218 121.175 75.218C120.687 75.218 120.361 75.1364 120.198 74.9747C120.036 74.8131 119.955 74.4898 119.955 74.0041V68.8303H122.071V66.9108H119.955V63.779H119.952ZM131.893 72.7823C131.703 72.4521 131.452 72.1758 131.14 71.9534C130.829 71.7318 130.472 71.5528 130.073 71.4172C129.672 71.2834 129.262 71.1695 128.842 71.0748C128.435 70.9801 128.036 70.8924 127.642 70.8115C127.248 70.7307 126.899 70.6395 126.594 70.5396C126.289 70.4379 126.042 70.3075 125.852 70.145C125.662 69.9834 125.568 69.7757 125.568 69.5185C125.568 69.303 125.621 69.131 125.73 69.0032C125.838 68.8755 125.971 68.7782 126.127 68.7095C126.284 68.6426 126.455 68.5992 126.645 68.5783C126.835 68.5583 127.012 68.5488 127.174 68.5488C127.689 68.5488 128.137 68.6461 128.518 68.8416C128.897 69.0371 129.108 69.4108 129.147 69.9626H131.894C131.839 69.3161 131.673 68.7808 131.396 68.3559C131.118 67.9318 130.768 67.592 130.348 67.3357C129.928 67.0794 129.451 66.8977 128.913 66.79C128.378 66.6822 127.826 66.6284 127.257 66.6284C126.688 66.6284 126.13 66.6788 125.589 66.7787C125.046 66.8804 124.557 67.0559 124.124 67.3053C123.689 67.5547 123.341 67.8944 123.076 68.3254C122.811 68.7564 122.679 69.3091 122.679 69.9825C122.679 70.4405 122.774 70.8289 122.965 71.1452C123.153 71.4624 123.405 71.7239 123.716 71.9334C124.029 72.1419 124.385 72.3114 124.785 72.4382C125.185 72.5677 125.595 72.6781 126.015 72.7728C127.047 72.9883 127.851 73.2038 128.427 73.4202C129.003 73.6357 129.291 73.9589 129.291 74.3899C129.291 74.6463 129.231 74.8566 129.108 75.0251C128.986 75.1946 128.834 75.3284 128.651 75.4292C128.467 75.5309 128.263 75.6056 128.04 75.6516C127.816 75.6994 127.602 75.7229 127.399 75.7229C127.113 75.7229 126.839 75.689 126.575 75.6221C126.31 75.5543 126.076 75.4501 125.873 75.3084C125.67 75.1668 125.502 74.9852 125.374 74.7627C125.246 74.5402 125.18 74.2752 125.18 73.9641H122.435C122.463 74.6645 122.621 75.2476 122.913 75.7125C123.204 76.1774 123.577 76.551 124.032 76.8343C124.486 77.1167 125.005 77.3192 125.589 77.4408C126.171 77.5616 126.768 77.6225 127.378 77.6225C127.988 77.6225 128.562 77.5651 129.138 77.4513C129.715 77.3366 130.227 77.1376 130.674 76.8543C131.123 76.5719 131.483 76.1982 131.762 75.7333C132.04 75.2676 132.179 74.6923 132.179 74.005C132.179 73.5192 132.084 73.1125 131.895 72.7832L131.893 72.7823ZM137.629 62.9301L132.137 77.3592H135.351L136.489 74.1457H141.921L143.019 77.3592H146.336L140.905 62.9301H137.629H137.629ZM137.325 71.7822L139.217 66.4876H139.257L141.088 71.7822H137.325ZM156.325 68.3263C155.932 67.8145 155.437 67.4035 154.84 67.0941C154.244 66.7839 153.532 66.6292 152.705 66.6292C152.053 66.6292 151.457 66.757 150.915 67.0124C150.371 67.2688 149.924 67.6798 149.573 68.2455H149.532V66.9108H146.784V81.0175H149.675V76.0661H149.714C150.067 76.5788 150.519 76.9655 151.069 77.2271C151.617 77.4895 152.218 77.6216 152.869 77.6216C153.642 77.6216 154.317 77.4721 154.893 77.1767C155.469 76.8804 155.951 76.4824 156.337 75.9836C156.724 75.4848 157.011 74.913 157.203 74.2665C157.391 73.6192 157.487 72.9457 157.487 72.2453C157.487 71.5041 157.391 70.7942 157.203 70.1129C157.011 69.4334 156.721 68.8364 156.327 68.3246L156.325 68.3263ZM154.475 73.3984C154.392 73.8034 154.253 74.1562 154.057 74.4594C153.86 74.7627 153.603 75.0095 153.283 75.1972C152.965 75.3857 152.568 75.4813 152.094 75.4813C151.619 75.4813 151.24 75.3866 150.915 75.1972C150.589 75.0095 150.328 74.7627 150.131 74.4594C149.934 74.1562 149.792 73.8034 149.704 73.3984C149.616 72.9944 149.573 72.5833 149.573 72.1671C149.573 71.7509 149.612 71.3173 149.693 70.9141C149.776 70.51 149.914 70.1529 150.112 69.8418C150.307 69.5324 150.566 69.2804 150.885 69.0849C151.204 68.8894 151.599 68.7903 152.074 68.7903C152.55 68.7903 152.927 68.8894 153.244 69.0849C153.563 69.2796 153.824 69.535 154.027 69.8522C154.23 70.1694 154.376 70.53 154.465 70.9332C154.554 71.3373 154.596 71.7491 154.596 72.1671C154.596 72.5851 154.557 72.9952 154.475 73.3984H154.475ZM168.714 70.1146C168.524 69.4351 168.233 68.8381 167.839 68.3263C167.445 67.8145 166.952 67.4035 166.355 67.0941C165.757 66.7839 165.045 66.6292 164.218 66.6292C163.568 66.6292 162.97 66.757 162.429 67.0124C161.886 67.2688 161.438 67.6798 161.085 68.2455H161.046V66.9108H158.299V81.0175H161.188V76.0661H161.229C161.582 76.5788 162.033 76.9655 162.582 77.2271C163.13 77.4895 163.731 77.6216 164.382 77.6216C165.155 77.6216 165.829 77.4721 166.406 77.1767C166.982 76.8804 167.464 76.4824 167.85 75.9836C168.238 75.4848 168.525 74.913 168.715 74.2665C168.905 73.6192 169 72.9457 169 72.2453C169 71.5041 168.905 70.7942 168.715 70.1129L168.714 70.1146ZM165.987 73.3984C165.907 73.8034 165.768 74.1562 165.571 74.4594C165.373 74.7627 165.116 75.0095 164.797 75.1972C164.479 75.3857 164.082 75.4813 163.607 75.4813C163.132 75.4813 162.752 75.3866 162.427 75.1972C162.1 75.0095 161.841 74.7627 161.643 74.4594C161.447 74.1562 161.304 73.8034 161.216 73.3984C161.127 72.9944 161.084 72.5833 161.084 72.1671C161.084 71.7509 161.125 71.3173 161.206 70.9141C161.288 70.51 161.427 70.1529 161.624 69.8418C161.82 69.5324 162.078 69.2804 162.397 69.0849C162.715 68.8894 163.112 68.7903 163.587 68.7903C164.062 68.7903 164.438 68.8894 164.756 69.0849C165.076 69.2796 165.336 69.535 165.54 69.8522C165.744 70.1694 165.89 70.53 165.978 70.9332C166.067 71.3373 166.11 71.7491 166.11 72.1671C166.11 72.5851 166.069 72.9952 165.987 73.3984Z" fill="#25D366"/>
</svg>
