<svg width="208" height="140" viewBox="0 0 208 140" fill="none" xmlns="http://www.w3.org/2000/svg">
<path d="M0 32C0 23.1634 7.16344 16 16 16H192C200.837 16 208 23.1634 208 32V108C208 116.837 200.837 124 192 124H16C7.16344 124 0 116.837 0 108V32Z" fill="white"/>
<path d="M119.506 49.7475L119.609 49.5403L119.575 40.26L119.506 40L89.1987 70.8642L89.0044 71.1212V80.0329L89.1789 80.4088L119.506 49.7475Z" fill="#FF495C"/>
<path d="M119.5 40V49.7533L130.267 60.3071L119.82 70.859L89.1481 40.1347L69 60.3071L89.1818 80.4047L89.1911 70.8571L78.643 60.3052L89.1986 49.7514L119.925 80.4776L140 60.2379L119.5 40Z" fill="#284FFF"/>
<path d="M62 91.6314H64.4082V98.6083H68.2322V100.633H62V91.6314Z" fill="black"/>
<path d="M92.6416 99.1174L94.4206 97.7887C94.8653 98.3374 95.4174 98.7794 96.3337 98.7794C97.0614 98.7794 97.4923 98.5653 97.4923 98.0561C97.4923 97.6674 97.1964 97.4799 96.5898 97.2821L95.5117 96.9209C94.1783 96.4789 93.2317 95.6756 93.2317 94.1766C93.2317 92.3827 94.7269 91.4582 96.3571 91.4582C97.9743 91.4582 98.8664 92.0344 99.402 92.6622L98.0011 94.1242C97.6238 93.7363 97.2223 93.468 96.4921 93.468C95.8993 93.468 95.6026 93.7363 95.6026 94.0975C95.6026 94.4415 95.805 94.6196 96.2489 94.7666L97.4603 95.1682C99.2929 95.7702 99.9125 96.6414 99.9125 97.9271C99.9125 99.6007 98.8612 100.806 96.4367 100.806C94.3799 100.805 93.2075 99.8673 92.6416 99.1174Z" fill="black"/>
<path d="M109.737 100.633H107.356L111.784 91.3555C111.824 91.2617 111.904 91.2617 111.944 91.3555L116.358 100.633H113.844L113.501 99.8585H110.077L109.737 100.633ZM111.757 95.914L110.847 98.0322H112.693L111.757 95.914Z" fill="black"/>
<path d="M126.251 96.0486V100.573H123.976V91.3772C123.976 91.2975 124.016 91.2306 124.162 91.3506L129.838 96.0486V91.4972H132.112V100.706C132.112 100.813 132.072 100.853 131.926 100.733L126.251 96.0486Z" fill="black"/>
<path d="M142.143 93.6566H139.729V91.6314H147V93.6566H144.586V100.633H142.144L142.143 93.6566Z" fill="black"/>
<path d="M80.3494 91.4582C79.4249 91.4583 78.5212 91.7327 77.7526 92.2465C76.984 92.7603 76.385 93.4905 76.0314 94.3448C75.6779 95.199 75.5856 96.1389 75.7663 97.0457C75.9469 97.9524 76.3924 98.7851 77.0464 99.4386C77.7004 100.092 78.5335 100.537 79.4403 100.717C80.3471 100.897 81.287 100.804 82.141 100.45C82.995 100.096 83.7247 99.4961 84.238 98.7271C84.7512 97.9582 85.0249 97.0543 85.0244 96.1297C85.0237 94.8904 84.5309 93.702 83.6542 92.826C82.7775 91.9499 81.5888 91.4579 80.3494 91.4582ZM80.3494 98.6088C79.8597 98.6088 79.381 98.4636 78.9738 98.1916C78.5666 97.9196 78.2492 97.533 78.0617 97.0806C77.8742 96.6282 77.825 96.1304 77.9203 95.6501C78.0157 95.1698 78.2513 94.7285 78.5974 94.3821C78.9434 94.0356 79.3845 93.7995 79.8647 93.7037C80.3449 93.6078 80.8428 93.6565 81.2954 93.8436C81.7479 94.0306 82.1349 94.3476 82.4073 94.7546C82.6797 95.1615 82.8254 95.64 82.8259 96.1297C82.8263 96.4552 82.7625 96.7775 82.6382 97.0782C82.5139 97.379 82.3315 97.6523 82.1015 97.8825C81.8715 98.1128 81.5984 98.2954 81.2977 98.4201C80.9971 98.5447 80.6749 98.6088 80.3494 98.6088Z" fill="black"/>
</svg>
