<svg width="306" height="43" viewBox="0 0 306 43" fill="none" xmlns="http://www.w3.org/2000/svg">
<path d="M299.8 1.09663C302.2 1.09663 304.3 2.99663 304.3 5.59663V37.0966C304.3 39.4966 302.4 41.5966 299.8 41.5966H168.3C165.9 41.5966 163.8 39.6966 163.8 37.0966V5.59663C163.8 3.19663 165.7 1.09663 168.3 1.09663H299.8ZM299.8 0.296631H168.3C165.4 0.296631 163 2.69663 163 5.59663V37.0966C163 39.9966 165.4 42.3966 168.3 42.3966H299.8C302.7 42.3966 305.1 39.9966 305.1 37.0966V5.59663C305 2.69663 302.7 0.296631 299.8 0.296631Z" fill="#4F5362"/>
<path d="M213 10.9968C213 11.7968 212.8 12.5968 212.2 13.0968C211.6 13.6968 210.9 14.0968 209.9 14.0968C208.9 14.0968 208.2 13.6968 207.6 13.0968C207 12.4968 206.6 11.6968 206.6 10.7968C206.6 9.79682 207 9.09683 207.6 8.49683C208.2 7.89683 209 7.49683 209.9 7.49683C210.4 7.49683 210.7 7.59682 211.2 7.69682C211.6 7.79682 211.9 8.09682 212.2 8.39682L211.6 8.99683C211.2 8.49683 210.6 8.29682 209.9 8.29682C209.2 8.29682 208.7 8.49683 208.2 8.99683C207.7 9.49683 207.5 10.0968 207.5 10.7968C207.5 11.4968 207.7 12.0968 208.2 12.5968C208.7 13.0968 209.3 13.2968 209.9 13.2968C210.6 13.2968 211.2 13.0968 211.7 12.5968C212.1 12.1968 212.2 11.8968 212.2 11.2968H209.9V10.4968H212.9C213 10.7968 213 10.8968 213 10.9968ZM217.8 8.49683H214.9V10.5968H217.6V11.1968H214.9V13.1968H217.8V13.8968H214.1V7.59682H217.8V8.49683ZM221.3 13.8968H220.5V8.49683H218.7V7.69682H223V8.39682H221.2V13.9968H221.3V13.8968ZM226.1 13.8968V7.59682H226.9V13.8968H226.1ZM230.6 13.8968H229.8V8.49683H228.1V7.69682H232.4V8.39682H230.6V13.8968ZM240.6 13.1968C240 13.7968 239.2 14.1968 238.3 14.1968C237.3 14.1968 236.6 13.7968 236 13.1968C235.4 12.5968 235 11.7968 235 10.8968C235 10.0968 235.4 9.19682 236 8.59682C236.5 7.89682 237.3 7.49683 238.2 7.49683C239.2 7.49683 239.9 7.89683 240.5 8.49683C241.1 9.09683 241.5 9.89682 241.5 10.7968C241.5 11.6968 241.2 12.3968 240.6 13.1968ZM236.5 12.5968C237 13.0968 237.6 13.2968 238.2 13.2968C238.8 13.2968 239.4 13.0968 239.9 12.5968C240.4 12.0968 240.6 11.4968 240.6 10.7968C240.6 10.0968 240.4 9.49683 239.9 8.99683C239.4 8.49683 238.8 8.29682 238.2 8.29682C237.6 8.29682 237 8.49683 236.5 8.99683C236 9.49683 235.8 10.0968 235.8 10.7968C235.8 11.4968 236 12.0968 236.5 12.5968ZM242.7 13.8968V7.59682H243.7L246.7 12.5968V7.59682H247.5V13.8968H246.7L243.4 8.69682V13.8968H242.7Z" fill="#4F5362" stroke="#4F5362" stroke-width="0.2413" stroke-miterlimit="10"/>
<path d="M234.8 23.1965C232.3 23.1965 230.3 25.0965 230.3 27.6965C230.3 30.1965 232.3 32.1965 234.8 32.1965C237.3 32.1965 239.3 30.2965 239.3 27.6965C239.3 24.9965 237.2 23.1965 234.8 23.1965ZM234.8 30.2965C233.5 30.2965 232.3 29.1965 232.3 27.5965C232.3 25.9965 233.5 24.8965 234.8 24.8965C236.1 24.8965 237.3 25.9965 237.3 27.5965C237.4 29.1965 236.1 30.2965 234.8 30.2965ZM225.1 23.1965C222.6 23.1965 220.6 25.0965 220.6 27.6965C220.6 30.1965 222.6 32.1965 225.1 32.1965C227.6 32.1965 229.6 30.2965 229.6 27.6965C229.5 24.9965 227.5 23.1965 225.1 23.1965ZM225.1 30.2965C223.8 30.2965 222.6 29.1965 222.6 27.5965C222.6 25.9965 223.8 24.8965 225.1 24.8965C226.4 24.8965 227.6 25.9965 227.6 27.5965C227.6 29.1965 226.4 30.2965 225.1 30.2965ZM213.4 24.4965V26.3965H218C217.9 27.4965 217.5 28.1965 216.9 28.7965C216.3 29.3965 215.2 30.1965 213.4 30.1965C210.6 30.1965 208.5 27.8965 208.5 25.0965C208.5 22.2965 210.7 19.9965 213.4 19.9965C215 19.9965 216.1 20.5965 216.8 21.2965L218.1 19.9965C217 19.0965 215.4 18.1965 213.2 18.1965C209.3 18.1965 206.2 21.2965 206.2 25.1965C206.2 29.0965 209.5 32.1965 213.2 32.1965C215.2 32.1965 216.8 31.4965 218 30.2965C219.2 29.0965 219.7 27.2965 219.7 25.7965C219.7 25.2965 219.7 24.9965 219.6 24.5965L213.4 24.4965ZM261 25.9965C260.6 24.9965 259.6 23.1965 257.3 23.1965C255 23.1965 253.1 24.9965 253.1 27.6965C253.1 30.1965 255 32.1965 257.6 32.1965C259.6 32.1965 260.9 30.9965 261.3 30.2965L259.7 29.2965C259.2 29.9965 258.5 30.4965 257.5 30.4965C256.5 30.4965 255.8 29.9965 255.3 29.1965L261.3 26.6965L261 25.9965ZM255 27.4965C255 25.7965 256.3 24.7965 257.3 24.7965C258 24.7965 258.7 25.1965 259 25.7965L255 27.4965ZM250 31.8965H251.9V18.6965H250V31.8965ZM246.9 24.1965C246.4 23.6965 245.6 23.1965 244.5 23.1965C242.2 23.1965 240.2 25.0965 240.2 27.6965C240.2 30.1965 242.2 32.1965 244.5 32.1965C245.6 32.1965 246.4 31.6965 246.9 31.1965H247V31.7965C247 33.4965 246 34.4965 244.6 34.4965C243.4 34.4965 242.7 33.6965 242.3 32.8965L240.6 33.5965C241.1 34.7965 242.4 36.2965 244.6 36.2965C246.9 36.2965 248.8 34.9965 248.8 31.5965V23.4965H247L246.9 24.1965ZM244.6 30.2965C243.3 30.2965 242.1 29.1965 242.1 27.5965C242.1 25.9965 243.2 24.7965 244.6 24.7965C245.9 24.7965 247 25.9965 247 27.5965C247 29.1965 245.9 30.2965 244.6 30.2965ZM270.3 18.6965H265.6V31.8965H267.5V26.7965H270.3C272.5 26.7965 274.6 25.1965 274.6 22.6965C274.6 20.1965 272.4 18.6965 270.3 18.6965ZM270.3 24.9965H267.5V20.4965H270.3C271.7 20.4965 272.6 21.6965 272.6 22.7965C272.5 23.7965 271.7 24.9965 270.3 24.9965ZM282.4 23.1965C281 23.1965 279.5 23.7965 278.9 25.2965L280.6 25.9965C281 25.2965 281.7 24.9965 282.4 24.9965C283.4 24.9965 284.4 25.5965 284.4 26.6965V26.7965C284 26.5965 283.3 26.2965 282.4 26.2965C280.5 26.2965 278.7 27.3965 278.7 29.2965C278.7 31.0965 280.3 32.1965 282 32.1965C283.3 32.1965 284 31.5965 284.5 30.8965H284.6V31.8965H286.5V26.7965C286.4 24.3965 284.6 23.1965 282.4 23.1965ZM282.2 30.2965C281.6 30.2965 280.6 29.8965 280.6 29.1965C280.6 28.1965 281.7 27.7965 282.6 27.7965C283.4 27.7965 283.9 27.9965 284.4 28.2965C284.4 29.4965 283.3 30.2965 282.2 30.2965ZM293.3 23.3965L291 29.0965H290.9L288.6 23.3965H286.4L289.9 31.3965L287.9 35.8965H289.9L295.3 23.4965H293.3V23.3965ZM275.7 31.8965H277.6V18.6965H275.7V31.8965Z" fill="#4F5362"/>
<path d="M174.1 8.29663C173.9 8.49663 173.6 9.09663 173.6 9.69663V32.8966C173.6 33.4966 173.8 34.0966 174.1 34.2966L174.2 34.3966L187.2 21.3966V21.1966L174.1 8.29663Z" fill="url(#paint0_linear_2767_3830)"/>
<path d="M191.6 25.7966L187.3 21.4966V21.2966L191.6 16.9966H191.7L196.9 19.8966C198.3 20.6966 198.3 22.0966 196.9 22.8966L191.6 25.7966Z" fill="url(#paint1_linear_2767_3830)"/>
<path d="M191.7 25.6965L187.2 21.1965L174.1 34.2965C174.6 34.7965 175.4 34.8965 176.3 34.3965L191.7 25.6965Z" fill="url(#paint2_linear_2767_3830)"/>
<path d="M191.7 16.8965L176.3 8.09651C175.5 7.59651 174.6 7.59651 174.1 8.19651L187.2 21.2965L191.7 16.8965Z" fill="url(#paint3_linear_2767_3830)"/>
<path opacity="0.2" d="M191.6 25.6965L176.3 34.3965C175.5 34.8965 174.7 34.8965 174.3 34.3965L174.2 34.4965L174.3 34.5965C174.8 35.0965 175.5 35.0965 176.3 34.5965L191.6 25.6965Z" fill="black"/>
<path opacity="0.12" d="M174.1 34.2966C173.9 33.8966 173.6 33.4966 173.6 32.8966V32.9966C173.6 33.5966 173.8 34.1966 174.1 34.3966V34.2966ZM196.9 22.6966L191.6 25.6966L191.7 25.7966L196.9 22.8966C197.6 22.4966 198 21.8966 198 21.2966C197.9 21.8966 197.5 22.2966 196.9 22.6966Z" fill="black"/>
<path opacity="0.25" d="M176.3 8.39653L196.8 20.0965C197.5 20.4965 197.9 20.8965 197.9 21.3965C197.9 20.7965 197.5 20.2965 196.8 19.7965L176.3 8.09653C174.9 7.29653 173.7 7.99653 173.7 9.69653V9.79653C173.6 8.09653 174.9 7.49653 176.3 8.39653Z" fill="white"/>
<path d="M25.8997 22.0315C25.8997 19.1315 28.2997 17.6315 28.3997 17.6315C27.0997 15.7315 24.8997 15.3315 24.1997 15.3315C22.3997 15.1315 20.6997 16.4315 19.8997 16.4315C18.8997 16.4315 17.5997 15.3315 15.9997 15.4315C14.0997 15.4315 12.2997 16.5315 11.2997 18.3315C9.29975 21.8315 10.7997 27.0315 12.6997 29.9315C13.6997 31.4315 14.8997 32.8315 16.2997 32.8315C17.6997 32.7315 18.2997 31.8315 19.9997 31.8315C21.6997 31.8315 22.2997 32.8315 23.6997 32.6315C25.2997 32.6315 26.1997 31.1315 27.1997 29.8315C28.2997 28.2315 28.7997 26.7315 28.7997 26.5315C28.8997 26.7315 25.8997 25.5315 25.8997 22.0315Z" fill="#4F5362"/>
<path d="M22.9998 13.5314C23.7998 12.5314 24.2998 11.2314 24.1998 9.9314C23.0998 9.9314 21.6998 10.7314 20.7998 11.6314C20.0998 12.4314 19.4998 13.9314 19.5998 15.1314C20.8998 15.2314 22.2998 14.5314 22.9998 13.5314Z" fill="#4F5362"/>
<path d="M44.3 29.3315H39.4L38.2 32.8315H36L40.8 19.7315H43L47.7 32.8315H45.5L44.3 29.3315ZM39.8 27.6315H43.8L41.9 21.8315L39.8 27.6315ZM57.9 28.1315C57.9 31.1315 56.3 32.9315 53.9 32.9315C52.6 32.9315 51.5 32.3315 50.9 31.2315V35.9315H49V23.2315H50.9V24.8315C51.5 23.8315 52.6 23.1315 53.9 23.1315C56.2 23.1315 57.9 25.0315 57.9 28.1315ZM55.9 28.1315C55.9 26.2315 54.9 24.8315 53.4 24.8315C52 24.8315 50.9 26.1315 50.9 28.1315C50.9 30.1315 51.9 31.4315 53.4 31.4315C54.9 31.2315 55.9 30.0315 55.9 28.1315ZM68.4 28.1315C68.4 31.1315 66.8 32.9315 64.4 32.9315C63.1 32.9315 62 32.3315 61.4 31.2315V35.9315H59.5V23.2315H61.3V24.8315C61.9 23.8315 63 23.1315 64.3 23.1315C66.7 23.1315 68.4 25.0315 68.4 28.1315ZM66.3 28.1315C66.3 26.2315 65.3 24.8315 63.8 24.8315C62.4 24.8315 61.3 26.1315 61.3 28.1315C61.3 30.1315 62.3 31.4315 63.8 31.4315C65.4 31.2315 66.3 30.0315 66.3 28.1315ZM75.2 29.1315C75.3 30.4315 76.6 31.3315 78.3 31.3315C80 31.3315 81.2 30.5315 81.2 29.2315C81.2 28.2315 80.5 27.6315 78.8 27.1315L77.1 26.7315C74.7 26.1315 73.6 25.0315 73.6 23.2315C73.6 20.9315 75.5 19.3315 78.3 19.3315C81.1 19.3315 83 20.9315 83 23.2315H81.1C81 21.9315 79.9 21.1315 78.3 21.1315C76.7 21.1315 75.7 21.9315 75.7 23.0315C75.7 24.0315 76.4 24.5315 78.1 24.9315L79.5 25.3315C82.1 25.9315 83.2 27.0315 83.2 28.9315C83.2 31.3315 81.3 32.9315 78.1 32.9315C75.2 32.9315 73.3 31.4315 73.2 29.0315C73.3 29.3315 75.2 29.1315 75.2 29.1315ZM87.5 21.0315V23.3315H89.3V24.8315H87.5V30.1315C87.5 30.9315 87.9 31.3315 88.7 31.3315H89.3V32.9315C89.1 32.9315 88.7 33.0315 88.2 33.0315C86.3 33.0315 85.6 32.3315 85.6 30.5315V24.8315H84.2V23.2315H85.5V20.9315L87.5 21.0315ZM90.3 28.1315C90.3 25.1315 92.1 23.3315 94.8 23.3315C97.6 23.3315 99.3 25.2315 99.3 28.1315C99.3 31.1315 97.5 32.9315 94.8 32.9315C92.1 32.9315 90.3 31.1315 90.3 28.1315ZM97.4 28.1315C97.4 26.0315 96.4 24.8315 94.9 24.8315C93.3 24.8315 92.4 26.0315 92.4 28.1315C92.4 30.2315 93.4 31.4315 94.9 31.4315C96.4 31.3315 97.4 30.1315 97.4 28.1315ZM101 23.2315H102.8V24.8315C103 23.7315 104 23.1315 105.1 23.1315C105.3 23.1315 105.6 23.1315 105.8 23.2315V25.0315C105.7 24.9315 105.3 24.9315 105 24.9315C103.8 24.9315 103 25.7315 103 27.1315V32.8315H101.1C101 32.8315 101 23.2315 101 23.2315ZM114.9 30.0315C114.7 31.7315 113 32.9315 110.8 32.9315C108 32.9315 106.3 31.1315 106.3 28.1315C106.3 25.1315 108 23.1315 110.8 23.1315C113.4 23.1315 115.1 24.9315 115.1 27.8315V28.5315H108.2V28.7315C108.2 30.4315 109.2 31.4315 110.7 31.4315C111.8 31.4315 112.6 30.9315 112.9 30.1315C112.9 30.0315 114.9 30.0315 114.9 30.0315ZM108.2 27.1315H113C113 25.6315 112 24.7315 110.7 24.7315C109.3 24.7315 108.4 25.6315 108.2 27.1315ZM39.6 9.83149C41.4 9.83149 42.6 10.9315 42.6 12.9315C42.6 14.9315 41.5 16.0315 39.6 16.0315H37.3V9.73149H39.6V9.83149ZM38.4 15.2315H39.6C40.9 15.2315 41.6 14.4315 41.6 12.9315C41.6 11.4315 40.9 10.6315 39.6 10.6315H38.4V15.2315ZM43.7 13.8315C43.7 12.2315 44.5 11.4315 46 11.4315C47.3 11.4315 48.3 12.4315 48.3 13.8315C48.3 15.4315 47.5 16.2315 46 16.2315C44.5 16.2315 43.7 15.2315 43.7 13.8315ZM47.2 13.8315C47.2 12.7315 46.7 12.1315 45.9 12.1315C45.1 12.1315 44.6 12.7315 44.6 13.8315C44.6 14.9315 45.1 15.5315 45.9 15.5315C46.7 15.3315 47.2 14.7315 47.2 13.8315ZM54 16.1315H53L52 12.6315H51.9L50.9 16.1315H49.9L48.6 11.4315H49.6L50.4 15.0315H50.5L51.5 11.4315H52.3L53.3 15.0315H53.4L54.2 11.4315H55.2C55.4 11.4315 54 16.1315 54 16.1315ZM56.5 11.4315H57.3V12.1315H57.4C57.6 11.6315 58.1 11.3315 58.8 11.3315C59.9 11.3315 60.5 11.9315 60.5 13.1315V16.1315H59.5V13.2315C59.5 12.5315 59.1 12.1315 58.5 12.1315C57.8 12.1315 57.4 12.6315 57.4 13.3315V16.1315H56.3C56.5 16.1315 56.5 11.4315 56.5 11.4315ZM62 9.53149H63V16.2315H62V9.53149ZM64.2 13.8315C64.2 12.2315 65 11.4315 66.5 11.4315C67.8 11.4315 68.8 12.4315 68.8 13.8315C68.8 15.4315 68 16.2315 66.5 16.2315C65.1 16.2315 64.2 15.2315 64.2 13.8315ZM67.8 13.8315C67.8 12.7315 67.3 12.1315 66.5 12.1315C65.7 12.1315 65.2 12.7315 65.2 13.8315C65.2 14.9315 65.7 15.5315 66.5 15.5315C67.3 15.3315 67.8 14.7315 67.8 13.8315ZM69.7 14.7315C69.7 13.9315 70.3 13.4315 71.5 13.2315L72.8 13.1315V12.7315C72.8 12.2315 72.4 12.0315 71.8 12.0315C71.3 12.0315 71 12.2315 70.8 12.5315H69.8C69.9 11.7315 70.6 11.2315 71.7 11.2315C72.9 11.2315 73.5 11.8315 73.5 12.8315V16.1315H72.7V15.4315H72.6C72.4 15.9315 71.8 16.1315 71.2 16.1315C70.3 16.2315 69.7 15.6315 69.7 14.7315ZM72.7 14.4315V14.0315L71.5 14.1315C70.9 14.1315 70.5 14.3315 70.5 14.8315C70.5 15.3315 70.9 15.5315 71.3 15.5315C72.2 15.3315 72.7 15.0315 72.7 14.4315ZM74.9 13.8315C74.9 12.3315 75.6 11.4315 76.8 11.4315C77.4 11.4315 78 11.8315 78.2 12.2315H78.3V9.53149H79.3V16.2315H78.5V15.5315H78.4C78.2 16.0315 77.6 16.3315 77 16.3315C75.6 16.2315 74.9 15.2315 74.9 13.8315ZM75.8 13.8315C75.8 14.8315 76.3 15.4315 77.1 15.4315C77.9 15.4315 78.4 14.8315 78.4 13.8315C78.4 12.8315 77.9 12.2315 77.1 12.2315C76.3 12.1315 75.8 12.7315 75.8 13.8315ZM83.2 13.8315C83.2 12.2315 84 11.4315 85.5 11.4315C86.8 11.4315 87.8 12.4315 87.8 13.8315C87.8 15.4315 87 16.2315 85.5 16.2315C84 16.2315 83.2 15.2315 83.2 13.8315ZM86.7 13.8315C86.7 12.7315 86.2 12.1315 85.4 12.1315C84.6 12.1315 84.1 12.7315 84.1 13.8315C84.1 14.9315 84.6 15.5315 85.4 15.5315C86.2 15.3315 86.7 14.7315 86.7 13.8315ZM88.8 11.4315H89.6V12.1315H89.7C89.9 11.6315 90.4 11.3315 91.1 11.3315C92.2 11.3315 92.8 11.9315 92.8 13.1315V16.1315H91.8V13.2315C91.8 12.5315 91.4 12.1315 90.8 12.1315C90.1 12.1315 89.7 12.6315 89.7 13.3315V16.1315H88.7L88.8 11.4315ZM98.1 10.1315V11.3315H99.2V12.1315H98.1V14.5315C98.1 15.0315 98.3 15.2315 98.8 15.2315H99.2V15.9315H98.7C97.6 15.9315 97.3 15.5315 97.3 14.6315V12.1315H96.6V11.3315H97.3V10.1315H98.1ZM100.5 9.53149H101.5V12.2315H101.6C101.8 11.7315 102.3 11.4315 103 11.4315C104 11.4315 104.7 12.0315 104.7 13.2315V16.2315H103.7V13.4315C103.7 12.7315 103.3 12.3315 102.7 12.3315C102 12.3315 101.5 12.8315 101.5 13.5315V16.3315H100.5C100.6 16.3315 100.5 9.53149 100.5 9.53149ZM110 14.9315C109.8 15.7315 109 16.2315 108 16.2315C106.7 16.2315 105.8 15.2315 105.8 13.8315C105.8 12.2315 106.6 11.3315 108 11.3315C109.3 11.3315 110.2 12.1315 110.2 13.7315V14.1315H106.8C106.8 14.9315 107.3 15.4315 108 15.4315C108.6 15.4315 109 15.2315 109.1 14.8315C109.1 14.7315 110 14.9315 110 14.9315ZM106.7 13.3315H109.1C109.1 12.6315 108.6 12.1315 107.9 12.1315C107.3 12.1315 106.8 12.6315 106.7 13.3315Z" fill="#4F5362"/>
<path d="M136.8 1.53159C139.2 1.53159 141.3 3.43159 141.3 6.03159V37.5316C141.3 39.9316 139.4 42.0316 136.8 42.0316H5.3C2.9 42.0316 0.799999 40.1316 0.799999 37.5316V5.93159C0.799999 3.53159 2.7 1.43159 5.3 1.43159H136.8M136.8 0.631592H5.3C2.4 0.631592 0 3.03159 0 5.93159V37.4316C0 40.3316 2.4 42.7316 5.3 42.7316H136.8C139.7 42.7316 142.1 40.3316 142.1 37.4316V5.93159C142 3.03159 139.6 0.631592 136.8 0.631592Z" fill="#4F5362"/>
<defs>
<linearGradient id="paint0_linear_2767_3830" x1="186.11" y1="9.45923" x2="168.471" y2="27.0977" gradientUnits="userSpaceOnUse">
<stop stop-color="#00A0FF"/>
<stop offset="0.007" stop-color="#00A1FF"/>
<stop offset="0.26" stop-color="#00BEFF"/>
<stop offset="0.512" stop-color="#00D2FF"/>
<stop offset="0.76" stop-color="#00DFFF"/>
<stop offset="1" stop-color="#00E3FF"/>
</linearGradient>
<linearGradient id="paint1_linear_2767_3830" x1="198.759" y1="21.3812" x2="173.33" y2="21.3812" gradientUnits="userSpaceOnUse">
<stop stop-color="#FFE000"/>
<stop offset="0.409" stop-color="#FFBD00"/>
<stop offset="0.775" stop-color="#FFA500"/>
<stop offset="1" stop-color="#FF9C00"/>
</linearGradient>
<linearGradient id="paint2_linear_2767_3830" x1="189.261" y1="23.7089" x2="165.343" y2="47.6274" gradientUnits="userSpaceOnUse">
<stop stop-color="#FF3A44"/>
<stop offset="1" stop-color="#C31162"/>
</linearGradient>
<linearGradient id="paint3_linear_2767_3830" x1="170.846" y1="0.515809" x2="181.526" y2="11.1974" gradientUnits="userSpaceOnUse">
<stop stop-color="#32A071"/>
<stop offset="0.069" stop-color="#2DA771"/>
<stop offset="0.476" stop-color="#15CF74"/>
<stop offset="0.801" stop-color="#06E775"/>
<stop offset="1" stop-color="#00F076"/>
</linearGradient>
</defs>
</svg>
