<svg width="207" height="140" viewBox="0 0 207 140" fill="none" xmlns="http://www.w3.org/2000/svg">
<path d="M0 32C0 23.1634 7.16344 16 16 16H191C199.837 16 207 23.1634 207 32V108C207 116.837 199.837 124 191 124H16C7.16345 124 0 116.837 0 108V32Z" fill="white"/>
<path d="M113.654 96.0555C109.481 95.4809 106.026 92.7696 104.852 89.1461C103.866 86.1021 104.448 83.7493 106.238 83.5417C107.048 83.4479 107.574 83.598 108.079 84.0675C108.597 84.5483 108.731 84.9059 108.845 86.1027C109.177 89.6069 111.691 91.9591 115.103 91.9591C116.334 91.9591 117.101 91.788 118.138 91.2822C120.143 90.3037 121.205 88.4399 121.085 86.1085C121.005 84.5475 120.375 83.358 119.111 82.381C118.124 81.6177 116.762 80.9773 114.194 80.0691C110.642 78.8125 109.03 78.0073 107.516 76.7321C104.701 74.361 103.634 70.0044 104.876 65.9463C105.406 64.2145 106.109 63.0278 107.403 61.6818C109.333 59.6738 111.845 58.6415 114.794 58.6449C120.113 58.6506 124.428 62.0432 125.402 66.9832C125.553 67.7531 125.584 68.3354 125.533 69.4435C125.427 71.7274 124.879 73.3609 123.87 74.3988C122.735 75.5653 120.995 75.3587 120.316 73.9769C119.977 73.2881 119.986 72.8768 120.358 71.9815C120.913 70.6466 121.108 69.8727 121.108 69.0007C121.108 67.3256 120.562 65.9239 119.444 64.726C118.624 63.8479 117.709 63.3142 116.46 62.9858C113.25 62.1416 110.142 63.817 109.124 66.94C108.762 68.0497 108.761 69.7335 109.121 70.7744C109.459 71.7513 110.089 72.6617 110.883 73.3198C111.778 74.0613 113.754 75.0412 115.943 75.8289C119.479 77.1011 120.678 77.6762 122.181 78.8219C123.718 79.9935 124.648 81.3481 125.234 83.2721C125.47 84.0483 125.509 84.424 125.509 85.9837C125.51 87.5069 125.468 87.9438 125.244 88.7358C124.2 92.4413 121.411 95.0426 117.584 95.8805C116.542 96.1085 114.652 96.1928 113.654 96.0555ZM67.1805 79.8838C62.9533 79.1981 59.7403 76.444 58.7564 72.663C58.444 71.4625 58.4184 69.3254 58.7021 68.1312C59.1163 66.3873 60.1163 64.8808 61.0757 64.5552C61.8874 64.2797 62.9565 64.6551 63.4909 65.4032C63.9071 65.986 63.8927 66.6785 63.4393 67.8788C62.9334 69.2179 62.8344 69.9285 63.0029 71.0127C63.3454 73.2174 64.8665 74.9159 67.1037 75.5916C68.0015 75.8628 69.7156 75.8458 70.6185 75.5569C73.784 74.5438 75.1962 71.0333 73.6509 68.0189C72.8915 66.5375 71.1678 65.4031 67.6489 64.0685C63.8877 62.6421 62.4888 61.8504 60.9431 60.2733C59.7344 59.04 59.163 58.0539 58.7612 56.5071C58.4129 55.1667 58.413 52.808 58.7613 51.4615C59.4771 48.6939 61.2584 46.4581 63.7606 45.1868C65.2735 44.4182 66.5779 44.1188 68.403 44.1216C71.5599 44.1259 73.921 45.0943 75.9751 47.2258C77.5971 48.9089 78.3568 50.5097 78.6067 52.7706C78.8498 54.9711 78.0525 56.0792 76.3079 55.9649C75.1817 55.8912 74.4662 55.2062 74.3364 54.078C74.1058 52.0729 73.6811 51.019 72.6952 50.005C70.7732 48.0286 67.4627 47.6783 65.1616 49.2077C62.809 50.7714 62.1922 54.349 63.8828 56.6259C64.7634 57.8119 66.2544 58.6858 69.7798 60.0826C72.5122 61.1651 73.4832 61.6313 74.689 62.4396C76.4586 63.6257 77.6169 65.0655 78.206 66.8113C79.5163 70.6941 78.3183 75.1844 75.2962 77.7186C74.37 78.4953 72.725 79.3366 71.5135 79.6533C70.4284 79.9369 68.2288 80.0539 67.1805 79.8838ZM89.7941 79.871C86.5274 79.3893 83.3684 76.9503 81.9646 73.8258C81.2648 72.2683 81.0345 71.1269 81.0444 69.2661C81.0548 67.326 81.2849 66.2736 82.0606 64.6188C83.0822 62.4391 84.7128 60.7869 86.8909 59.7239C88.4526 58.9618 89.2903 58.7547 91.1167 58.6791C93.484 58.5812 95.2878 59.0138 97.0877 60.1111C97.9783 60.6542 99.4143 61.995 100.032 62.8606C100.669 63.7522 101.384 65.3397 101.715 66.5957C102.019 67.7477 102.021 67.799 102.064 72.9388C102.103 77.5683 102.087 78.1771 101.911 78.6513C101.287 80.331 98.6772 80.4371 97.8727 78.8154C97.6673 78.4015 97.646 77.9801 97.6001 73.4239C97.5585 69.2993 97.5176 68.3532 97.3529 67.7074C96.8546 65.7528 95.6881 64.1707 94.184 63.4095C90.5659 61.5785 86.3728 63.8232 85.5942 68.0079C85.3815 69.1514 85.3826 69.5895 85.6012 70.6542C85.8372 71.805 86.3723 72.8744 87.1377 73.7246C88.6837 75.4418 90.3649 75.9749 92.8838 75.547C94.0977 75.3408 94.5793 75.4371 95.1545 76.0012C96.37 77.1932 95.9085 78.8466 94.1741 79.514C92.9484 79.9856 91.4176 80.1104 89.7941 79.871ZM137.05 79.8795C133.34 79.3199 130.225 76.9447 128.718 73.5261C127.571 70.9246 127.596 67.5081 128.781 64.87C130.075 61.9891 132.484 59.8752 135.487 58.9848C136.762 58.6068 139.706 58.5801 141.063 58.9344C145.549 60.106 148.458 63.6057 148.499 67.8783C148.508 68.8627 148.477 69.0253 148.165 69.6103C147.958 69.9988 147.625 70.3948 147.328 70.605C146.427 71.2424 145.846 71.3185 141.885 71.3185C138.394 71.3185 138.281 71.3114 137.778 71.0469C137.087 70.6836 136.809 70.2619 136.748 69.4827C136.708 68.958 136.748 68.7705 136.973 68.4326C137.581 67.5224 137.578 67.523 140.846 67.4558C143.609 67.399 143.792 67.3812 143.955 67.154C144.311 66.6565 143.828 65.3622 142.949 64.4577C141.878 63.3565 140.315 62.7458 138.581 62.751C136.757 62.7567 135.491 63.2854 134.255 64.558C131.715 67.1717 131.664 71.2733 134.137 73.8662C135.4 75.1901 136.82 75.7846 138.718 75.7846C140.599 75.7846 141.354 75.5215 144.291 73.8404C146.863 72.3681 148.846 75.0942 146.702 77.1559C144.531 79.2445 140.459 80.3938 137.05 79.8795Z" fill="#00D639"/>
</svg>
