<svg width="208" height="140" viewBox="0 0 208 140" fill="none" xmlns="http://www.w3.org/2000/svg">
<path d="M0 32C0 23.1634 7.16344 16 16 16H192C200.837 16 208 23.1634 208 32V108C208 116.837 200.837 124 192 124H16C7.16344 124 0 116.837 0 108V32Z" fill="white"/>
<path d="M51.2612 59.1216L57.1599 64.8716L54.2105 65.3943L51.2612 64.8716L50.7249 61.9966L51.2612 59.1216Z" fill="#188038"/>
<path d="M51.2612 64.8716V59.1216H41.6087C40.7199 59.1216 40 59.8233 40 60.6898V80.5534C40 81.4198 40.7199 82.1216 41.6087 82.1216H55.5511C56.44 82.1216 57.1599 81.4198 57.1599 80.5534V64.8716H51.2612Z" fill="#34A853"/>
<path d="M43.2175 68.0079V75.5875H53.9424V68.0079H43.2175ZM47.9096 74.2807H44.5581V72.4511H47.9096V74.2807ZM47.9096 71.1443H44.5581V69.3148H47.9096V71.1443ZM52.6018 74.2807H49.2502V72.4511H52.6018V74.2807ZM52.6018 71.1443H49.2502V69.3148H52.6018V71.1443Z" fill="white"/>
<path d="M73.6348 70.0669H79.1245C79.1454 70.1998 79.1665 70.3429 79.1874 70.4963C79.2084 70.6394 79.2189 70.7928 79.2189 70.9563C79.2189 71.6105 79.114 72.2596 78.9043 72.9036C78.6946 73.5476 78.338 74.1201 77.8346 74.6209C77.3208 75.1423 76.7178 75.5461 76.0257 75.8323C75.3336 76.1185 74.5419 76.2616 73.6505 76.2616C72.8431 76.2616 72.0775 76.1185 71.3539 75.8323C70.6409 75.5461 70.0169 75.1474 69.4821 74.6363C68.9473 74.1252 68.5226 73.5221 68.208 72.8269C67.9039 72.1216 67.7518 71.3549 67.7518 70.5269C67.7518 69.6989 67.9039 68.9374 68.208 68.2423C68.5226 67.5369 68.9473 66.9288 69.4821 66.4176C70.0169 65.9065 70.6409 65.5078 71.3539 65.2216C72.0775 64.9354 72.8431 64.7923 73.6505 64.7923C74.5104 64.7923 75.3021 64.9405 76.0257 65.2369C76.7598 65.5334 77.3733 65.9474 77.8661 66.4789L76.6234 67.6903C76.2564 67.2916 75.8212 66.9849 75.3179 66.7703C74.825 66.5556 74.264 66.4483 73.6348 66.4483C73.0999 66.4483 72.5861 66.5454 72.0932 66.7396C71.6004 66.9338 71.1652 67.2098 70.7877 67.5676C70.4101 67.9152 70.1113 68.3394 69.8911 68.8403C69.6708 69.3412 69.5607 69.9034 69.5607 70.5269C69.5607 71.1505 69.6708 71.7128 69.8911 72.2136C70.1113 72.7145 70.4101 73.1438 70.7877 73.5016C71.1652 73.8492 71.6004 74.1201 72.0932 74.3143C72.5861 74.5085 73.1052 74.6056 73.6505 74.6056C74.3741 74.6056 74.9561 74.4983 75.3965 74.2836C75.8475 74.0689 76.225 73.8185 76.5291 73.5323C76.7493 73.3278 76.9433 73.0621 77.1111 72.7349C77.2789 72.3976 77.389 72.0296 77.4414 71.6309H73.6348V70.0669ZM84.2918 68.2576C84.879 68.2576 85.4191 68.3598 85.9119 68.5643C86.4048 68.7585 86.8295 69.0345 87.1861 69.3923C87.5426 69.7501 87.8205 70.1743 88.0197 70.6649C88.219 71.1556 88.3186 71.6872 88.3186 72.2596C88.3186 72.8321 88.219 73.3636 88.0197 73.8543C87.8205 74.3449 87.5426 74.7692 87.1861 75.1269C86.8295 75.4848 86.4048 75.7658 85.9119 75.9703C85.4191 76.1645 84.879 76.2616 84.2918 76.2616C83.7045 76.2616 83.1644 76.1645 82.6716 75.9703C82.1787 75.7658 81.754 75.4848 81.3975 75.1269C81.0409 74.7692 80.763 74.3449 80.5638 73.8543C80.3645 73.3636 80.2649 72.8321 80.2649 72.2596C80.2649 71.6872 80.3645 71.1556 80.5638 70.6649C80.763 70.1743 81.0409 69.7501 81.3975 69.3923C81.754 69.0345 82.1787 68.7585 82.6716 68.5643C83.1644 68.3598 83.7045 68.2576 84.2918 68.2576ZM84.2918 74.6823C84.5854 74.6823 84.8685 74.6261 85.1412 74.5136C85.4138 74.4012 85.655 74.2428 85.8647 74.0383C86.085 73.8338 86.258 73.5834 86.3838 73.2869C86.5097 72.9803 86.5726 72.6378 86.5726 72.2596C86.5726 71.8814 86.5097 71.5441 86.3838 71.2476C86.258 70.9409 86.085 70.6854 85.8647 70.4809C85.655 70.2765 85.4138 70.1181 85.1412 70.0056C84.8685 69.8932 84.5854 69.8369 84.2918 69.8369C83.9981 69.8369 83.715 69.8932 83.4423 70.0056C83.1697 70.1181 82.9233 70.2765 82.703 70.4809C82.4933 70.6854 82.3255 70.9409 82.1997 71.2476C82.0738 71.5441 82.0109 71.8814 82.0109 72.2596C82.0109 72.6378 82.0738 72.9803 82.1997 73.2869C82.3255 73.5834 82.4933 73.8338 82.703 74.0383C82.9233 74.2428 83.1697 74.4012 83.4423 74.5136C83.715 74.6261 83.9981 74.6823 84.2918 74.6823ZM93.2905 68.2576C93.8778 68.2576 94.4178 68.3598 94.9106 68.5643C95.4036 68.7585 95.8283 69.0345 96.1848 69.3923C96.5413 69.7501 96.8192 70.1743 97.0184 70.6649C97.2177 71.1556 97.3173 71.6872 97.3173 72.2596C97.3173 72.8321 97.2177 73.3636 97.0184 73.8543C96.8192 74.3449 96.5413 74.7692 96.1848 75.1269C95.8283 75.4848 95.4036 75.7658 94.9106 75.9703C94.4178 76.1645 93.8778 76.2616 93.2905 76.2616C92.7032 76.2616 92.1632 76.1645 91.6703 75.9703C91.1774 75.7658 90.7527 75.4848 90.3962 75.1269C90.0397 74.7692 89.7618 74.3449 89.5625 73.8543C89.3633 73.3636 89.2636 72.8321 89.2636 72.2596C89.2636 71.6872 89.3633 71.1556 89.5625 70.6649C89.7618 70.1743 90.0397 69.7501 90.3962 69.3923C90.7527 69.0345 91.1774 68.7585 91.6703 68.5643C92.1632 68.3598 92.7032 68.2576 93.2905 68.2576ZM93.2905 74.6823C93.5841 74.6823 93.8672 74.6261 94.1399 74.5136C94.4126 74.4012 94.6537 74.2428 94.8634 74.0383C95.0837 73.8338 95.2567 73.5834 95.3825 73.2869C95.5084 72.9803 95.5713 72.6378 95.5713 72.2596C95.5713 71.8814 95.5084 71.5441 95.3825 71.2476C95.2567 70.9409 95.0837 70.6854 94.8634 70.4809C94.6537 70.2765 94.4126 70.1181 94.1399 70.0056C93.8672 69.8932 93.5841 69.8369 93.2905 69.8369C92.9969 69.8369 92.7137 69.8932 92.4411 70.0056C92.1684 70.1181 91.922 70.2765 91.7017 70.4809C91.492 70.6854 91.3242 70.9409 91.1984 71.2476C91.0725 71.5441 91.0096 71.8814 91.0096 72.2596C91.0096 72.6378 91.0725 72.9803 91.1984 73.2869C91.3242 73.5834 91.492 73.8338 91.7017 74.0383C91.922 74.2428 92.1684 74.4012 92.4411 74.5136C92.7137 74.6261 92.9969 74.6823 93.2905 74.6823ZM102.195 79.5736C101.66 79.5736 101.183 79.5021 100.763 79.3589C100.354 79.2261 99.9979 79.0523 99.6938 78.8376C99.3897 78.6229 99.138 78.3828 98.9388 78.1169C98.75 77.8512 98.6084 77.5956 98.5141 77.3503L100.181 76.6909C100.328 77.0896 100.58 77.4116 100.936 77.6569C101.293 77.9125 101.712 78.0403 102.195 78.0403C102.918 78.0403 103.479 77.8256 103.878 77.3963C104.287 76.9669 104.491 76.3741 104.491 75.6176V75.0043H104.397C104.156 75.3416 103.82 75.6228 103.39 75.8476C102.971 76.0725 102.478 76.1849 101.912 76.1849C101.44 76.1849 100.984 76.0878 100.543 75.8936C100.103 75.6994 99.7095 75.4285 99.3635 75.0809C99.0279 74.7334 98.7605 74.3143 98.5613 73.8236C98.362 73.3329 98.2624 72.7963 98.2624 72.2136C98.2624 71.6309 98.362 71.0994 98.5613 70.6189C98.7605 70.1283 99.0279 69.7092 99.3635 69.3616C99.7095 69.0141 100.103 68.7432 100.543 68.5489C100.984 68.3548 101.44 68.2576 101.912 68.2576C102.478 68.2576 102.971 68.3701 103.39 68.5949C103.82 68.8198 104.156 69.1009 104.397 69.4383H104.491V68.5029H106.175V75.5869C106.175 76.2309 106.07 76.7983 105.86 77.2889C105.661 77.7898 105.383 78.2089 105.026 78.5463C104.68 78.8836 104.261 79.1392 103.768 79.3129C103.285 79.4868 102.761 79.5736 102.195 79.5736ZM102.258 74.6056C102.541 74.6056 102.819 74.5545 103.091 74.4523C103.364 74.3501 103.6 74.1968 103.799 73.9923C104.009 73.7878 104.177 73.5374 104.303 73.2409C104.429 72.9445 104.491 72.6021 104.491 72.2136C104.491 71.8354 104.429 71.4981 104.303 71.2016C104.177 70.8949 104.009 70.6445 103.799 70.4503C103.6 70.2458 103.364 70.0925 103.091 69.9903C102.819 69.8778 102.541 69.8216 102.258 69.8216C101.964 69.8216 101.681 69.8778 101.408 69.9903C101.146 70.0925 100.91 70.2458 100.701 70.4503C100.491 70.6548 100.323 70.9052 100.197 71.2016C100.071 71.4981 100.008 71.8354 100.008 72.2136C100.008 72.5918 100.071 72.9292 100.197 73.2256C100.323 73.5221 100.491 73.7725 100.701 73.9769C100.91 74.1814 101.146 74.3398 101.408 74.4523C101.681 74.5545 101.964 74.6056 102.258 74.6056ZM107.993 76.0163V65.0376H109.739V76.0163H107.993ZM118.619 74.2223C118.294 74.8049 117.832 75.2905 117.234 75.6789C116.637 76.0674 115.903 76.2616 115.032 76.2616C114.456 76.2616 113.921 76.1645 113.428 75.9703C112.946 75.7658 112.526 75.4848 112.169 75.1269C111.813 74.7692 111.535 74.3501 111.336 73.8696C111.137 73.3789 111.037 72.8423 111.037 72.2596C111.037 71.7178 111.131 71.2068 111.32 70.7263C111.509 70.2356 111.771 69.8114 112.106 69.4536C112.453 69.0856 112.867 68.7943 113.349 68.5796C113.832 68.3649 114.367 68.2576 114.954 68.2576C115.551 68.2576 116.081 68.3548 116.542 68.5489C117.014 68.7432 117.413 69.0141 117.738 69.3616C118.063 69.7092 118.31 70.1283 118.477 70.6189C118.656 71.1096 118.744 71.6463 118.744 72.2289C118.744 72.2801 118.744 72.3261 118.744 72.3669C118.734 72.4181 118.729 72.4641 118.729 72.5049C118.719 72.5458 118.713 72.5868 118.713 72.6276H112.783C112.814 72.9854 112.904 73.2972 113.05 73.5629C113.198 73.8288 113.376 74.0485 113.585 74.2223C113.805 74.3961 114.047 74.5238 114.309 74.6056C114.571 74.6874 114.828 74.7283 115.079 74.7283C115.583 74.7283 115.997 74.6108 116.322 74.3756C116.647 74.1405 116.915 73.8492 117.124 73.5016L118.619 74.2223ZM116.998 71.3243C116.978 71.1709 116.926 71.0023 116.841 70.8183C116.768 70.6241 116.647 70.4503 116.479 70.2969C116.322 70.1334 116.113 69.9954 115.85 69.8829C115.598 69.7705 115.29 69.7143 114.922 69.7143C114.419 69.7143 113.984 69.8625 113.617 70.1589C113.26 70.4452 113.019 70.8336 112.893 71.3243H116.998ZM130.366 73.0876C130.366 74.0485 130.004 74.8203 129.281 75.4029C128.546 75.9754 127.655 76.2616 126.607 76.2616C125.673 76.2616 124.85 75.9958 124.137 75.4643C123.423 74.9328 122.931 74.2069 122.658 73.2869L124.043 72.7349C124.137 73.0621 124.268 73.3585 124.436 73.6243C124.603 73.8901 124.798 74.1201 125.018 74.3143C125.248 74.4983 125.5 74.6465 125.773 74.7589C126.045 74.8612 126.333 74.9123 126.638 74.9123C127.299 74.9123 127.838 74.7488 128.258 74.4216C128.677 74.0843 128.887 73.6396 128.887 73.0876C128.887 72.6276 128.714 72.2341 128.368 71.9069C128.043 71.5901 127.435 71.2834 126.544 70.9869C125.641 70.6701 125.081 70.4554 124.861 70.3429C123.665 69.7501 123.067 68.8761 123.067 67.7209C123.067 66.9134 123.398 66.2234 124.058 65.6509C124.729 65.0785 125.553 64.7923 126.528 64.7923C127.387 64.7923 128.132 65.0069 128.762 65.4363C129.391 65.8554 129.81 66.3818 130.02 67.0156L128.667 67.5676C128.541 67.1588 128.29 66.8214 127.912 66.5556C127.545 66.2796 127.094 66.1416 126.559 66.1416C125.993 66.1416 125.515 66.2949 125.128 66.6016C124.74 66.8878 124.546 67.2609 124.546 67.7209C124.546 68.0992 124.698 68.4263 125.002 68.7023C125.337 68.9783 126.066 69.3054 127.189 69.6836C128.331 70.0618 129.144 70.5269 129.627 71.0789C130.119 71.6208 130.366 72.2903 130.366 73.0876ZM131.915 65.0376H133.362V68.5029L133.299 69.5456H133.362C133.582 69.1776 133.917 68.8709 134.369 68.6256C134.83 68.3803 135.307 68.2576 135.8 68.2576C136.744 68.2576 137.467 68.5234 137.971 69.0549C138.484 69.5763 138.741 70.3225 138.741 71.2936V76.0163H137.294V71.5696C137.294 70.2203 136.681 69.5456 135.454 69.5456C134.866 69.5456 134.369 69.7858 133.96 70.2663C133.561 70.7365 133.362 71.2885 133.362 71.9223V76.0163H131.915V65.0376ZM143.959 76.2616C142.826 76.2616 141.893 75.8834 141.159 75.1269C140.425 74.3705 140.058 73.4148 140.058 72.2596C140.058 71.1148 140.415 70.1641 141.127 69.4076C141.841 68.6409 142.753 68.2576 143.864 68.2576C145.008 68.2576 145.915 68.6205 146.586 69.3463C147.268 70.0618 147.608 71.0688 147.608 72.3669L147.592 72.5203H141.536C141.558 73.2563 141.809 73.8492 142.291 74.2989C142.774 74.7488 143.351 74.9736 144.022 74.9736C144.945 74.9736 145.668 74.5238 146.192 73.6243L147.482 74.2376C147.136 74.8714 146.654 75.3672 146.035 75.7249C145.427 76.0828 144.735 76.2616 143.959 76.2616ZM141.646 71.3549H146.067C146.025 70.8336 145.805 70.4043 145.406 70.0669C145.018 69.7194 144.494 69.5456 143.833 69.5456C143.288 69.5456 142.816 69.7092 142.417 70.0363C142.03 70.3634 141.772 70.8029 141.646 71.3549ZM152.527 76.2616C151.395 76.2616 150.462 75.8834 149.727 75.1269C148.994 74.3705 148.626 73.4148 148.626 72.2596C148.626 71.1148 148.983 70.1641 149.696 69.4076C150.409 68.6409 151.322 68.2576 152.433 68.2576C153.576 68.2576 154.483 68.6205 155.154 69.3463C155.836 70.0618 156.177 71.0688 156.177 72.3669L156.161 72.5203H150.105C150.126 73.2563 150.378 73.8492 150.86 74.2989C151.343 74.7488 151.919 74.9736 152.59 74.9736C153.513 74.9736 154.237 74.5238 154.761 73.6243L156.051 74.2376C155.705 74.8714 155.223 75.3672 154.604 75.7249C153.996 76.0828 153.304 76.2616 152.527 76.2616ZM150.215 71.3549H154.635C154.594 70.8336 154.373 70.4043 153.974 70.0669C153.587 69.7194 153.062 69.5456 152.401 69.5456C151.857 69.5456 151.385 69.7092 150.986 70.0363C150.598 70.3634 150.341 70.8029 150.215 71.3549ZM160.38 76.1389C159.751 76.1389 159.227 75.9498 158.807 75.5716C158.398 75.1934 158.189 74.6669 158.178 73.9923V69.7909H156.825V68.5029H158.178V66.2029H159.625V68.5029H161.513V69.7909H159.625V73.5323C159.625 74.0332 159.724 74.3756 159.924 74.5596C160.123 74.7334 160.349 74.8203 160.6 74.8203C160.715 74.8203 160.825 74.8101 160.931 74.7896C161.046 74.7589 161.151 74.7232 161.245 74.6823L161.701 75.9396C161.324 76.0725 160.883 76.1389 160.38 76.1389ZM169 73.9309C169 74.5852 168.706 75.1372 168.119 75.5869C167.532 76.0368 166.793 76.2616 165.901 76.2616C165.125 76.2616 164.443 76.0674 163.856 75.6789C163.269 75.2803 162.85 74.7589 162.598 74.1149L163.888 73.5783C164.077 74.0281 164.349 74.3808 164.706 74.6363C165.073 74.8816 165.472 75.0043 165.901 75.0043C166.362 75.0043 166.746 74.9072 167.049 74.7129C167.364 74.5188 167.521 74.2888 167.521 74.0229C167.521 73.5425 167.144 73.1898 166.389 72.9649L165.068 72.6429C163.568 72.2749 162.818 71.5696 162.818 70.5269C162.818 69.8421 163.101 69.2952 163.668 68.8863C164.245 68.4672 164.978 68.2576 165.87 68.2576C166.551 68.2576 167.165 68.4161 167.71 68.7329C168.266 69.0498 168.654 69.4741 168.874 70.0056L167.584 70.5269C167.438 70.2101 167.196 69.9648 166.861 69.7909C166.535 69.6069 166.169 69.5149 165.76 69.5149C165.382 69.5149 165.041 69.6069 164.737 69.7909C164.443 69.9749 164.297 70.1998 164.297 70.4656C164.297 70.8949 164.711 71.2016 165.539 71.3856L166.703 71.6769C168.234 72.0449 169 72.7963 169 73.9309Z" fill="#5F6368"/>
</svg>
