<svg width="208" height="140" viewBox="0 0 208 140" fill="none" xmlns="http://www.w3.org/2000/svg">
<path d="M0 32C0 23.1634 7.16344 16 16 16H192C200.837 16 208 23.1634 208 32V108C208 116.837 200.837 124 192 124H16C7.16344 124 0 116.837 0 108V32Z" fill="white"/>
<path fill-rule="evenodd" clip-rule="evenodd" d="M53.4117 65.5877C53.9421 65.0383 54.5436 64.5623 55.2001 64.1722C55.2086 64.1652 55.2185 64.1601 55.229 64.157C55.2396 64.154 55.2507 64.1532 55.2616 64.1546C55.2725 64.1559 55.283 64.1595 55.2925 64.1651C55.302 64.1706 55.3102 64.1781 55.3168 64.1869C55.3236 64.1957 55.3286 64.2056 55.3315 64.2163C55.3344 64.227 55.3352 64.2381 55.3339 64.2491C55.3325 64.26 55.329 64.2706 55.3235 64.2802C55.318 64.2898 55.3107 64.2983 55.302 64.3051C54.9933 64.4926 54.6869 64.6972 54.3945 64.9268C54.1065 65.1535 53.834 65.4061 53.5704 65.6689C53.6395 65.7254 53.6906 65.8009 53.7172 65.8861C53.7439 65.9713 53.7449 66.0624 53.7203 66.1482L53.741 66.1496C53.913 65.8978 56.606 63.0941 59.1381 64.0451C59.5575 64.2017 59.714 65.7236 58.4824 67.3274C58.0378 67.9048 57.7949 67.6494 57.4515 67.8089C59.1159 69.2657 57.0949 71.3023 55.4467 71.4773C54.8368 71.5423 54.2963 70.411 53.6103 69.8173L53.2957 70.1327L52.9819 69.8173C52.2952 70.411 51.7547 71.5423 51.1455 71.4773C49.4973 71.303 47.4755 69.2657 49.1407 67.8089C48.7973 67.6486 48.5544 67.9048 48.1098 67.3274C46.8782 65.7236 47.034 64.2024 47.4534 64.0451C49.9854 63.0933 52.6784 65.8971 52.8505 66.1496L52.8711 66.1482C52.847 66.0638 52.8475 65.9743 52.8728 65.8902C52.8981 65.8062 52.947 65.7311 53.0137 65.6741C52.7486 65.4097 52.4746 65.1543 52.1837 64.9261C51.892 64.6964 51.5856 64.4926 51.2769 64.3043C51.2594 64.2905 51.2481 64.2704 51.2453 64.2483C51.2426 64.2262 51.2486 64.2039 51.2621 64.1862C51.2687 64.1773 51.2769 64.1699 51.2864 64.1643C51.2959 64.1588 51.3064 64.1552 51.3173 64.1538C51.3282 64.1524 51.3393 64.1533 51.3499 64.1563C51.3604 64.1593 51.3703 64.1645 51.3788 64.1714C52.022 64.548 52.6097 65.0199 53.1702 65.5899C53.249 65.5674 53.3324 65.5666 53.4117 65.5877ZM164.283 73.3329C163.889 73.4511 163.488 73.5523 163.08 73.6062C162.625 73.658 162.168 73.6822 161.711 73.6785C161.457 73.6774 161.204 73.6634 160.952 73.6364C160.011 73.5279 159.049 73.2222 158.303 72.6241L158.169 72.5074C157.868 72.2291 157.623 71.8957 157.447 71.5253C157.367 71.3424 157.308 71.1512 157.27 70.9552L157.245 70.7869C157.208 70.3918 157.256 69.9933 157.384 69.618C157.406 69.5612 157.428 69.5048 157.452 69.4489C157.635 69.0514 157.911 68.7035 158.256 68.4343C158.544 68.212 158.854 68.0429 159.186 67.8967C160.07 67.5224 161.032 67.3363 161.979 67.2144C162.571 67.1469 163.165 67.0952 163.759 67.0594C164.449 67.0151 165.138 66.9789 165.827 66.9516C165.827 66.7932 165.797 66.6363 165.738 66.4893C165.685 66.3766 165.61 66.2759 165.517 66.1932C165.276 65.982 164.969 65.8809 164.664 65.8092C164.508 65.776 164.35 65.7503 164.192 65.7324C163.52 65.6618 162.844 65.648 162.17 65.6911C161.086 65.774 160.013 65.9581 158.964 66.2412L158.854 66.2707H158.349V64.1515C159.518 63.9324 160.7 63.7876 161.887 63.718C162.544 63.6871 163.203 63.6862 163.86 63.7151C164.355 63.7365 164.85 63.7756 165.339 63.8502C166.094 63.972 166.84 64.1936 167.493 64.6019C167.581 64.6603 167.666 64.7208 167.75 64.785C167.965 64.9601 168.141 65.1432 168.303 65.3684C168.376 65.4799 168.44 65.5914 168.5 65.711C168.585 65.9001 168.647 66.0854 168.697 66.2862C168.742 66.5004 168.765 66.7071 168.774 66.925L168.776 73.4511L165.828 73.4156V72.6876C165.576 72.8168 165.327 72.9453 165.068 73.0553C164.811 73.1607 164.549 73.2533 164.283 73.3329ZM156.353 66.1053C156.146 66.0994 155.938 66.0972 155.73 66.0987C154.811 66.1102 153.904 66.3166 153.07 66.7042C152.884 66.7935 152.701 66.8895 152.523 66.9951V73.4319H149.563V63.9108H152.523V64.9999C153.187 64.6462 153.872 64.3339 154.6 64.1345C155.069 64.0076 155.55 63.9335 156.035 63.9137C156.211 63.9085 156.387 63.9108 156.562 63.9145C156.867 63.9218 157.169 63.9602 157.471 63.9927V66.1681H156.993C156.782 66.1303 156.568 66.1093 156.353 66.1053ZM142.301 73.5936C141.932 73.5641 141.567 73.5212 141.201 73.4644C140.865 73.4062 140.531 73.3335 140.201 73.2466C139.893 73.1604 139.591 73.0581 139.295 72.9401C139.064 72.841 138.838 72.7324 138.617 72.6145C138.409 72.4946 138.206 72.3645 138.011 72.2246C137.865 72.1128 137.724 71.9948 137.587 71.8709C137.395 71.6852 137.219 71.4842 137.059 71.2698C136.959 71.1262 136.867 70.9773 136.782 70.8238C136.702 70.6681 136.63 70.5084 136.566 70.3453C136.507 70.1774 136.456 70.0069 136.413 69.8343C136.355 69.5636 136.317 69.2889 136.3 69.0125C136.291 68.775 136.294 68.5371 136.308 68.2999C136.33 68.0703 136.362 67.8502 136.411 67.6235C136.452 67.45 136.5 67.2831 136.558 67.1133C136.652 66.8629 136.761 66.6318 136.893 66.4C136.986 66.2478 137.083 66.1053 137.189 65.9628C137.358 65.7506 137.542 65.5514 137.74 65.3669C137.917 65.2107 138.103 65.064 138.296 64.9276C138.454 64.8197 138.616 64.7186 138.784 64.6211C139.089 64.4535 139.396 64.3132 139.722 64.1877C140.014 64.0821 140.305 63.9949 140.606 63.9204C140.87 63.8605 141.131 63.8111 141.399 63.7705L141.731 63.7298C142.017 63.7012 142.305 63.6817 142.593 63.6715C143.728 63.6464 144.889 63.7284 145.963 64.119C146.347 64.2616 146.714 64.4476 147.056 64.6735C147.303 64.8404 147.522 65.0265 147.732 65.2384L147.887 65.4083C148.147 65.7243 148.354 66.0596 148.504 66.4398C148.661 66.8615 148.735 67.2934 148.758 67.7409C148.778 68.2128 148.764 68.6839 148.764 69.1557H139.304C139.337 69.5168 139.443 69.855 139.623 70.1696C139.727 70.3387 139.843 70.4849 139.982 70.6252C140.139 70.7743 140.303 70.8969 140.484 71.0106C140.689 71.1317 140.895 71.2299 141.115 71.3156C141.431 71.4315 141.745 71.5113 142.074 71.5711C143.289 71.7712 144.548 71.6937 145.743 71.4145C146.105 71.3274 146.463 71.2189 146.816 71.0992C147.21 70.9651 147.594 70.8012 147.963 70.6089H148.506V72.8197L147.256 73.1402C146.911 73.2281 146.565 73.3093 146.217 73.375C145.66 73.4762 145.097 73.567 144.534 73.6069C143.79 73.6512 143.044 73.6468 142.301 73.5936ZM137.847 63.9108L132.31 73.4312H129.863L124.368 63.9108H127.617L131.167 70.383L134.682 63.9108H137.847ZM120.777 73.2835C120.302 73.4341 119.82 73.5582 119.326 73.618C118.902 73.6638 118.475 73.6763 118.048 73.6778C117.547 73.678 117.048 73.6221 116.56 73.5109C115.867 73.3455 115.196 73.0708 114.638 72.6233L114.505 72.5067C114.203 72.2287 113.958 71.895 113.782 71.5238C113.737 71.4189 113.697 71.3114 113.664 71.2019C113.58 70.9012 113.551 70.5877 113.579 70.2766C113.613 69.8689 113.743 69.475 113.959 69.1277C114.106 68.9 114.285 68.6944 114.49 68.517C114.761 68.2924 115.062 68.1047 115.382 67.9588C116.057 67.6508 116.78 67.4699 117.507 67.3363C118.536 67.1546 119.577 67.0889 120.616 67.0269C121.132 66.9968 121.647 66.9712 122.163 66.9501C122.16 66.7138 122.109 66.49 121.961 66.3025C121.927 66.2635 121.891 66.2263 121.854 66.191C121.613 65.9805 121.306 65.8794 120.999 65.8077C120.843 65.7745 120.686 65.7489 120.528 65.731C119.856 65.6603 119.18 65.6465 118.505 65.6896C117.422 65.7671 116.349 65.9621 115.299 66.2397L115.191 66.2693H114.686V64.15C114.965 64.0998 115.241 64.0503 115.52 64.0082C115.92 63.9493 116.321 63.8953 116.723 63.8465C118.17 63.6667 119.633 63.6424 121.085 63.7742C121.531 63.8199 121.968 63.8864 122.4 64.0001C122.869 64.1264 123.316 64.2962 123.738 64.5421C123.919 64.6536 124.083 64.774 124.243 64.915C124.317 64.9844 124.386 65.0546 124.455 65.1306C124.608 65.3123 124.729 65.4947 124.836 65.7073C124.893 65.8314 124.939 65.9532 124.98 66.0839C125.038 66.2892 125.074 66.4893 125.096 66.7035C125.104 66.8127 125.109 66.9228 125.11 67.032V73.4282H122.164V72.6846L122.111 72.7119C121.801 72.8714 121.492 73.0235 121.166 73.1483C121.038 73.1977 120.908 73.2427 120.777 73.2835ZM109.517 65.9643C109.138 65.7753 108.688 65.7487 108.271 65.7413C108.159 65.7396 108.047 65.7423 107.935 65.7494C107.018 65.8225 106.143 66.2102 105.356 66.6628L105.322 66.6828C105.34 66.8578 105.35 67.0283 105.352 67.2041V73.4304H102.393V67.9012C102.392 67.525 102.363 67.1495 102.304 66.778C102.264 66.5779 102.205 66.3963 102.081 66.2331C101.973 66.0984 101.834 65.9928 101.675 65.9259C101.283 65.762 100.839 65.742 100.418 65.7398C99.9729 65.7472 99.532 65.825 99.1115 65.9702C98.5826 66.1539 98.0729 66.3889 97.5896 66.6717V73.4304H94.63V63.9108H97.5896V64.6388C98.2239 64.277 98.901 63.975 99.6143 63.8118C100.44 63.6309 101.3 63.6213 102.135 63.7468C102.502 63.8059 102.858 63.893 103.21 64.0193L103.398 64.0939C103.901 64.3184 104.334 64.6226 104.667 65.0642C105.454 64.5288 106.31 64.0732 107.238 63.8421C107.666 63.7409 108.102 63.6828 108.541 63.6686C109.343 63.6464 110.163 63.7254 110.921 63.9964C111.16 64.088 111.381 64.1951 111.6 64.3258C111.761 64.4269 111.906 64.5347 112.05 64.658C112.238 64.8271 112.395 65.0044 112.542 65.2082C112.696 65.4356 112.819 65.666 112.911 65.9237C113.054 66.3402 113.107 66.7699 113.113 67.21V73.4304H110.153V67.9012C110.153 67.525 110.123 67.1495 110.064 66.778L109.841 66.2331C109.754 66.1213 109.643 66.0297 109.517 65.9643ZM97.6059 62.9316H94.6175V60.9807L97.6059 60.98V62.9316ZM93.0085 66.1031C92.5905 66.0935 92.177 66.092 91.7613 66.1393C91.0512 66.2224 90.3595 66.4212 89.7137 66.7278C89.5445 66.8097 89.3787 66.8984 89.2167 66.9936V73.4304H86.2571V63.9108H89.2167V64.9999C89.8813 64.647 90.5665 64.3339 91.2946 64.1345C91.7631 64.0077 92.2444 63.9336 92.7294 63.9137C92.9051 63.9085 93.0808 63.9108 93.2566 63.9145C93.5608 63.9218 93.8628 63.9602 94.1648 63.9927V66.1681H93.6856C93.606 66.153 93.526 66.1405 93.4456 66.1304C93.3003 66.1154 93.1545 66.1063 93.0085 66.1031ZM84.7367 71.4544C84.6235 71.5923 84.5043 71.7251 84.3793 71.8524C84.1482 72.0761 83.9001 72.2815 83.6372 72.4668C83.4465 72.5962 83.2493 72.716 83.0465 72.8257C82.839 72.9335 82.6308 73.0287 82.4137 73.1173C82.0984 73.2377 81.7838 73.3337 81.4567 73.4112C81.1628 73.4747 80.8719 73.5212 80.5728 73.5559C79.7815 73.6325 78.9841 73.6189 78.1959 73.5153C77.6382 73.4364 77.0892 73.3056 76.5558 73.1247V80.1596L73.597 78.2028V63.9108H76.5558V64.6159C77.0541 64.3684 77.5711 64.1605 78.1021 63.9942C78.6256 63.8362 79.1645 63.735 79.7096 63.6922C80.3769 63.6392 81.0481 63.6632 81.71 63.7638C81.9723 63.8091 82.2319 63.869 82.4875 63.9432C82.7319 64.02 82.9638 64.1087 83.1964 64.2157C83.3448 64.2881 83.4873 64.3641 83.6284 64.4483C83.9068 64.6241 84.1527 64.8138 84.3912 65.0391C84.5617 65.2082 84.7139 65.3809 84.8593 65.5707C84.928 65.6652 84.993 65.762 85.0557 65.8602C85.2411 66.1696 85.3821 66.4797 85.4944 66.8231C85.5534 67.0195 85.6014 67.213 85.6398 67.4131C85.69 67.7106 85.7166 68.0023 85.7262 68.3029C85.7292 68.5879 85.7166 68.8633 85.6856 69.1461C85.6554 69.3716 85.6125 69.5952 85.5571 69.8159C85.5095 69.9867 85.4545 70.1555 85.3925 70.3217C85.2933 70.5646 85.1758 70.7996 85.041 71.0247C84.9452 71.1718 84.8437 71.3152 84.7367 71.4544ZM53.2965 57.3086L53.8665 57.3234L54.4299 57.3662L54.9845 57.4371L55.5302 57.5353L56.067 57.6593L56.5935 57.81L57.1096 57.985L57.614 58.1843L58.1065 58.4073L58.585 58.6525L59.0502 58.9205L59.5006 59.2107L59.9363 59.5209L60.3557 59.8509L60.7596 60.2002L61.1458 60.5679L61.5143 60.9541L61.8643 61.3573L62.1936 61.7775L62.5045 62.2124L62.794 62.6636L63.062 63.1288L63.3079 63.6065L63.5309 64.0991L63.7303 64.6034L63.9045 65.1181L64.0552 65.6446L64.1792 66.1814L64.2775 66.7271L64.3483 67.2809L64.3912 67.8443L64.4059 68.4144C64.4052 68.5148 64.4037 68.6145 64.4008 68.7149L64.3853 69.0206C64.3779 69.124 64.3698 69.2266 64.3602 69.3307C64.3491 69.4348 64.338 69.5382 64.3254 69.6423C64.298 69.8504 64.2665 70.058 64.2309 70.2648C64.2058 70.4014 64.18 70.5373 64.1519 70.6732C64.1023 70.9051 64.0469 71.1358 63.9858 71.3651L63.8949 71.6811L66.6485 73.4873L66.7689 73.1365L66.8656 72.8382L66.9572 72.534L67.0436 72.2268L67.1248 71.9145L67.2016 71.5991L67.2717 71.2809L67.3367 70.9619L67.395 70.6407L67.446 70.3187L67.4896 69.9975L67.5095 69.8365L67.542 69.5161L67.556 69.3566L67.5678 69.1978L67.5782 69.0391L67.5856 68.881L67.5907 68.7238L67.5944 68.5672V68.4114L67.5767 67.6782L67.5213 66.9545L67.4297 66.2405L67.3042 65.5375L67.1432 64.8471L66.9505 64.1699L66.7253 63.5061L66.4683 62.857L66.1811 62.2242L65.865 61.6091L65.5202 61.0095L65.148 60.4291L64.7478 59.8687L64.3232 59.3289L63.8721 58.8127L63.398 58.315L62.9018 57.841L62.3827 57.392L61.8422 56.9674L61.2817 56.5672L60.7013 56.1951L60.1024 55.8509L59.4859 55.5342L58.853 55.2477L58.2047 54.9907L57.5409 54.7655L56.8638 54.5728L56.1726 54.4133L55.4696 54.2862L54.7556 54.1954L54.0312 54.14L53.2972 54.1216L52.564 54.14L51.8396 54.1954L51.1255 54.2862L50.4226 54.4133L49.7314 54.5728L49.0535 54.7655L48.3904 54.9907L47.7414 55.2477L47.1085 55.5342L46.4927 55.8509L45.8946 56.1951L45.3142 56.5672L44.7537 56.9674L44.2132 57.392L43.6934 57.841L43.1972 58.315L42.7209 58.8127L42.2704 59.3318L41.8459 59.8716L41.4464 60.4321L41.0735 61.0125L40.7286 61.6121L40.4119 62.2272L40.1253 62.86L39.8684 63.5091L39.6432 64.1729L39.4504 64.85L39.2909 65.5397L39.1654 66.2427L39.0738 66.9567L39.0185 67.6804L39 68.4136L39.0007 68.5694L39.0044 68.726L39.0096 68.8833L39.017 69.0413L39.0266 69.2L39.0384 69.3588L39.0672 69.6785L39.1049 69.9997L39.1492 70.3209L39.2001 70.6429L39.2584 70.9641L39.3227 71.2831L39.3928 71.6014L39.4696 71.9167L39.5516 72.229L39.638 72.5362L39.7296 72.8404L39.8255 73.1387L39.9459 73.4895L42.6995 71.6833C42.6686 71.5781 42.6383 71.4728 42.6086 71.3673C42.5746 71.2377 42.5419 71.1077 42.5104 70.9774C42.4871 70.8771 42.4644 70.7767 42.4425 70.6761C42.4143 70.5404 42.388 70.4042 42.3635 70.2678C42.3465 70.1644 42.328 70.061 42.3125 69.9584C42.297 69.8535 42.283 69.7494 42.269 69.6453C42.2567 69.5415 42.2451 69.4376 42.2343 69.3337C42.216 69.1287 42.2022 68.9234 42.1929 68.7178C42.1901 68.6177 42.1884 68.5175 42.1877 68.4173L42.2025 67.8473L42.2453 67.2838L42.3162 66.73L42.4137 66.1843L42.5378 65.6475L42.6884 65.121L42.8627 64.6063L43.0628 64.102L43.2858 63.6095L43.5317 63.1317L43.7997 62.6665L44.0892 62.2154L44.3993 61.7804L44.7294 61.3603L45.0794 60.9541L45.4471 60.5679L45.8333 60.2002L46.2365 59.8509L46.6566 59.5209L47.0923 59.2107L47.5427 58.9205L48.0079 58.6525L48.4864 58.4073L48.9782 58.1843L49.4826 57.985L49.998 57.81L50.5245 57.6593L51.0613 57.5353L51.6077 57.4371L52.1623 57.3662L52.7257 57.3234L53.2965 57.3086ZM82.5983 67.6331L82.5636 67.4921C82.4351 67.0335 82.2247 66.6215 81.8628 66.3032C81.7173 66.1838 81.5563 66.0844 81.3843 66.0079C80.7788 65.7509 80.0987 65.714 79.4482 65.7531C79.0148 65.7823 78.5857 65.8568 78.1678 65.9754C77.6125 66.1386 77.0712 66.3527 76.5551 66.6185V71.2004C77.0262 71.3422 77.498 71.4633 77.9854 71.5312C78.4757 71.5947 78.9705 71.6154 79.4645 71.6051C79.8414 71.5938 80.2163 71.5441 80.5832 71.4566C80.8427 71.3884 81.094 71.2921 81.3326 71.1694C81.5512 71.0498 81.7439 70.9132 81.9263 70.7426L82.0245 70.6422C82.2734 70.3616 82.4336 70.0625 82.5481 69.7058C82.5783 69.6032 82.6035 69.502 82.6249 69.3972C82.7294 68.8129 82.7204 68.214 82.5983 67.6331ZM121.11 68.8714C120.27 68.9246 119.428 68.9741 118.598 69.1181C118.068 69.2133 117.546 69.3603 117.083 69.6409L116.989 69.7007C116.805 69.8365 116.691 69.9739 116.629 70.1954C116.573 70.4531 116.6 70.7086 116.723 70.942C116.78 71.035 116.841 71.1044 116.922 71.1782C117.325 71.5002 117.865 71.5895 118.364 71.6302C119.148 71.6833 119.933 71.6198 120.682 71.3769C121.194 71.2042 121.69 70.9875 122.165 70.7293V68.805L121.11 68.8714ZM145.532 66.5174C145.486 66.4506 145.436 66.387 145.382 66.3269C145.033 65.9517 144.557 65.762 144.064 65.6579C143.708 65.5903 143.346 65.5547 142.984 65.5515C142.472 65.5441 141.955 65.5692 141.457 65.6881L141.38 65.7073C141.032 65.8004 140.697 65.9394 140.386 66.1208C140.066 66.3136 139.786 66.5558 139.58 66.8689C139.486 67.0239 139.415 67.1805 139.363 67.354H145.838C145.821 67.2426 145.797 67.1324 145.767 67.0239C145.714 66.8444 145.635 66.6738 145.532 66.5174ZM164.774 68.8714C163.933 68.9246 163.092 68.9741 162.261 69.1181C161.733 69.2133 161.209 69.3603 160.746 69.6409L160.653 69.7007C160.469 69.8365 160.356 69.9739 160.292 70.1954C160.238 70.4531 160.263 70.7086 160.387 70.942C160.445 71.035 160.506 71.1044 160.587 71.1782C160.956 71.4736 161.436 71.5696 161.898 71.6191C162.716 71.6944 163.56 71.6331 164.345 71.3776C164.857 71.2055 165.353 70.9888 165.827 70.73V68.8057C165.475 68.8271 165.125 68.8485 164.774 68.8714ZM49.2389 67.6087C47.6107 66.4384 47.5198 65.0679 47.714 64.6536C48.002 64.0392 48.3166 64.2933 48.3373 64.5613C47.9791 64.836 47.6107 66.4384 49.2389 67.6087ZM57.0572 70.2693C57.758 69.7649 57.7979 69.1749 57.7144 68.9962C57.5904 68.7319 57.4545 68.8412 57.4456 68.9571C57.6 69.076 57.7587 69.7657 57.0572 70.2693ZM49.535 70.2693C48.835 69.7649 48.7943 69.1749 48.8778 68.9962C49.0026 68.7319 49.1377 68.8412 49.1466 68.9571C48.993 69.076 48.835 69.7657 49.535 70.2693ZM53.2189 69.1786C52.4813 67.8317 52.6888 67.1103 52.7722 66.781C52.8962 66.2899 53.0329 66.5174 53.0292 66.7315C52.9132 66.9294 52.7456 68.2098 53.2189 69.1786ZM57.3541 67.6087C58.9823 66.4384 59.0746 65.0679 58.8796 64.6536C58.5909 64.0392 58.2771 64.2933 58.2564 64.5613C58.6138 64.836 58.9815 66.4384 57.3541 67.6087Z" fill="#536C7B"/>
</svg>
