<svg width="208" height="140" viewBox="0 0 208 140" fill="none" xmlns="http://www.w3.org/2000/svg">
<path d="M0 32C0 23.1634 7.16344 16 16 16H192C200.837 16 208 23.1634 208 32V108C208 116.837 200.837 124 192 124H16C7.16344 124 0 116.837 0 108V32Z" fill="white"/>
<path d="M139.768 85C137.547 85 135.375 84.3492 133.528 83.1298C131.681 81.9105 130.241 80.1774 129.391 78.1497C128.541 76.122 128.319 73.8908 128.752 71.7382C129.186 69.5856 130.255 67.6083 131.826 66.0563C133.397 64.5044 135.398 63.4475 137.577 63.0193C139.756 62.5912 142.014 62.8109 144.066 63.6508C146.119 64.4907 147.873 65.913 149.107 67.7379C150.341 69.5628 151 71.7083 151 73.9031C151 76.8462 149.817 79.6687 147.71 81.7498C145.604 83.8309 142.747 85 139.768 85ZM139.768 80.4133C141.071 80.4133 142.345 80.0314 143.429 79.3161C144.513 78.6007 145.357 77.584 145.856 76.3944C146.355 75.2048 146.485 73.8958 146.231 72.633C145.977 71.3701 145.349 70.2101 144.428 69.2997C143.506 68.3892 142.332 67.7691 141.054 67.5179C139.776 67.2668 138.451 67.3957 137.247 67.8884C136.043 68.3812 135.013 69.2156 134.289 70.2862C133.565 71.3568 133.179 72.6155 133.179 73.9031C133.179 75.6297 133.873 77.2856 135.109 78.5065C136.345 79.7274 138.021 80.4133 139.768 80.4133ZM116.256 85C114.035 85 111.863 84.3492 110.016 83.1298C108.169 81.9105 106.73 80.1774 105.879 78.1497C105.029 76.122 104.807 73.8908 105.24 71.7382C105.674 69.5856 106.743 67.6083 108.314 66.0563C109.885 64.5044 111.886 63.4475 114.065 63.0193C116.244 62.5912 118.502 62.8109 120.554 63.6508C122.607 64.4907 124.361 65.913 125.595 67.7379C126.829 69.5628 127.488 71.7083 127.488 73.9031C127.488 76.8462 126.305 79.6687 124.198 81.7498C122.092 83.8309 119.235 85 116.256 85ZM116.256 80.4133C117.56 80.4133 118.834 80.0314 119.917 79.3161C121.001 78.6007 121.845 77.584 122.344 76.3944C122.843 75.2048 122.973 73.8958 122.719 72.633C122.465 71.3701 121.837 70.2101 120.916 69.2997C119.994 68.3892 118.82 67.7691 117.542 67.5179C116.264 67.2668 114.939 67.3957 113.735 67.8884C112.531 68.3812 111.501 69.2156 110.777 70.2862C110.053 71.3568 109.667 72.6155 109.667 73.9031C109.667 75.6297 110.361 77.2856 111.597 78.5065C112.833 79.7274 114.509 80.4133 116.256 80.4133ZM103.976 73.7551C103.976 79.9546 98.9443 85 92.7444 85C86.5444 85 81.5126 79.9694 81.5126 73.7699C81.5126 67.5704 86.0802 62.8061 92.7444 62.8061C95.2004 62.8061 97.4767 63.324 99.3337 64.6704V58.2342C99.3337 57.0061 100.427 56 101.655 56C102.883 56 103.976 57.0061 103.976 58.2342V73.7551ZM92.7444 80.4133C94.0476 80.4133 95.3216 80.0314 96.4052 79.3161C97.4888 78.6007 98.3334 77.584 98.8321 76.3944C99.3308 75.2048 99.4613 73.8958 99.2071 72.633C98.9528 71.3701 98.3253 70.2101 97.4037 69.2997C96.4822 68.3892 95.3081 67.7691 94.0299 67.5179C92.7517 67.2668 91.4268 67.3957 90.2227 67.8884C89.0187 68.3812 87.9896 69.2156 87.2655 70.2862C86.5415 71.3568 86.155 72.6155 86.155 73.9031C86.155 75.6297 86.8493 77.2856 88.085 78.5065C89.3207 79.7274 90.9968 80.4133 92.7444 80.4133Z" fill="#8F8F8F"/>
<path d="M69.2318 84.9996C67.0104 84.9996 64.8388 84.3488 62.9918 83.1294C61.1447 81.9101 59.7051 80.177 58.855 78.1493C58.0049 76.1216 57.7824 73.8904 58.2158 71.7378C58.6492 69.5852 59.7189 67.6079 61.2897 66.0559C62.8605 64.504 64.8618 63.4471 67.0406 63.019C69.2194 62.5908 71.4777 62.8105 73.53 63.6504C75.5824 64.4903 77.3366 65.9127 78.5707 67.7375C79.8049 69.5624 80.4636 71.7079 80.4636 73.9027C80.4636 76.8458 79.2803 79.6683 77.1739 81.7494C75.0675 83.8305 72.2107 84.9996 69.2318 84.9996ZM69.2318 80.4129C70.5351 80.4129 71.809 80.0311 72.8926 79.3157C73.9763 78.6003 74.8208 77.5836 75.3196 76.394C75.8183 75.2044 75.9488 73.8954 75.6945 72.6326C75.4403 71.3697 74.8127 70.2097 73.8912 69.2993C72.9696 68.3888 71.7955 67.7687 70.5173 67.5176C69.2391 67.2664 67.9142 67.3953 66.7102 67.888C65.5061 68.3808 64.477 69.2152 63.753 70.2858C63.0289 71.3564 62.6425 72.6151 62.6425 73.9027C62.6425 75.6293 63.3367 77.2852 64.5725 78.5061C65.8082 79.727 67.4842 80.4129 69.2318 80.4129Z" fill="#714B67"/>
</svg>
