<svg width="208" height="140" viewBox="0 0 208 140" fill="none" xmlns="http://www.w3.org/2000/svg">
<path d="M0 32C0 23.1634 7.16344 16 16 16H192C200.837 16 208 23.1634 208 32V108C208 116.837 200.837 124 192 124H16C7.16344 124 0 116.837 0 108V32Z" fill="white"/>
<path fill-rule="evenodd" clip-rule="evenodd" d="M115.137 84.7636V83.43C115.896 83.6689 116.568 83.7884 117.152 83.7884C117.958 83.7884 118.362 83.5752 118.362 83.149C118.362 82.9901 118.303 82.8566 118.185 82.7485C118.065 82.6339 117.757 82.4749 117.262 82.2713C116.373 81.9059 115.794 81.5942 115.524 81.3365C115.175 80.9963 115 80.5672 115 80.0488C115 79.3811 115.255 78.8722 115.763 78.5225C116.266 78.1759 116.921 78.0027 117.729 78.0027C118.174 78.0027 118.819 78.0847 119.662 78.2488V79.5317C119.035 79.2811 118.452 79.1561 117.915 79.1561C117.157 79.1561 116.779 79.3641 116.779 79.7809C116.779 79.9367 116.855 80.0638 117.008 80.1623C117.135 80.2421 117.485 80.4105 118.057 80.6681C118.881 81.034 119.429 81.3521 119.703 81.6227C120.027 81.9436 120.189 82.3589 120.189 82.8679C120.189 83.5995 119.871 84.1576 119.235 84.5422C118.72 84.854 118.052 85.0093 117.231 85.0093C116.538 85.0093 115.84 84.9277 115.137 84.7636Z" fill="#009999"/>
<path fill-rule="evenodd" clip-rule="evenodd" d="M121.255 78.1199H123.141V84.8727H121.255V78.1199Z" fill="#009999"/>
<path fill-rule="evenodd" clip-rule="evenodd" d="M124.871 84.8727V78.1199H129.708V79.3413H126.689V80.8661H129.317V81.9801H126.689V83.5826H129.786V84.8727H124.871Z" fill="#009999"/>
<path fill-rule="evenodd" clip-rule="evenodd" d="M131.018 84.8727V78.1199H133.463L135.162 82.4346L136.904 78.1199H139.227V84.8727H137.438V80.0915L135.458 84.9412H134.289L132.346 80.0915V84.8727H131.018Z" fill="#009999"/>
<path fill-rule="evenodd" clip-rule="evenodd" d="M140.957 84.8727V78.1199H145.794V79.3413H142.775V80.8661H145.403V81.9801H142.775V83.5826H145.873V84.8727H140.957Z" fill="#009999"/>
<path fill-rule="evenodd" clip-rule="evenodd" d="M147.114 84.8727V78.1199H149.3L151.619 82.6404V78.1199H152.948V84.8727H150.824L148.443 80.2914V84.8727H147.114Z" fill="#009999"/>
<path fill-rule="evenodd" clip-rule="evenodd" d="M154.287 84.7634V83.4298C155.04 83.6687 155.711 83.7882 156.302 83.7882C157.109 83.7882 157.512 83.5749 157.512 83.1488C157.512 82.9899 157.455 82.8564 157.341 82.7483C157.22 82.6337 156.911 82.4747 156.412 82.2711C155.526 81.9087 154.946 81.5972 154.674 81.3363C154.325 80.9991 154.151 80.5685 154.151 80.044C154.151 79.3792 154.405 78.872 154.914 78.5223C155.416 78.1756 156.072 78.0025 156.88 78.0025C157.334 78.0025 157.923 78.0746 158.645 78.2196L158.812 78.2485V79.5314C158.185 79.2809 157.601 79.1559 157.06 79.1559C156.306 79.1559 155.929 79.3638 155.929 79.7807C155.929 79.9365 156.005 80.0636 156.158 80.1621C156.279 80.2387 156.63 80.4072 157.212 80.6678C158.03 81.0338 158.577 81.3518 158.853 81.6224C159.178 81.9433 159.34 82.3586 159.34 82.8676C159.34 83.5993 159.023 84.1574 158.39 84.542C157.872 84.8538 157.202 85.0091 156.382 85.0091C155.688 85.0091 154.99 84.9275 154.287 84.7634Z" fill="#009999"/>
<path d="M158.936 65.9517H151.81C151.876 67.8754 153.384 68.706 155.089 68.706C156.335 68.706 157.231 68.5311 158.04 68.2251L158.434 70.0832C157.515 70.4548 156.248 70.739 154.717 70.739C151.264 70.739 149.231 68.6186 149.231 65.3615C149.231 62.4104 151.023 59.6343 154.433 59.6343C157.887 59.6343 159.024 62.476 159.024 64.815C159.024 65.3178 158.98 65.7112 158.936 65.9517ZM151.81 64.0718H156.488C156.51 63.0881 156.073 61.4705 154.28 61.4705C152.619 61.4705 151.919 62.9788 151.81 64.0718Z" fill="#232122"/>
<path d="M142.746 70.5204V63.3067C142.746 61.8639 142.724 60.8365 142.658 59.8747H144.997L145.085 61.9077H145.172C145.697 60.3993 146.943 59.6343 148.08 59.6343C148.342 59.6343 148.495 59.6561 148.714 59.6998V62.2356C148.495 62.1918 148.254 62.1481 147.927 62.1481C146.637 62.1481 145.762 62.9788 145.522 64.1811C145.478 64.4215 145.435 64.7057 145.435 65.0117V70.5204H142.746Z" fill="#232122"/>
<path d="M140.94 65.9517H133.813C133.879 67.8754 135.387 68.706 137.092 68.706C138.338 68.706 139.235 68.5311 140.043 68.2251L140.437 70.0832C139.519 70.4548 138.251 70.739 136.721 70.739C133.267 70.739 131.234 68.6186 131.234 65.3615C131.234 62.4104 133.026 59.6343 136.437 59.6343C139.89 59.6343 141.027 62.476 141.027 64.815C141.027 65.3178 140.983 65.7112 140.94 65.9517ZM133.813 64.0718H138.491C138.513 63.0881 138.076 61.4705 136.284 61.4705C134.622 61.4705 133.923 62.9788 133.813 64.0718Z" fill="#232122"/>
<path d="M119.839 70.5204V55H122.55V61.3393H122.594C122.921 60.8365 123.359 60.4212 123.927 60.1152C124.452 59.8091 125.086 59.6343 125.763 59.6343C127.578 59.6343 129.479 60.8365 129.479 64.2467V70.5204H126.791V64.5527C126.791 63.0006 126.222 61.8421 124.736 61.8421C123.687 61.8421 122.943 62.5416 122.659 63.3504C122.572 63.569 122.55 63.8532 122.55 64.1592V70.5204H119.839Z" fill="#232122"/>
<path d="M107.489 74.8486V63.416C107.489 62.017 107.446 60.8803 107.402 59.8747H109.763L109.894 61.5142H109.938C110.725 60.3119 111.971 59.6343 113.588 59.6343C116.037 59.6343 118.069 61.7328 118.069 65.0555C118.069 68.9028 115.643 70.7608 113.217 70.7608C111.883 70.7608 110.768 70.1925 110.222 69.34H110.178V74.8486H107.489ZM110.178 64.4215V66.061C110.178 66.3233 110.2 66.5638 110.266 66.8042C110.528 67.8972 111.49 68.6842 112.626 68.6842C114.331 68.6842 115.337 67.2633 115.337 65.1648C115.337 63.2848 114.419 61.7546 112.692 61.7546C111.577 61.7546 110.55 62.5634 110.287 63.7439C110.222 63.9625 110.178 64.2029 110.178 64.4215Z" fill="#232122"/>
<path d="M96.0446 69.8209L96.6348 67.5912C97.5092 68.094 98.8208 68.5312 100.198 68.5312C101.925 68.5312 102.887 67.7223 102.887 66.5201C102.887 65.4052 102.143 64.7494 100.264 64.0718C97.8371 63.1974 96.285 61.9077 96.285 59.7873C96.285 57.3827 98.2961 55.5465 101.488 55.5465C103.083 55.5465 104.264 55.8962 105.029 56.2897L104.373 58.4538C103.849 58.1697 102.821 57.7543 101.444 57.7543C99.7389 57.7543 98.9957 58.6724 98.9957 59.525C98.9957 60.6617 99.8482 61.1863 101.816 61.9514C104.373 62.9132 105.619 64.2029 105.619 66.3233C105.619 68.6842 103.827 70.739 100.023 70.739C98.471 70.739 96.8534 70.3018 96.0446 69.8209Z" fill="#232122"/>
<path d="M91.4529 55H94.1416V67.5256C94.1416 68.6186 94.1853 69.799 94.2291 70.5204H91.8245L91.7152 68.8372H91.6715C91.0375 70.0176 89.7478 70.7608 88.1958 70.7608C85.6601 70.7608 83.649 68.5967 83.649 65.3178C83.6271 61.7546 85.8568 59.6343 88.4144 59.6343C89.879 59.6343 90.9282 60.2463 91.4092 61.0333H91.4529V55ZM91.4529 65.908V64.3122C91.4529 64.0936 91.431 63.8313 91.3873 63.6127C91.1468 62.5635 90.2943 61.7109 89.0702 61.7109C87.3433 61.7109 86.3814 63.2411 86.3814 65.2303C86.3814 67.1759 87.3432 68.5967 89.0483 68.5967C90.1413 68.5967 91.1031 67.8535 91.3654 66.6949C91.431 66.4545 91.4529 66.1922 91.4529 65.908Z" fill="#232122"/>
<path d="M72.2543 70.5204V63.0444C72.2543 61.8202 72.2324 60.7928 72.1669 59.8747H74.5277L74.6589 61.4705H74.7245C75.1835 60.6398 76.3421 59.6343 78.1127 59.6343C79.9708 59.6343 81.8944 60.8365 81.8944 64.2029V70.5204H79.2057V64.509C79.2057 62.9788 78.6373 61.8202 77.1727 61.8202C76.1016 61.8202 75.3584 62.5853 75.0742 63.3941C74.9868 63.6346 74.9649 63.9625 74.9649 64.2685V70.5204H72.2543Z" fill="#232122"/>
<path d="M69.8091 70.5204H67.0985V59.8747H69.8091V70.5204ZM68.4538 55.4372C69.3719 55.4372 69.9403 56.0711 69.9621 56.9018C69.9621 57.7106 69.3719 58.3445 68.4319 58.3445C67.5357 58.3445 66.9455 57.7106 66.9455 56.9018C66.9455 56.0711 67.5575 55.4372 68.4538 55.4372Z" fill="#232122"/>
<path d="M62.094 70.5204L61.8098 64.509C61.7223 62.6072 61.613 60.3119 61.6349 58.3227H61.5693C61.0884 60.1152 60.4763 62.1044 59.8205 63.9625L57.6783 70.3455H55.6016L53.6343 64.0499C53.0659 62.17 52.5413 60.1589 52.1478 58.3227H52.1041C52.0385 60.2463 51.9511 62.5853 51.8418 64.5964L51.5139 70.5204H49L49.9837 55.7869H53.525L55.4486 61.7109C55.9732 63.4378 56.4323 65.1866 56.8039 66.8261H56.8695C57.263 65.2303 57.7657 63.416 58.3341 61.6891L60.367 55.7869H63.8646L64.7171 70.5204H62.094Z" fill="#232122"/>
</svg>
