<svg width="208" height="140" viewBox="0 0 208 140" fill="none" xmlns="http://www.w3.org/2000/svg">
<path d="M0 32C0 23.1634 7.16344 16 16 16H192C200.837 16 208 23.1634 208 32V108C208 116.837 200.837 124 192 124H16C7.16344 124 0 116.837 0 108V32Z" fill="white"/>
<path d="M81.2675 79.319L82.8787 75.6502C84.6199 76.9241 86.9327 77.5866 89.2196 77.5866C90.9087 77.5866 91.9742 76.9496 91.9742 75.9815C91.9482 73.2808 81.8652 75.3955 81.7873 68.6184C81.7613 65.1789 84.8797 62.5292 89.2975 62.5292C91.9222 62.5292 94.5469 63.1662 96.418 64.6184L94.9108 68.3636C93.1956 67.2936 91.0647 66.5292 89.0377 66.5292C87.6604 66.5292 86.7508 67.1662 86.7508 67.9815C86.7768 70.6311 96.9378 69.1789 97.0417 75.6502C97.0417 79.1662 94.0012 81.6375 89.6354 81.6375C86.439 81.6375 83.5024 80.8987 81.2675 79.319ZM143.091 74.3254C142.285 75.7012 140.778 76.6439 139.037 76.6439C136.464 76.6439 134.385 74.6057 134.385 72.0834C134.385 69.5611 136.464 67.5229 139.037 67.5229C140.778 67.5229 142.285 68.4655 143.091 69.8413L147.535 67.4209C145.871 64.5165 142.675 62.5292 139.037 62.5292C133.658 62.5292 129.292 66.8095 129.292 72.0834C129.292 77.3573 133.658 81.6375 139.037 81.6375C142.701 81.6375 145.871 79.6757 147.535 76.7458L143.091 74.3254ZM99.2766 54.6057H104.838V81.2808H99.2766V54.6057ZM149.718 54.6057V81.2808H155.279V73.2808L161.88 81.2808H169L160.606 71.7776L168.376 62.9114H161.568L155.279 70.2744V54.6057H149.718ZM121.366 74.3764C120.56 75.6757 118.897 76.6439 117.026 76.6439C114.453 76.6439 112.374 74.6057 112.374 72.0834C112.374 69.5611 114.453 67.5229 117.026 67.5229C118.897 67.5229 120.56 68.542 121.366 69.8668V74.3764ZM121.366 62.9114V65.077C120.456 63.5738 118.195 62.5292 115.83 62.5292C110.945 62.5292 107.099 66.7585 107.099 72.0579C107.099 77.3573 110.945 81.6375 115.83 81.6375C118.195 81.6375 120.456 80.5929 121.366 79.0897V81.2553H126.927V62.9114H121.366Z" fill="black"/>
<path d="M46.8866 74.3509C46.8866 76.2108 45.3533 77.7139 43.4563 77.7139C41.5592 77.7139 40.026 76.2108 40.026 74.3509C40.026 72.491 41.5592 70.9878 43.4563 70.9878H46.8866V74.3509ZM48.6017 74.3509C48.6017 72.491 50.135 70.9878 52.032 70.9878C53.9291 70.9878 55.4623 72.491 55.4623 74.3509V82.7585C55.4623 84.6184 53.9291 86.1216 52.032 86.1216C50.135 86.1216 48.6017 84.6184 48.6017 82.7585V74.3509Z" fill="#E01E5A"/>
<path d="M52.032 60.8477C50.135 60.8477 48.6017 59.3445 48.6017 57.4846C48.6017 55.6248 50.135 54.1216 52.032 54.1216C53.9291 54.1216 55.4623 55.6248 55.4623 57.4846V60.8477H52.032ZM52.032 62.5547C53.9291 62.5547 55.4623 64.0579 55.4623 65.9178C55.4623 67.7776 53.9291 69.2808 52.032 69.2808H43.4303C41.5332 69.2808 40 67.7776 40 65.9178C40 64.0579 41.5332 62.5547 43.4303 62.5547H52.032Z" fill="#36C5F0"/>
<path d="M65.7792 65.9178C65.7792 64.0579 67.3124 62.5547 69.2095 62.5547C71.1066 62.5547 72.6398 64.0579 72.6398 65.9178C72.6398 67.7776 71.1066 69.2808 69.2095 69.2808H65.7792V65.9178ZM64.0641 65.9178C64.0641 67.7776 62.5308 69.2808 60.6338 69.2808C58.7367 69.2808 57.2035 67.7776 57.2035 65.9178V57.4846C57.2035 55.6248 58.7367 54.1216 60.6338 54.1216C62.5308 54.1216 64.0641 55.6248 64.0641 57.4846V65.9178Z" fill="#2EB67D"/>
<path d="M60.6338 79.3955C62.5308 79.3955 64.0641 80.8987 64.0641 82.7585C64.0641 84.6184 62.5308 86.1216 60.6338 86.1216C58.7367 86.1216 57.2035 84.6184 57.2035 82.7585V79.3955H60.6338ZM60.6338 77.7139C58.7367 77.7139 57.2035 76.2108 57.2035 74.3509C57.2035 72.491 58.7367 70.9878 60.6338 70.9878H69.2355C71.1326 70.9878 72.6658 72.491 72.6658 74.3509C72.6658 76.2108 71.1326 77.7139 69.2355 77.7139H60.6338Z" fill="#ECB22E"/>
</svg>
