<svg width="208" height="140" viewBox="0 0 208 140" fill="none" xmlns="http://www.w3.org/2000/svg">
<path d="M0 32C0 23.1634 7.16344 16 16 16H192C200.837 16 208 23.1634 208 32V108C208 116.837 200.837 124 192 124H16C7.16344 124 0 116.837 0 108V32Z" fill="white"/>
<path d="M97.7593 52.5237C97.5757 52.1278 97.3608 52.0067 96.9324 52.008C92.289 52.0249 87.6442 51.9859 83.0008 52.0393C81.7117 52.0549 80.3952 52.2033 79.1426 52.5028C69.8192 54.7308 64.1471 63.4044 65.7787 72.8514C67.1928 81.0353 74.5746 87.2635 82.8693 87.2674C85.6038 87.2687 88.3383 87.2674 91.0728 87.2674H91.7551C91.7551 87.1515 91.7694 87.1046 91.7525 87.0695C90.3006 83.9495 88.8526 80.827 87.3747 77.7201C87.2874 77.5378 86.9476 77.3841 86.721 77.3763C85.5504 77.3425 84.3772 77.3672 83.2052 77.3581C81.1465 77.3425 79.3509 76.6536 77.8326 75.2499C75.6124 73.1952 74.8168 69.9463 75.8403 67.0803C76.8651 64.2091 79.5553 62.1087 82.5372 62.0032C85.2457 61.9082 87.9594 61.9538 90.6704 61.916C91.104 61.9095 91.272 62.123 91.4309 62.4668C92.6471 65.0997 93.8737 67.7288 95.1003 70.3565C97.6525 75.8294 100.203 81.3023 102.775 86.7661C102.877 86.9822 103.185 87.2427 103.399 87.244C106.87 87.2739 110.342 87.2648 113.921 87.2648C113.832 87.0512 113.778 86.9132 113.716 86.7791C108.394 75.3606 103.069 63.9447 97.758 52.5224L97.7593 52.5237Z" fill="#2CCCD3"/>
<path d="M119.928 52.719C119.693 52.2111 119.437 51.9924 118.831 52.0002C115.685 52.0406 112.539 52.0197 109.391 52.0197H108.656C108.769 52.288 108.837 52.4677 108.917 52.6409C114.222 64.0177 119.53 75.3932 124.823 86.7752C125.01 87.1775 125.237 87.2817 125.656 87.2778C127.913 87.257 130.17 87.2687 132.426 87.2687C133.593 87.2687 134.76 87.2687 136.024 87.2687C135.415 85.9613 134.842 84.7308 134.269 83.5003C129.486 73.242 124.699 62.9838 119.928 52.7203V52.719Z" fill="#2CCCD3"/>
<path d="M130.727 52.051C132.532 55.9209 134.309 59.7323 136.135 63.6466C137.975 59.6998 139.751 55.8897 141.54 52.051H130.727Z" fill="#2CCCD3"/>
<path d="M136.024 67.3069C134.857 67.3069 133.912 68.2522 133.912 69.4189C133.912 70.5857 134.857 71.531 136.024 71.531C137.191 71.531 138.136 70.5857 138.136 69.4189C138.136 68.2522 137.191 67.3069 136.024 67.3069ZM136.024 71.2003C135.04 71.2003 134.243 70.4034 134.243 69.4189C134.243 68.4345 135.04 67.6376 136.024 67.6376C137.008 67.6376 137.805 68.4345 137.805 69.4189C137.805 70.4034 137.008 71.2003 136.024 71.2003Z" fill="#2CCCD3"/>
<path d="M136.425 69.596C136.391 69.5661 136.342 69.5348 136.277 69.5036C136.455 69.4788 136.588 69.4215 136.674 69.3304C136.76 69.2392 136.803 69.1286 136.803 68.9957C136.803 68.8929 136.777 68.7991 136.725 68.7145C136.672 68.6298 136.603 68.5699 136.517 68.5374C136.432 68.5035 136.304 68.4866 136.139 68.4866H135.312V70.3526H135.559V69.5244H135.846C135.909 69.5244 135.955 69.527 135.984 69.5335C136.021 69.5426 136.059 69.5596 136.096 69.583C136.132 69.6065 136.174 69.6481 136.221 69.708C136.267 69.7679 136.326 69.8526 136.399 69.9645L136.646 70.3526H136.956L136.632 69.8447C136.567 69.7458 136.499 69.6624 136.428 69.596H136.425ZM135.558 69.3096V68.6923H136.148C136.286 68.6923 136.387 68.721 136.451 68.777C136.515 68.8343 136.547 68.9059 136.547 68.9944C136.547 69.0543 136.531 69.1103 136.498 69.1624C136.465 69.2132 136.416 69.251 136.353 69.2744C136.29 69.2978 136.201 69.3096 136.089 69.3096H135.558Z" fill="#2CCCD3"/>
</svg>
