<svg width="208" height="140" viewBox="0 0 208 140" fill="none" xmlns="http://www.w3.org/2000/svg">
<path d="M0 32C0 23.1634 7.16344 16 16 16H192C200.837 16 208 23.1634 208 32V108C208 116.837 200.837 124 192 124H16C7.16344 124 0 116.837 0 108V32Z" fill="white"/>
<path d="M96.6829 71.4531H103.924C107.274 71.4531 110.035 72.5341 110.035 76.401C110.035 78.4237 109.005 79.7964 107.074 80.3571C109.572 80.866 110.801 82.2647 110.801 84.8464C110.801 88.8139 107.865 90.0732 104.414 90.0732H96.6845V71.4531H96.6829ZM103.484 79.2615C105.479 79.2615 106.608 78.6635 106.608 76.4756C106.608 74.44 105.177 73.983 103.434 73.983H100.158V79.2615H103.484ZM103.973 87.5417C106.006 87.5417 107.299 86.741 107.299 84.6033C107.299 82.2371 105.705 81.6521 103.735 81.6521H100.158V87.54H103.973V87.5417Z" fill="black"/>
<path d="M119.646 76.1595C123.723 76.1595 126.861 79.059 126.861 83.2306C126.861 87.5173 123.56 90.3276 119.507 90.3276C115.416 90.3276 112.128 87.4525 112.128 83.2938C112.128 79.0201 115.605 76.1595 119.646 76.1595ZM123.41 83.2565C123.41 80.751 122.155 78.6651 119.519 78.6651C116.809 78.6651 115.73 80.8531 115.73 83.3457C115.73 85.7621 116.998 87.822 119.595 87.822C122.281 87.822 123.41 85.6341 123.41 83.2565Z" fill="black"/>
<path d="M135.406 76.1595C139.484 76.1595 142.621 79.059 142.621 83.2306C142.621 87.5173 139.321 90.3276 135.267 90.3276C131.177 90.3276 127.889 87.4525 127.889 83.2938C127.891 79.0201 131.365 76.1595 135.406 76.1595ZM139.172 83.2565C139.172 80.751 137.917 78.6651 135.282 78.6651C132.571 78.6651 131.492 80.8531 131.492 83.3457C131.492 85.7621 132.76 87.822 135.357 87.822C138.042 87.822 139.172 85.6341 139.172 83.2565Z" fill="black"/>
<path d="M144.969 70.2829H148.181V82.3911L153.051 76.4513H156.577L151.244 82.6958L156.978 90.0732H153.276L148.181 83.4348V90.0732H144.969V70.2829Z" fill="black"/>
<path d="M160.264 86.015C160.766 87.3504 162.134 87.9857 163.59 87.9857C164.631 87.9857 165.925 87.6551 165.925 86.3699C165.925 85.0085 164.47 84.6909 162.813 84.3343C160.654 83.8757 158.233 83.3424 158.233 80.2891C158.233 77.4918 160.806 76.1563 163.24 76.1563C165.373 76.1563 167.807 76.9699 168.687 79.1205L166.302 80.1627C165.775 78.9536 164.457 78.4966 163.354 78.4966C162.287 78.4966 161.257 78.9293 161.257 80.0362C161.257 81.2825 162.575 81.55 164.193 81.8676C166.389 82.3003 169 82.8092 169 85.989C169 89.1948 166.352 90.326 163.554 90.326C161.182 90.326 158.635 89.5124 157.794 87.07L160.264 86.015Z" fill="black"/>
<path d="M96.7068 65.5602L102.619 56.9025H97.3049V55.1943H105.401V56.0452L99.6332 64.7029H105.235V66.4111H96.7084V65.5602H96.7068Z" fill="black"/>
<path d="M110.465 58.0289C112.922 58.0289 114.812 59.776 114.812 62.2881C114.812 64.8698 112.824 66.5634 110.382 66.5634C107.918 66.5634 105.937 64.8325 105.937 62.327C105.937 59.7517 108.032 58.0289 110.465 58.0289ZM112.733 62.3027C112.733 60.7938 111.977 59.5378 110.39 59.5378C108.758 59.5378 108.107 60.8554 108.107 62.3578C108.107 63.8131 108.87 65.0546 110.435 65.0546C112.053 65.053 112.733 63.7353 112.733 62.3027Z" fill="black"/>
<path d="M118.16 54.4893V59.507C118.682 58.4875 119.748 58.0289 120.866 58.0289C122.801 58.0289 123.768 59.4081 123.768 61.2768V66.4095H121.817V61.468C121.817 60.2881 121.213 59.6447 120.086 59.6447C118.846 59.6447 118.159 60.4178 118.159 61.5912V66.4095H116.224V54.4893H118.16Z" fill="black"/>
<path d="M129.552 58.0289C132.008 58.0289 133.898 59.776 133.898 62.2881C133.898 64.8698 131.911 66.5634 129.469 66.5634C127.005 66.5634 125.023 64.8325 125.023 62.327C125.025 59.7517 127.118 58.0289 129.552 58.0289ZM131.82 62.3027C131.82 60.7938 131.063 59.5378 129.477 59.5378C127.844 59.5378 127.193 60.8554 127.193 62.3578C127.193 63.8131 127.956 65.0546 129.522 65.0546C131.14 65.053 131.82 63.7353 131.82 62.3027Z" fill="black"/>
<path d="M73.0404 96.1216H41.3608C40.6109 96.1216 40.0016 95.5057 40.0016 94.744V83.0783C40.0016 80.5305 41.5991 78.2616 43.9769 77.435L79.0865 65.2215C81.8193 64.2702 83.6567 61.6625 83.6567 58.7339C83.6567 54.9512 80.62 51.8751 76.8894 51.8751H42.7184V74.5923C42.7184 75.3524 42.1108 75.9699 41.3592 75.9699C40.6077 75.9699 40 75.3541 40 74.5923V50.4992C40 49.7391 40.6077 49.1216 41.3592 49.1216H76.891C82.1216 49.1216 86.3751 53.4342 86.3751 58.7339C86.3751 62.8391 83.8006 66.4938 79.9692 67.826L44.8596 80.0395C43.5788 80.4852 42.7184 81.7055 42.7184 83.0783V93.3664H73.0388C75.8755 93.3664 78.5412 92.2465 80.5465 90.2142C82.5517 88.1818 83.6567 85.4801 83.6567 82.605C83.6567 80.5711 83.0906 78.5857 82.0208 76.8662C80.9622 75.1628 79.4607 73.8014 77.6777 72.9246C77.0029 72.5924 76.7215 71.7691 77.0493 71.0852C77.3771 70.4012 78.1894 70.116 78.8642 70.4482C81.103 71.5487 82.9883 73.2601 84.3187 75.3994C85.6636 77.5598 86.3735 80.0524 86.3735 82.6067C86.3735 86.2159 84.9871 89.6113 82.467 92.1639C79.9516 94.7148 76.6015 96.1216 73.0404 96.1216Z" fill="#226DB4"/>
<path d="M55.2873 68.39C52.2906 68.39 49.8536 65.92 49.8536 62.8829C49.8536 59.8457 52.2906 57.3758 55.2873 57.3758C58.284 57.3758 60.721 59.8457 60.721 62.8829C60.721 65.92 58.284 68.39 55.2873 68.39ZM55.2873 60.1293C53.7889 60.1293 52.5704 61.3643 52.5704 62.8829C52.5704 64.4014 53.7889 65.6364 55.2873 65.6364C56.7856 65.6364 58.0041 64.4014 58.0041 62.8829C58.0041 61.3643 56.7856 60.1293 55.2873 60.1293Z" fill="#226DB4"/>
<path d="M68.9099 87.8382C65.9132 87.8382 63.4762 85.3683 63.4762 82.3311C63.4762 79.294 65.9132 76.824 68.9099 76.824C71.9066 76.824 74.3436 79.294 74.3436 82.3311C74.3436 85.3683 71.9066 87.8382 68.9099 87.8382ZM68.9099 79.576C67.4116 79.576 66.1931 80.8109 66.1931 82.3295C66.1931 83.8481 67.4116 85.0831 68.9099 85.0831C70.4083 85.0831 71.6268 83.8481 71.6268 82.3295C71.6268 80.8109 70.4083 79.576 68.9099 79.576Z" fill="#226DB4"/>
</svg>
