<svg width="208" height="140" viewBox="0 0 208 140" fill="none" xmlns="http://www.w3.org/2000/svg">
<path d="M0 32C0 23.1634 7.16344 16 16 16H192C200.837 16 208 23.1634 208 32V108C208 116.837 200.837 124 192 124H16C7.16344 124 0 116.837 0 108V32Z" fill="white"/>
<path d="M97.2653 72.1009H103.861L100.377 66.0412L93.972 76.986H91.0595L98.8492 63.8551C99.019 63.5931 99.2446 63.3787 99.5072 63.2299C99.7698 63.0812 100.062 63.0023 100.358 63.0001C100.655 62.9978 100.948 63.0721 101.212 63.2168C101.477 63.3615 101.705 63.5724 101.878 63.8318L109.69 76.986H106.777L105.405 74.5388H98.7323L97.2783 72.1009M127.541 74.5388V63.1326H125.066V75.6622C125.065 75.8363 125.098 76.0087 125.161 76.169C125.224 76.3292 125.317 76.474 125.434 76.5945C125.551 76.7236 125.691 76.826 125.845 76.8957C126 76.9653 126.166 77.0008 126.334 77H137.585L139.052 74.5528H127.528M86.6151 72.5018C87.7686 72.5018 88.8748 72.0083 89.6905 71.1297C90.5061 70.2512 90.9643 69.0596 90.9643 67.8172C90.9643 66.5748 90.5061 65.3832 89.6905 64.5047C88.8748 63.6261 87.7686 63.1326 86.6151 63.1326H75.7961V76.986H78.2672V65.5844H86.4636C87.0157 65.5844 87.5451 65.8207 87.9355 66.2411C88.3259 66.6616 88.5452 67.2319 88.5452 67.8265C88.5452 68.4212 88.3259 68.9915 87.9355 69.4119C87.5451 69.8324 87.0157 70.0686 86.4636 70.0686H79.4919L86.8747 76.986H90.4623L85.5029 72.5018H86.6151ZM60.5976 76.986H68.0714C69.7475 76.9392 71.3403 76.1891 72.5104 74.8956C73.6805 73.6021 74.3354 71.8676 74.3354 70.0616C74.3354 68.2557 73.6805 66.5211 72.5104 65.2276C71.3403 63.9342 69.7475 63.1841 68.0714 63.1372H60.5976C59.7394 63.1133 58.8853 63.2746 58.0859 63.6118C57.2865 63.949 56.5578 64.4552 55.9429 65.1006C55.328 65.7459 54.8393 66.5174 54.5056 67.3694C54.1719 68.2215 54 69.1369 54 70.0616C54 70.9864 54.1719 71.9018 54.5056 72.7538C54.8393 73.6059 55.328 74.3773 55.9429 75.0227C56.5578 75.668 57.2865 76.1742 58.0859 76.5114C58.8853 76.8486 59.7394 77.01 60.5976 76.986ZM67.9026 74.5481H60.7621C59.6817 74.5106 58.6573 74.022 57.9054 73.1856C57.1535 72.3491 56.7331 71.2305 56.7331 70.0663C56.7331 68.902 57.1535 67.7834 57.9054 66.947C58.6573 66.1106 59.6817 65.622 60.7621 65.5844H67.9026C68.4603 65.5651 69.0159 65.6666 69.5365 65.8832C70.057 66.0997 70.5319 66.4267 70.9327 66.8448C71.3336 67.2629 71.6524 67.7635 71.8701 68.3169C72.0878 68.8703 72.1999 69.4652 72.1999 70.0663C72.1999 70.6673 72.0878 71.2622 71.8701 71.8156C71.6524 72.3691 71.3336 72.8697 70.9327 73.2878C70.5319 73.7059 70.057 74.0329 69.5365 74.2494C69.0159 74.4659 68.4603 74.5675 67.9026 74.5481ZM114.853 76.986H122.482L123.928 74.5481H115.021C114.464 74.5675 113.908 74.4659 113.387 74.2494C112.867 74.0329 112.392 73.7059 111.991 73.2878C111.59 72.8697 111.272 72.3691 111.054 71.8156C110.836 71.2622 110.724 70.6673 110.724 70.0663C110.724 69.4652 110.836 68.8703 111.054 68.3169C111.272 67.7635 111.59 67.2629 111.991 66.8448C112.392 66.4267 112.867 66.0997 113.387 65.8832C113.908 65.6666 114.464 65.5651 115.021 65.5844H122.27L123.733 63.1372H114.853C113.994 63.1133 113.14 63.2746 112.341 63.6118C111.541 63.949 110.813 64.4552 110.198 65.1006C109.583 65.7459 109.094 66.5174 108.761 67.3694C108.427 68.2215 108.255 69.1369 108.255 70.0616C108.255 70.9864 108.427 71.9018 108.761 72.7538C109.094 73.6059 109.583 74.3773 110.198 75.0227C110.813 75.668 111.541 76.1742 112.341 76.5114C113.14 76.8486 113.994 77.01 114.853 76.986ZM145.089 74.5481C144.183 74.5485 143.301 74.23 142.577 73.6411C141.854 73.0521 141.329 72.2249 141.082 71.2852H151.65L153.104 68.8427H141.082C141.328 67.9026 141.853 67.0749 142.577 66.4859C143.3 65.8968 144.183 65.5786 145.089 65.5798H152.343L153.792 63.1326H144.921C143.245 63.1794 141.652 63.9295 140.482 65.223C139.312 66.5164 138.657 68.251 138.657 70.057C138.657 71.8629 139.312 73.5975 140.482 74.8909C141.652 76.1844 143.245 76.9345 144.921 76.9813H152.55L154 74.5435H145.085" fill="#E32124"/>
</svg>
