<svg width="208" height="140" viewBox="0 0 208 140" fill="none" xmlns="http://www.w3.org/2000/svg">
<path d="M0 32C0 23.1634 7.16344 16 16 16H192C200.837 16 208 23.1634 208 32V108C208 116.837 200.837 124 192 124H16C7.16344 124 0 116.837 0 108V32Z" fill="white"/>
<path d="M104 101.122C121.121 101.122 135 87.2425 135 70.1215C135 53.0007 121.121 39.1216 104 39.1216C86.8792 39.1216 73 53.0007 73 70.1215C73 87.2425 86.8792 101.122 104 101.122Z" fill="#1AB4D7"/>
<path d="M87.8392 70.032L93.1296 64.7285C93.305 64.5497 93.4029 64.3131 93.4029 64.0621C93.4029 63.539 92.9776 63.1141 92.4545 63.1141C92.1997 63.1141 91.9608 63.214 91.7807 63.3964L86.495 68.6795L81.1857 63.3885C81.0063 63.2116 80.7686 63.1141 80.5165 63.1141C79.9941 63.1141 79.5687 63.5387 79.5687 64.0613C79.5687 64.3162 79.6705 64.5554 79.8532 64.7357L85.1428 70.0246L79.8559 75.3214C79.6701 75.5044 79.5687 75.7442 79.5687 76.0002C79.5687 76.5232 79.9941 76.9475 80.5165 76.9475C80.769 76.9475 81.007 76.8496 81.1857 76.6707L86.4868 71.3768L91.7677 76.6514C91.955 76.845 92.1966 76.9482 92.4545 76.9482C92.9771 76.9482 93.4023 76.5232 93.4023 76.0002C93.4023 75.7478 93.3046 75.5108 93.1266 75.332L87.8392 70.032Z" fill="white"/>
<path d="M119.29 70.0304C119.29 70.9802 120.062 71.7529 121.013 71.7529C121.962 71.7529 122.735 70.9802 122.735 70.0304C122.735 69.0804 121.962 68.3078 121.013 68.3078C120.062 68.3078 119.29 69.0804 119.29 70.0304Z" fill="white"/>
<path d="M116.023 70.0313C116.023 67.2807 118.26 65.0427 121.011 65.0427C123.761 65.0427 125.999 67.2807 125.999 70.0313C125.999 72.7812 123.761 75.0182 121.011 75.0182C118.26 75.0182 116.023 72.7812 116.023 70.0313ZM114.061 70.0313C114.061 73.8633 117.179 76.981 121.011 76.981C124.844 76.981 127.964 73.8633 127.964 70.0313C127.964 66.1987 124.844 63.0802 121.011 63.0802C117.179 63.0802 114.061 66.1987 114.061 70.0313Z" fill="white"/>
<path d="M113.567 63.199L113.276 63.1982C112.4 63.1982 111.556 63.4743 110.85 64.0178C110.758 63.5925 110.377 63.2725 109.925 63.2725C109.404 63.2725 108.986 63.6901 108.985 64.2123C108.985 64.2142 108.988 75.919 108.988 75.919C108.989 76.4402 109.414 76.8639 109.936 76.8639C110.457 76.8639 110.882 76.4402 110.884 75.9179C110.884 75.9155 110.884 68.7197 110.884 68.7197C110.884 66.3205 111.103 65.3516 113.159 65.0948C113.348 65.0712 113.556 65.0749 113.556 65.0749C114.118 65.0556 114.518 64.6691 114.518 64.1469C114.518 63.6243 114.091 63.199 113.567 63.199Z" fill="white"/>
<path d="M95.3664 68.8869C95.3664 68.861 95.3684 68.834 95.3697 68.8073C95.92 66.6319 97.8902 65.022 100.237 65.022C102.611 65.022 104.6 66.6714 105.122 68.8869H95.3664ZM107.063 68.708C106.655 66.774 105.596 65.1855 103.983 64.1653C101.627 62.6691 98.5146 62.7519 96.2382 64.3707C94.3814 65.6916 93.3095 67.8525 93.3095 70.0785C93.3095 70.6366 93.3768 71.2 93.5169 71.7546C94.218 74.5127 96.5891 76.6007 99.416 76.9467C100.255 77.0483 101.071 76.9996 101.917 76.7807C102.644 76.6039 103.347 76.3093 103.994 75.8941C104.667 75.4619 105.228 74.892 105.772 74.2097C105.783 74.1972 105.794 74.1861 105.805 74.1729C106.183 73.7047 106.113 73.0387 105.698 72.7209C105.348 72.4527 104.761 72.3439 104.298 72.9359C104.199 73.0774 104.088 73.2231 103.966 73.3687C103.599 73.7749 103.143 74.1684 102.596 74.4736C101.901 74.8451 101.108 75.0574 100.266 75.0621C97.509 75.0314 96.0336 73.1069 95.5088 71.7332C95.4172 71.4767 95.3465 71.2106 95.2972 70.9366C95.2908 70.8853 95.2861 70.8359 95.2842 70.7903C95.8542 70.7903 105.178 70.7887 105.178 70.7887C106.535 70.7602 107.265 69.8028 107.063 68.708Z" fill="white"/>
</svg>
