<?xml version="1.0" encoding="utf-8"?>
<!-- Generator: Adobe Illustrator 27.5.0, SVG Export Plug-In . SVG Version: 6.00 Build 0)  -->
<svg version="1.1" id="Capa_1" xmlns="http://www.w3.org/2000/svg" xmlns:xlink="http://www.w3.org/1999/xlink" x="0px" y="0px"
	 viewBox="0 0 24 24" style="enable-background:new 0 0 24 24;" xml:space="preserve">
<style type="text/css">
	.st0{fill:#4687F1;}
</style>
<path class="st0" d="M8.6,17.1c0.5,0,0.9-0.4,0.9-0.8V7.7c0-0.5-0.4-0.8-0.9-0.8c-0.5,0-0.8,0.4-0.8,0.8v8.5
	C7.7,16.7,8.1,17.1,8.6,17.1L8.6,17.1z M12,20.5c0.5,0,0.9-0.4,0.9-0.9V4.3c0-0.5-0.4-0.8-0.9-0.8c-0.5,0-0.8,0.4-0.8,0.8v15.3
	C11.1,20.1,11.5,20.5,12,20.5L12,20.5z M5.1,13.7c0.5,0,0.9-0.4,0.9-0.9v-1.7c0-0.5-0.4-0.8-0.9-0.8c-0.5,0-0.8,0.4-0.8,0.8v1.7
	C4.3,13.3,4.7,13.7,5.1,13.7L5.1,13.7z M15.4,17.1c0.5,0,0.9-0.4,0.9-0.8V7.7c0-0.5-0.4-0.8-0.9-0.8c-0.5,0-0.8,0.4-0.8,0.8v8.5
	C14.6,16.7,15,17.1,15.4,17.1L15.4,17.1z M18,11.1v1.7c0,0.5,0.4,0.8,0.9,0.8c0.5,0,0.8-0.4,0.8-0.8v-1.7c0-0.5-0.4-0.8-0.9-0.8
	C18.4,10.3,18,10.7,18,11.1z"/>
</svg>
